<svg width="100" height="100" viewBox="0 0 100 100" fill="none" xmlns="http://www.w3.org/2000/svg">
<g id="react-2 1">
<g id="Group">
<path id="Vector" d="M77.1615 36.4093L77.5325 34.9713C78.9682 29.4065 79.3347 24.5229 78.703 20.7509C78.0714 16.979 76.4889 14.5169 74.1922 13.359L74.1828 13.3543C73.4902 12.9989 72.7004 12.7535 71.8221 12.6244V13.6446C72.3377 13.745 72.8215 13.9018 73.2758 14.1205L73.2878 14.1262L73.2997 14.1322C75.2871 15.1325 76.433 17.3595 76.9985 19.8744C77.5785 22.4535 77.634 25.678 77.1489 29.215C76.915 30.9677 76.5352 32.7948 76.0787 34.634L75.7286 36.0446L74.3077 35.7392C70.3757 34.8941 66.0726 34.2406 61.5398 33.8163L60.9226 33.7585L60.5262 33.2819C57.8144 30.0205 55.0074 27.0653 52.1876 24.4854L50.9069 23.3136L52.252 22.2163C55.644 19.4496 58.9617 17.2833 62.0071 15.8024C64.4224 14.6279 66.7291 13.8538 68.8017 13.5898V12.5897C63.8912 13.1494 57.538 16.3151 50.9102 21.7482L49.962 22.5254L49.0117 21.7509C42.3766 16.3439 36.0133 13.2057 31.0964 12.658V13.6589C33.1665 13.9194 35.4779 14.6893 37.8999 15.8587C40.9472 17.3299 44.27 19.4821 47.6626 22.2312L49.011 23.3237L47.7348 24.4997C44.9304 27.0838 42.1252 30.0204 39.4604 33.2734L39.0633 33.7582L38.4392 33.8164C33.886 34.2407 29.5855 34.894 25.6578 35.7557L24.2506 36.0645L23.8853 34.6708C23.4022 32.8273 23.0448 31.0379 22.7923 29.3212L22.7909 29.3112L22.7909 29.3112C22.295 25.7736 22.3397 22.549 22.9084 19.968C23.4621 17.4548 24.5922 15.2273 26.5604 14.2127C27.0371 13.9628 27.5567 13.8006 28.0964 13.7028V12.6908C27.1949 12.8186 26.3855 13.0667 25.667 13.4296L77.1615 36.4093ZM77.1615 36.4093L78.5958 36.7946M77.1615 36.4093L78.5958 36.7946M78.5958 36.7946C84.8596 38.4772 89.936 40.6515 93.4095 43.0512C96.9391 45.4896 98.5 47.9285 98.5 50.0859C98.5 52.2367 96.9465 54.6712 93.4374 57.1069C89.984 59.5039 84.9382 61.6777 78.7157 63.36L77.2808 63.7479L77.6557 65.1863C79.1012 70.733 79.4774 75.6031 78.8554 79.3659C78.2334 83.1284 76.6605 85.5849 74.3745 86.7419C73.2777 87.2961 71.9691 87.5824 70.4444 87.5824C65.361 87.5824 58.3611 84.378 51.0291 78.4031L50.0787 77.6286L49.1306 78.4058C41.796 84.4182 34.7977 87.654 29.7187 87.654C28.1917 87.654 26.8876 87.3668 25.8172 86.8176L25.8078 86.8128C23.5111 85.6549 21.9286 83.1928 21.297 79.421C20.6653 75.6489 21.0318 70.7654 22.4675 65.2006L22.8385 63.7625L21.4042 63.3772C15.1404 61.6946 10.064 59.5204 6.59047 57.1207C3.06088 54.6823 1.5 52.2433 1.5 50.0859C1.5 47.9363 3.05212 45.5063 6.56638 43.0726C10.0251 40.6774 15.0816 38.5032 21.3258 36.8117L22.7597 36.4232M78.5958 36.7946L22.7597 36.4232M22.7597 36.4232L22.3851 34.9856M22.7597 36.4232L22.3851 34.9856M22.3851 34.9856C20.9396 29.4388 20.5634 24.5688 21.1854 20.8059M22.3851 34.9856L21.1854 20.8059M21.1854 20.8059C21.8073 17.0435 23.3803 14.5869 25.6663 13.43L21.1854 20.8059ZM74.8868 38.6204L75.4044 37.037L73.7755 36.6878C71.0591 36.1054 68.2255 35.6338 65.297 35.2537L61.8181 34.8022L63.8951 37.6293C64.8876 38.9804 65.8683 40.3509 66.7845 41.7492L66.7885 41.7554L66.7927 41.7616C67.7289 43.1601 68.5889 44.5638 69.414 45.9767L70.8891 48.5027L72.0795 45.8307C73.1563 43.4138 74.1137 40.986 74.8868 38.6204ZM65.3784 58.0303L65.3819 58.025C66.9361 55.6425 68.3644 53.2081 69.6671 50.7764L70.0466 50.068L69.6671 49.3597C68.3628 46.925 66.9329 44.5059 65.3565 42.1213L65.3552 42.1194C63.7423 39.6877 62.0661 37.381 60.3467 35.2177L59.9365 34.7015L59.2789 34.6547C56.2318 34.4379 53.1181 34.3111 50 34.3111C46.8614 34.3111 43.7453 34.4379 40.6723 34.6732L40.0197 34.7232L39.6125 35.2355C37.8873 37.4062 36.2306 39.7334 34.6216 42.1773L34.6181 42.1826C33.0675 44.5596 31.6164 46.9967 30.3282 49.44L29.9564 50.1452L30.3329 50.8479C31.6372 53.2827 33.0671 55.7017 34.6435 58.0863L34.6448 58.0883C36.2577 60.5199 37.9339 62.8266 39.6533 64.99L40.0635 65.5061L40.7211 65.5529C43.7682 65.7697 46.8819 65.8966 50 65.8966C53.1386 65.8966 56.2547 65.7697 59.3277 65.5344L59.9803 65.4845L60.3875 64.9721C62.1127 62.8014 63.7694 60.4742 65.3784 58.0303ZM72.0725 54.254L70.8687 51.6326L69.414 54.1236C68.5858 55.5418 67.7235 56.967 66.8048 58.369L66.8002 58.3762C65.8837 59.7925 64.9027 61.181 63.91 62.5501L61.8708 65.3623L65.3161 64.9183C68.2709 64.5375 71.1247 64.0476 73.8366 63.4662L75.4748 63.115L74.9454 61.5255C74.1539 59.1495 73.1964 56.7016 72.0725 54.254ZM49.0337 75.0785L50.0462 75.9957L51.0538 75.073C52.9668 73.3212 54.9012 71.3681 56.7742 69.2313L59.1032 66.5741L55.5739 66.7443C53.7484 66.8323 51.8775 66.8678 49.9796 66.8678C48.1113 66.8678 46.2575 66.8149 44.4327 66.7437L40.8936 66.6057L43.2571 69.2435C45.164 71.3718 47.0962 73.3233 49.0337 75.0785ZM34.6826 64.9181L38.1615 65.3696L36.0845 62.5425C35.0989 61.201 34.1331 59.8236 33.187 58.4103C32.2507 57.0117 31.3907 55.6081 30.5656 54.1951L29.0905 51.6692L27.9001 54.3411C26.8233 56.7581 25.8659 59.1859 25.0928 61.5514L24.5752 63.1349L26.2041 63.4841C28.9205 64.0664 31.7541 64.5381 34.6826 64.9181ZM50.9459 25.0934L49.9334 24.1761L48.9258 25.0988C47.0128 26.8506 45.0784 28.8037 43.2055 30.9406L40.8764 33.5978L44.4057 33.4276C46.2312 33.3395 48.1021 33.3041 50 33.3041C51.8683 33.3041 53.7221 33.357 55.5469 33.4282L59.0861 33.5662L56.7225 30.9283C54.8156 28.8001 52.8835 26.8486 50.9459 25.0934ZM36.0696 37.6218L38.1089 34.8095L34.6636 35.2536C31.7086 35.6344 28.8579 36.1239 26.1524 36.6858L24.5014 37.0286L25.0343 38.6285C25.8257 41.0045 26.7832 43.4523 27.9071 45.8999L29.1109 48.5214L30.5656 46.0304C31.3906 44.6177 32.2535 43.2089 33.1748 41.8029L33.1794 41.7957C34.0959 40.3794 35.0769 38.9908 36.0696 37.6218ZM15.8826 60.5422L15.884 60.5427C17.7058 61.2227 19.6651 61.8442 21.7183 62.4084L23.0968 62.7872L23.5414 61.4285C24.6573 58.0183 26.1358 54.4566 27.9803 50.7968L28.3216 50.1197L27.9787 49.4434C26.1137 45.7651 24.6147 42.1848 23.4785 38.7559L23.0281 37.3968L21.6496 37.7835C19.6536 38.3433 17.6921 38.9466 15.8821 39.6298C12.1869 41.0043 9.07329 42.6274 6.8518 44.3201C5.74132 45.1663 4.81086 46.0621 4.14649 46.9924C3.4866 47.9164 3.02507 48.9666 3.02507 50.0859C3.02507 51.2057 3.48694 52.2551 4.14724 53.178C4.81185 54.1069 5.74247 55.001 6.85262 55.8457C9.0741 57.5359 12.1879 59.1591 15.8826 60.5422ZM26.7003 86.0397L26.7067 86.0429C27.5749 86.4746 28.5851 86.6618 29.6487 86.6825L29.6633 86.6828H29.6779C32.1151 86.6828 34.9689 85.84 37.9929 84.3695C41.0383 82.8886 44.356 80.7223 47.748 77.9555L49.0931 76.8583L47.8124 75.6865C44.9926 73.1066 42.1856 70.1513 39.4738 66.89L39.0774 66.4133L38.4602 66.3555C33.9274 65.9312 29.6243 65.2778 25.6923 64.4327L24.2714 64.1273L23.9213 65.5378C23.4648 67.377 23.085 69.2041 22.8512 70.9568C22.366 74.4938 22.4215 77.7184 23.0015 80.2974C23.567 82.8124 24.7129 85.0393 26.7003 86.0397ZM52.2652 75.6543L50.9891 76.8303L52.3374 77.9228C55.73 80.6718 59.0528 82.8241 62.1001 84.2953C65.1255 85.756 67.9782 86.5933 70.4036 86.5933C71.4661 86.5933 72.5304 86.4356 73.439 85.9594C75.4076 84.9451 76.5379 82.7173 77.0916 80.2039C77.6602 77.6236 77.705 74.4002 77.2095 70.8639C76.9751 69.126 76.5943 67.3314 76.1156 65.4867L75.7529 64.0888L74.3422 64.3983C70.4145 65.26 66.114 65.9133 61.5608 66.3376L60.9368 66.3958L60.5396 66.8806C57.8748 70.1336 55.0696 73.0702 52.2652 75.6543ZM76.5011 61.416L76.9515 62.7751L78.3301 62.3884C80.326 61.8286 82.2876 61.2252 84.0976 60.542C87.793 59.1675 90.9061 57.5444 93.1297 55.8523C94.2412 55.0064 95.1728 54.1113 95.8396 53.1825C96.5017 52.2602 96.9668 51.2131 96.9749 50.0968V50.0859C96.9749 48.9661 96.5131 47.9167 95.8528 46.9938C95.1881 46.0649 94.2575 45.1709 93.1474 44.3262C90.9259 42.6359 87.8121 41.0128 84.1174 39.6296L84.1108 39.6272C82.2721 38.9488 80.315 38.3278 78.2613 37.7635L76.8828 37.3847L76.4382 38.7433C75.3223 42.1535 73.8438 45.7152 71.9993 49.3751L71.658 50.0522L72.0009 50.7285C73.8659 54.4068 75.3649 57.9871 76.5011 61.416Z" stroke="#00D8FF" stroke-width="3"/>
<path id="Vector_2" d="M49.9792 58.2609C55.1238 58.2609 59.2943 54.6009 59.2943 50.086C59.2943 45.5711 55.1238 41.911 49.9792 41.911C44.8346 41.911 40.6641 45.5711 40.6641 50.086C40.6641 54.6009 44.8346 58.2609 49.9792 58.2609Z" fill="#00D8FF"/>
</g>
</g>
</svg>
