<svg width="328" height="66" viewBox="0 0 328 66" fill="none" xmlns="http://www.w3.org/2000/svg">
<g id="bootstrap">
<path id="0" fill-rule="evenodd" clip-rule="evenodd" d="M1 60.0975V5.99243C1 4.86339 1.23219 3.89775 1.69658 3.09554C1.9083 2.7186 2.16401 2.41747 2.44809 2.21056C2.73216 2.00366 3.03862 1.89534 3.34873 1.89221C3.36957 1.89183 3.39041 1.89183 3.41124 1.89221H16.0569C17.2108 1.88062 18.3632 2.0342 19.5014 2.35126C21.7048 2.98907 23.5127 4.29193 24.9249 6.25984C25.8526 7.53461 26.6088 9.11979 27.1442 10.9124C27.6796 12.705 27.9823 14.6649 28.0327 16.6649C28.051 17.1178 28.0599 17.5717 28.0595 18.0257C28.0649 19.3348 27.9844 20.6409 27.8193 21.9209C27.6043 23.6126 27.1847 25.2139 26.586 26.6272C25.6036 28.915 24.3444 30.6235 22.8083 31.7525C24.9517 32.8815 26.711 34.694 28.0863 37.1897C29.2245 39.2633 29.9263 41.8965 30.0858 44.692C30.1288 45.3382 30.15 45.9879 30.1492 46.6381C30.1607 48.53 30.0066 50.4146 29.692 52.2328C29.194 55.0688 28.196 57.5911 26.8271 59.4735C25.9035 60.7269 24.8537 61.6982 23.7264 62.3422C21.7605 63.5198 19.3112 64.1086 16.3784 64.1086H3.41124C3.07105 64.1152 2.73375 64.0039 2.42085 63.7817C2.15008 63.5828 1.90435 63.3005 1.69658 62.9498C1.23219 62.1773 1 61.2265 1 60.0975ZM5.87607 56.5321H15.8961C18.711 56.5321 20.86 55.9438 22.3431 54.7672C22.6668 54.514 22.9751 54.2095 23.2638 53.858C23.8732 53.1258 24.3796 52.1818 24.7478 51.0916C25.1161 50.0014 25.3374 48.791 25.3964 47.5443C25.422 47.1247 25.4346 46.7032 25.4339 46.2815C25.4339 39.5073 22.2725 36.1201 15.9497 36.1201H5.87607V56.5321ZM5.87607 28.811H14.7709C17.3714 28.811 19.3388 28.2143 20.6731 27.0209C20.9555 26.7715 21.2221 26.4753 21.4688 26.137C22.492 24.7218 23.1533 22.712 23.3183 20.5155C23.3724 19.8977 23.3989 19.274 23.3978 18.6496C23.4087 17.4227 23.254 16.2073 22.945 15.0931C22.6026 13.8908 22.0659 12.8479 21.3348 11.9645C20.6536 11.1575 19.8929 10.5547 19.087 10.1833C18.438 9.87031 17.7263 9.65985 16.9517 9.5519C16.5293 9.49488 16.1056 9.46712 15.6818 9.4687H5.87607V28.811Z" stroke="#D9D9D9" stroke-width="2" stroke-linecap="round"/>
<path id="1" fill-rule="evenodd" clip-rule="evenodd" d="M54.6905 64.9998C50.9397 64.9998 47.6532 63.6331 44.8312 60.8996C42.0092 58.1661 39.8301 54.3928 38.2941 49.5795C37.1913 46.0778 36.4624 42.2842 36.14 38.3677C35.9872 36.5892 35.9013 34.7966 35.8828 33.0003C35.9543 26.7608 36.758 21.2345 38.2941 16.4212C39.8301 11.6079 42.0092 7.83448 44.8312 5.101C46.9012 3.12143 49.1865 1.84398 51.555 1.34246C52.5943 1.1108 53.6419 0.996639 54.6905 1.00078C56.4399 0.981642 58.1842 1.31486 59.8854 1.99315C61.5136 2.65004 63.0758 3.69692 64.523 5.101C67.3272 7.83448 69.5062 11.6227 71.0602 16.4657C72.2437 20.1997 73.0041 24.2641 73.3035 28.4559C73.417 29.9639 73.482 31.4808 73.4982 33.0003C73.4268 39.1804 72.6141 44.6919 71.0602 49.5349C69.5062 54.3779 67.3272 58.1661 64.523 60.8996C62.4869 62.8579 60.2383 64.1281 57.9064 64.6374C56.8408 64.8827 55.7662 65.0038 54.6905 64.9998V64.9998ZM54.6905 57.4233C57.5483 57.4233 60.031 56.3537 62.1386 54.2145C64.2462 52.0752 65.8537 49.1635 66.961 45.4792C67.8042 42.6379 68.3313 39.5663 68.5167 36.4127C68.5878 35.2791 68.623 34.1401 68.6221 33.0003C68.6221 28.3653 68.0684 24.2056 66.961 20.5214C65.8537 16.8371 64.2462 13.9254 62.1386 11.7861C60.6449 10.2882 58.9861 9.30317 57.2598 8.88924C56.4094 8.67702 55.5505 8.57273 54.6905 8.57727C53.451 8.56409 52.2145 8.78488 51.0049 9.23539C49.6665 9.73539 48.3864 10.5971 47.2157 11.7861C45.1259 13.9254 43.5273 16.8371 42.42 20.5214C41.5769 23.3622 41.0498 26.4334 40.8643 29.5864C40.7931 30.7205 40.758 31.8601 40.7589 33.0003C40.7589 37.6353 41.3126 41.795 42.42 45.4792C43.5273 49.1635 45.1259 52.0752 47.2157 54.2145C49.3054 56.3537 51.797 57.4233 54.6905 57.4233Z" stroke="#D9D9D9" stroke-width="2" stroke-linecap="round"/>
<path id="2" fill-rule="evenodd" clip-rule="evenodd" d="M98.2003 64.9998C94.4494 64.9998 91.163 63.6331 88.341 60.8996C85.5189 58.1661 83.3399 54.3928 81.8038 49.5795C80.7011 46.0778 79.9722 42.2842 79.6498 38.3677C79.497 36.5892 79.4111 34.7966 79.3926 33.0003C79.464 26.7608 80.2678 21.2345 81.8038 16.4212C83.3399 11.6079 85.5189 7.83448 88.341 5.101C90.4109 3.12143 92.6962 1.84398 95.0648 1.34246C96.1041 1.1108 97.1517 0.996639 98.2003 1.00078C99.9496 0.981642 101.694 1.31486 103.395 1.99315C105.023 2.65004 106.586 3.69692 108.033 5.101C110.837 7.83448 113.016 11.6227 114.57 16.4657C115.753 20.1997 116.514 24.2641 116.813 28.4559C116.927 29.9639 116.992 31.4808 117.008 33.0003C116.937 39.1804 116.124 44.6919 114.57 49.5349C113.016 54.3779 110.837 58.1661 108.033 60.8996C105.997 62.8579 103.748 64.1281 101.416 64.6374C100.351 64.8827 99.276 65.0038 98.2003 64.9998ZM98.2003 57.4233C101.058 57.4233 103.541 56.3537 105.648 54.2145C107.756 52.0752 109.363 49.1635 110.471 45.4792C111.314 42.6379 111.841 39.5663 112.027 36.4127C112.098 35.2791 112.133 34.1401 112.132 33.0003C112.132 28.3653 111.578 24.2056 110.471 20.5214C109.363 16.8371 107.756 13.9254 105.648 11.7861C104.155 10.2882 102.496 9.30317 100.77 8.88924C99.9191 8.67702 99.0602 8.57273 98.2003 8.57727C96.9607 8.56409 95.7243 8.78488 94.5146 9.23539C93.1762 9.73539 91.8962 10.5971 90.7254 11.7861C88.6357 13.9254 87.0371 16.8371 85.9297 20.5214C85.0867 23.3622 84.5596 26.4334 84.374 29.5864C84.3029 30.7205 84.2677 31.8601 84.2686 33.0003C84.2686 37.6353 84.8223 41.795 85.9297 45.4792C87.0371 49.1635 88.6357 52.0752 90.7254 54.2145C92.8152 56.3537 95.3068 57.4233 98.2003 57.4233Z" stroke="#D9D9D9" stroke-width="2" stroke-linecap="round"/>
<path id="3" fill-rule="evenodd" clip-rule="evenodd" d="M132.332 60.5431V9.46861H121.401C121.112 9.47346 120.826 9.3909 120.555 9.22497C120.269 9.04378 120.009 8.76207 119.793 8.39899C119.589 8.06247 119.427 7.66184 119.317 7.22039C119.207 6.77894 119.151 6.30545 119.151 5.82744C119.151 5.79327 119.15 5.7591 119.15 5.72493C119.15 4.65531 119.365 3.7491 119.793 3.00631C119.992 2.65491 120.232 2.3748 120.498 2.1832C120.764 1.99159 121.051 1.89254 121.341 1.89212C121.361 1.89175 121.381 1.89175 121.401 1.89212H148.085C148.728 1.89212 149.273 2.26351 149.72 3.00631C149.933 3.35323 150.103 3.76834 150.218 4.22679C150.333 4.68525 150.391 5.17761 150.389 5.67442C150.389 5.69126 150.389 5.70809 150.389 5.72493C150.393 6.22828 150.336 6.72776 150.222 7.19418C150.107 7.64955 149.936 8.05988 149.72 8.39899C149.273 9.11207 148.728 9.46861 148.085 9.46861H137.208V60.5431C137.213 61.1513 137.132 61.753 136.973 62.3005C136.85 62.7099 136.684 63.0804 136.485 63.3954C136.002 64.1679 135.422 64.5541 134.743 64.5541C134.403 64.5608 134.066 64.4495 133.753 64.2273C133.482 64.0284 133.236 63.7461 133.028 63.3954C132.564 62.6229 132.332 61.6721 132.332 60.5431Z" stroke="#D9D9D9" stroke-width="2" stroke-linecap="round"/>
<path id="4" fill-rule="evenodd" clip-rule="evenodd" d="M168.071 64.9998C163.535 64.9998 159.284 63.5737 155.319 60.7213C154.926 60.4464 154.585 60.0029 154.33 59.4363C154.302 59.3755 154.274 59.3136 154.247 59.2506C154.088 58.8772 153.969 58.4611 153.895 58.0205C153.844 57.7098 153.818 57.389 153.818 57.0668C153.818 56.0566 154.024 55.1801 154.435 54.4373C154.623 54.0918 154.851 53.8146 155.107 53.6231C155.362 53.4316 155.639 53.33 155.919 53.3246C155.951 53.3232 155.983 53.3227 156.015 53.3231C156.372 53.3231 156.712 53.442 157.033 53.6797C160.32 56.116 163.838 57.3342 167.589 57.3342C168.656 57.3464 169.721 57.2257 170.777 56.9732C174.903 55.9323 176.966 52.6358 176.966 47.0837C176.976 46.2948 176.887 45.5112 176.704 44.7828C176.522 44.0544 176.25 43.3971 175.907 42.8527C175.859 42.7755 175.811 42.7002 175.761 42.6269C175.217 41.8313 174.612 41.1607 173.961 40.6332C173.58 40.3218 173.188 40.0499 172.787 39.8191C171.884 39.2952 170.689 38.6936 169.2 38.0142C168.718 37.7942 168.234 37.5787 167.75 37.3679C166.817 36.9669 165.888 36.543 164.963 36.0963C164.138 35.6971 163.373 35.3025 162.668 34.9122C162.016 34.5548 161.37 34.1699 160.731 33.758C158.944 32.5992 157.408 30.8611 156.122 28.5435C154.836 26.226 154.193 23.136 154.193 19.2735C154.193 15.8863 154.729 12.8112 155.801 10.048C156.565 8.10468 157.559 6.44147 158.723 5.16041C159.302 4.51362 159.911 3.94244 160.543 3.45199C162.507 1.91589 164.84 1.10179 167.545 1.00968C167.72 1.0037 167.896 1.00073 168.071 1.00077C170.12 0.986056 172.165 1.28042 174.182 1.88024C175.732 2.34634 177.256 3.03628 178.735 3.94223C179.735 4.53647 180.235 5.72493 180.235 7.50764C180.235 8.41116 180.046 9.28663 179.7 9.98263C179.682 10.0197 179.664 10.0564 179.645 10.0926C179.474 10.437 179.261 10.7175 179.02 10.9156C178.78 11.1138 178.516 11.2251 178.248 11.2424C178.196 11.248 178.144 11.251 178.092 11.2513C178.017 11.2499 177.943 11.2379 177.87 11.2157C177.692 11.1652 177.48 11.0582 177.234 10.8948C174.448 9.29034 171.572 8.48813 168.607 8.48813C167.657 8.47998 166.708 8.59522 165.769 8.83278C164.204 9.2428 162.855 10.0193 161.722 11.1622C159.954 12.9449 159.07 15.4407 159.07 18.6495C159.065 19.4798 159.138 20.3063 159.286 21.0993C159.487 22.1529 159.846 23.1042 160.329 23.8639C160.902 24.7672 161.552 25.5246 162.259 26.1116C162.657 26.4469 163.069 26.7382 163.49 26.9837C163.927 27.2376 164.369 27.4738 164.813 27.6923C165.809 28.1865 166.994 28.6995 168.365 29.2314C168.464 29.2698 168.562 29.3079 168.661 29.3458C170.557 30.1034 172.208 30.8616 173.612 31.6202C174.245 31.9602 174.873 32.3313 175.493 32.7329C177.225 33.8619 178.708 35.6149 179.94 37.9919C181.099 40.2272 181.713 43.1984 181.783 46.9054C181.787 47.143 181.789 47.3807 181.789 47.6185C181.789 50.9462 181.217 53.9322 180.074 56.5766C179.242 58.4795 178.188 60.0842 176.974 61.2948C176.422 61.8545 175.846 62.348 175.252 62.7715C173.98 63.6682 172.645 64.2884 171.278 64.6166C170.217 64.8774 169.145 65.0056 168.071 64.9998V64.9998Z" stroke="#D9D9D9" stroke-width="2" stroke-linecap="round"/>
<path id="5" fill-rule="evenodd" clip-rule="evenodd" d="M195.99 60.5431V9.46861H185.059C184.771 9.47346 184.484 9.3909 184.213 9.22497C183.927 9.04378 183.667 8.76207 183.452 8.39899C183.248 8.06247 183.086 7.66184 182.975 7.22039C182.865 6.77894 182.809 6.30545 182.809 5.82744C182.809 5.79327 182.809 5.7591 182.809 5.72493C182.809 4.65531 183.023 3.7491 183.452 3.00631C183.65 2.65491 183.89 2.3748 184.156 2.1832C184.422 1.99159 184.709 1.89254 184.999 1.89212C185.019 1.89175 185.039 1.89175 185.059 1.89212H211.743C212.386 1.89212 212.931 2.26351 213.378 3.00631C213.592 3.35323 213.761 3.76834 213.876 4.22679C213.991 4.68525 214.05 5.17761 214.048 5.67442C214.048 5.69126 214.048 5.70809 214.048 5.72493C214.051 6.22828 213.994 6.72776 213.881 7.19418C213.765 7.64955 213.594 8.05988 213.378 8.39899C212.931 9.11207 212.386 9.46861 211.743 9.46861H200.866V60.5431C200.871 61.1513 200.791 61.753 200.631 62.3005C200.508 62.7099 200.343 63.0804 200.143 63.3954C199.661 64.1679 199.08 64.5541 198.401 64.5541C198.061 64.5608 197.724 64.4495 197.411 64.2273C197.14 64.0284 196.894 63.7461 196.687 63.3954C196.222 62.6229 195.99 61.6721 195.99 60.5431Z" stroke="#D9D9D9" stroke-width="2" stroke-linecap="round"/>
<path id="6" fill-rule="evenodd" clip-rule="evenodd" d="M219.939 60.5431V5.99235C219.939 4.86331 220.172 3.89768 220.636 3.09546C220.848 2.71852 221.103 2.41739 221.388 2.21049C221.672 2.00358 221.978 1.89526 222.288 1.89213C222.309 1.89175 222.33 1.89175 222.351 1.89213H234.836C239.694 1.89213 243.337 3.55599 245.767 6.8837C246.827 8.28487 247.697 10.0437 248.32 12.0445C248.943 14.0452 249.303 16.2426 249.379 18.4921C249.4 18.9894 249.411 19.4879 249.41 19.9866C249.41 23.552 248.812 26.8054 247.615 29.7469C246.659 32.0756 245.346 33.9385 243.813 35.144C243.352 35.5178 242.877 35.8438 242.391 36.12C244.963 37.2491 246.722 39.9083 247.669 44.0976C248.257 46.6662 248.672 49.336 248.906 52.0574C249.027 53.5105 249.088 54.9758 249.089 56.4429V60.5431C249.093 61.109 249.026 61.6701 248.892 62.1906C248.773 62.641 248.603 63.0498 248.392 63.3954C247.928 64.1679 247.356 64.5542 246.677 64.5542C246.415 64.5576 246.153 64.5047 245.898 64.3967C245.514 64.2358 245.163 63.9052 244.882 63.44C244.519 62.8338 244.291 62.0391 244.237 61.1878C244.221 60.974 244.213 60.7586 244.213 60.5431V57.869C244.215 56.1793 244.159 54.4908 244.043 52.8121C243.968 51.742 243.864 50.6782 243.73 49.624C243.409 47.0985 242.641 44.8404 241.426 42.8497C240.449 41.2463 239.066 40.2886 237.277 39.9766C236.822 39.8993 236.365 39.8616 235.907 39.8637H224.816V60.5431C224.82 61.1513 224.74 61.753 224.581 62.3005C224.457 62.7099 224.292 63.0804 224.092 63.3954C223.61 64.1679 223.029 64.5542 222.351 64.5542C222.01 64.5608 221.673 64.4495 221.36 64.2273C221.09 64.0284 220.844 63.7461 220.636 63.3954C220.172 62.6229 219.939 61.6721 219.939 60.5431ZM224.816 32.1981H234.514C237.586 32.1981 240.024 31.1879 241.828 29.1675C243.507 27.2867 244.405 24.6855 244.522 21.3637C244.53 21.1129 244.534 20.8617 244.534 20.6105C244.542 19.4178 244.44 18.2301 244.233 17.0882C243.882 15.202 243.169 13.559 242.203 12.4101C241.659 11.765 241.059 11.2578 240.425 10.9052C239.228 10.207 237.717 9.77961 235.892 9.62312C235.344 9.578 234.795 9.5562 234.246 9.55776H224.816V32.1981Z" stroke="#D9D9D9" stroke-width="2" stroke-linecap="round"/>
<path id="7" fill-rule="evenodd" clip-rule="evenodd" d="M255.842 58.7604L269.506 5.10106C269.708 4.32963 269.991 3.62508 270.344 3.02123C270.459 2.82544 270.582 2.64186 270.711 2.47157C271.229 1.7882 271.864 1.44651 272.614 1.44651H273.149C273.47 1.44178 273.789 1.5123 274.098 1.65598C274.445 1.82086 274.769 2.09801 275.052 2.47157C275.543 3.12336 275.937 3.95514 276.203 4.90199C276.222 4.96792 276.24 5.03429 276.257 5.10106L289.921 58.7604C289.974 58.968 290.021 59.1791 290.063 59.3933C290.145 59.8182 290.187 60.1901 290.189 60.509C290.189 60.5204 290.189 60.5318 290.189 60.5431C290.189 61.6722 289.966 62.623 289.519 63.3955C289.137 64.0576 288.622 64.4617 288.072 64.5305C287.974 64.5462 287.876 64.5542 287.778 64.5542C287.278 64.5542 286.822 64.3314 286.411 63.8857C286.001 63.44 285.688 62.8309 285.474 62.0584L281.991 48.1534H263.772L260.29 62.0584C260.075 62.8309 259.763 63.44 259.352 63.8857C258.941 64.3314 258.486 64.5542 257.985 64.5542C257.708 64.5585 257.432 64.4914 257.167 64.3552C256.816 64.1702 256.498 63.84 256.244 63.3955C255.807 62.6459 255.567 61.639 255.575 60.5951C255.575 60.5778 255.574 60.5605 255.574 60.5431C255.575 60.3641 255.586 60.1856 255.606 60.0098C255.645 59.6562 255.72 59.2541 255.831 58.8035C255.835 58.7891 255.839 58.7748 255.842 58.7604V58.7604ZM272.882 11.7862L265.648 40.7551H280.115L272.882 11.7862Z" stroke="#D9D9D9" stroke-width="2" stroke-linecap="round"/>
<path id="8" fill-rule="evenodd" clip-rule="evenodd" d="M298.064 60.5433V5.99252C298.064 4.86348 298.297 3.89784 298.761 3.09563C298.973 2.71869 299.228 2.41756 299.513 2.21065C299.797 2.00375 300.103 1.89542 300.413 1.8923C300.434 1.89192 300.455 1.89192 300.476 1.8923H312.693C313.835 1.88336 314.977 2.00596 316.109 2.25924C317.287 2.53259 318.364 2.95796 319.341 3.53536C319.91 3.86942 320.464 4.27362 320.998 4.74463C321.852 5.49018 322.654 6.39314 323.387 7.43651C324.296 8.72719 325.049 10.2942 325.606 12.0537C326.535 15.0249 326.999 18.2338 326.999 21.6803C326.999 25.1269 326.535 28.3357 325.606 31.3069C324.677 34.2781 323.141 36.7144 320.998 38.616C319.995 39.4881 318.929 40.1431 317.826 40.5651C316.833 40.9603 315.755 41.2257 314.591 41.3614C313.959 41.4338 313.326 41.4695 312.693 41.4683H302.941V60.5433C302.945 61.1515 302.865 61.7532 302.706 62.3007C302.582 62.7101 302.417 63.0806 302.217 63.3956C301.735 64.1681 301.154 64.5543 300.476 64.5543C300.135 64.561 299.798 64.4497 299.485 64.2275C299.215 64.0286 298.969 63.7463 298.761 63.3956C298.297 62.6231 298.064 61.6723 298.064 60.5433ZM302.941 33.8027H312.21C315.304 33.8027 317.618 32.9673 319.154 31.2965C319.419 31.0101 319.669 30.6855 319.9 30.3264C320.59 29.2789 321.143 28.0064 321.525 26.588C321.907 25.1696 322.11 23.6356 322.121 22.0814C322.123 21.9477 322.124 21.814 322.123 21.6803C322.137 19.9525 321.923 18.2407 321.496 16.665C321.111 15.2937 320.569 14.0605 319.9 13.0342C319.312 12.1444 318.627 11.4487 317.883 10.9841C316.646 10.171 315.084 9.7055 313.198 9.58764C312.869 9.56745 312.54 9.55754 312.21 9.55793H302.941V33.8027Z" stroke="#D9D9D9" stroke-width="2" stroke-linecap="round"/>
</g>
</svg>
