<svg width="100" height="100" viewBox="0 0 100 100" fill="none" xmlns="http://www.w3.org/2000/svg">
<g id="BOOTSTRAP4-WHITE">
<path id="Vector" d="M75.6034 70.8084L75.7179 70.5323V70.2334V70.2147V70.1376C76.469 68.1298 76.8742 65.9865 76.8742 63.7395C76.8742 59.4982 75.872 55.8659 73.8594 52.9445C72.421 50.8566 70.4705 49.3141 68.1073 48.2955C69.6235 47.2723 70.8982 46.0306 71.906 44.5682C73.5401 42.1972 74.321 39.3818 74.321 36.1824C74.321 30.983 72.6252 26.8752 68.9929 24.1174C65.5115 21.448 60.9547 20.2288 55.5017 20.2288H27.1633H25.6633V21.7288V80.065V81.565H27.1633H53.9548C57.8174 81.565 61.2115 81.1326 64.1117 80.2299C67.0055 79.3496 69.3928 78.0947 71.3175 76.546L71.3211 76.5432C73.2071 75.0162 74.677 73.0406 75.6034 70.8084ZM61.7369 57.0546C62.8393 58.5126 63.7535 60.225 63.7802 62.4915C63.7786 65.1146 63.0154 66.9691 61.6789 68.2298C60.3305 69.5018 58.3221 70.2304 55.4986 70.2304H38.9324V55.0329H55.4517C58.1394 55.0329 60.7817 56.3401 61.7369 57.0546ZM54.0361 44.6608H38.8699V31.5634H54.0361C56.6163 31.5634 58.349 32.1395 59.4544 33.0352L59.4605 33.0401C60.4238 33.8124 61.1113 35.3331 61.1113 38.0699C61.1113 40.2262 60.4945 41.7208 59.3865 42.767L59.1699 42.9506C57.8846 44.0392 56.1587 44.6608 54.0361 44.6608ZM16.6687 1.5H83.3339C91.6682 1.5 98.5 8.33179 98.5 16.6661V83.3339C98.5 91.6682 91.6682 98.5 83.3339 98.5H16.6661C8.33179 98.5 1.5 91.6682 1.5 83.3339V16.6687C1.52979 8.30095 8.29819 1.52979 16.6687 1.5Z" stroke="#D9D9D9" stroke-width="3"/>
</g>
</svg>
