<svg width="104" height="104" viewBox="0 0 104 104" fill="none" xmlns="http://www.w3.org/2000/svg">
<g id="BOOTSTRAP4">
<path id="SHIELD" d="M15.8462 2C4.5631 2 2 6.66321 2 18.5803C2 30.4974 2.001 78.6839 2 88.5285C1.999 98.3731 6.10156 102 15.8462 102M15.8462 2C27.1292 2 87.1282 2 87.1282 2M15.8462 2H87.1282M87.1282 2C97.6388 2.89136 101.048 5.89063 102 15.9896M102 15.9896C102 15.9896 102 79.2021 102 88.5285M102 15.9896V88.5285M102 88.5285C102 97.8549 98.9231 102 87.1282 102M87.1282 102C75.3333 102 25.5907 102 15.8462 102M87.1282 102H15.8462" stroke="#563D7C" stroke-width="3"/>
<path id="B-STROKE" d="M75.8465 40.5147C78.4106 34.8152 74.308 20.8255 64.0516 19.2712C53.7952 17.7168 24.5645 19.2712 24.5645 19.2712V85.0743C24.5645 85.0743 50.2055 85.5924 63.026 85.0743C75.8465 84.5561 78.9234 79.3748 79.4363 68.494C79.9491 57.6131 73.4443 50.0803 63.026 50.3592C72.259 48.4914 73.2641 46.2566 75.7746 40.6746M75.8465 40.5147L75.7746 40.6746M75.8465 40.5147C75.8224 40.5683 75.7984 40.6216 75.7746 40.6746" stroke="#563D7C" stroke-width="3" stroke-linejoin="round"/>
<path id="B-ROLES" d="M39.4357 29.9792V47.0777M39.4357 29.9792C39.4357 29.9792 55.3331 29.9792 59.4357 29.9792M39.4357 29.9792H59.4357M39.4357 47.0777C39.4357 47.0777 55.8459 47.0777 59.4357 47.0777M39.4357 47.0777H59.4357M59.4357 47.0777C63.0254 47.0777 63.5382 29.9793 59.4357 29.9792M38.9229 54.3316V74.0207M38.9229 54.3316C38.9229 54.3316 48.6664 54.3316 58.41 54.3316M38.9229 54.3316H58.41M38.9229 74.0207C38.9229 74.0207 50.7177 74.0207 58.41 74.0207M38.9229 74.0207H58.41M58.41 74.0207C66.1023 74.0207 68.1536 54.3316 58.41 54.3316" stroke="#563D7C" stroke-width="3"/>
</g>
</svg>
