<svg width="182" height="68" viewBox="0 0 182 68" fill="none" xmlns="http://www.w3.org/2000/svg">
<g id="svgGroup">
<path id="0" fill-rule="evenodd" clip-rule="evenodd" d="M19.607 64.6681C22.2363 65.5733 24.958 66.0214 27.6909 65.9992C29.1767 66.0045 30.6613 65.8998 32.1366 65.6858C33.6505 65.4683 35.1467 65.0961 36.6091 64.5731C39.2271 63.6223 41.8328 62.2556 44.4263 60.4729C45.5029 59.7598 46.0411 58.6307 46.0411 57.0857C46.0412 57.0709 46.0412 57.056 46.0411 57.0412C46.0444 56.6017 45.9745 56.166 45.8358 55.7601C45.697 55.3543 45.4923 54.9866 45.2337 54.6791C44.9084 54.2829 44.5036 53.9967 44.0593 53.8487C43.7484 53.7457 43.4273 53.6952 43.1051 53.6986C42.9931 53.6989 42.8813 53.7058 42.7699 53.7194C42.427 53.7566 42.0927 53.8704 41.7839 54.0551C41.0614 54.5149 40.327 54.9464 39.5818 55.3491C38.2483 56.0729 36.8748 56.683 35.4714 57.1749C35.3259 57.2255 35.1799 57.274 35.0334 57.3205C34.0001 57.6463 32.8897 57.8865 31.7023 58.041C30.5891 58.1806 29.4706 58.2486 28.3515 58.2445C26.7203 58.2551 25.0921 58.077 23.4887 57.7126C21.4157 57.2505 19.4234 56.3602 17.5983 55.0802C14.6378 52.9707 12.4113 50.0886 10.9188 46.4341C10.2116 44.6946 9.67263 42.8616 9.31253 40.9716C8.88182 38.6849 8.66959 36.3455 8.68006 33.9998C8.67849 32.732 8.73772 31.4651 8.85745 30.2056C9.12782 27.2025 9.82528 24.279 10.9188 21.5655C12.4113 17.9109 14.6378 15.0289 17.5983 12.9194C20.5588 10.8099 24.1432 9.7551 28.3515 9.7551C28.5187 9.75518 28.6859 9.75667 28.8531 9.75956C31.3389 9.80116 33.545 10.1562 35.4714 10.8247C36.2593 11.0991 37.0376 11.4129 37.8043 11.7651C39.1658 12.3935 40.4948 13.1212 41.7839 13.9444C41.9568 14.0491 42.1385 14.1308 42.3258 14.1881C42.5807 14.2649 42.8425 14.3028 43.1051 14.301C43.2551 14.3015 43.4051 14.2911 43.5541 14.2698C44.1936 14.1923 44.7893 13.8398 45.2337 13.2759C45.2519 13.2534 45.2698 13.2306 45.2875 13.2076C45.7738 12.5903 46.0439 11.7681 46.0411 10.9139C46.0411 9.97893 45.8442 9.19603 45.4502 8.56515C45.1737 8.1345 44.8246 7.78048 44.4263 7.52673C41.8328 5.74403 39.2271 4.3773 36.6091 3.42652C33.9911 2.47575 31.0184 2.00037 27.6909 2.00037C22.7975 2.00037 18.4057 3.29282 14.5154 5.87773C10.6252 8.46265 7.56681 12.1766 5.34032 17.0196C4.1747 19.5733 3.31422 22.3155 2.78474 25.1636C2.24905 28.0635 1.98597 31.0279 2.00058 33.9998C1.99525 36.1394 2.12736 38.2762 2.39572 40.3908C2.85116 44.105 3.84829 47.6908 5.34032 50.98C7.56681 55.823 10.6252 59.5369 14.5154 62.1219C16.1308 63.1944 17.8382 64.0483 19.607 64.6681V64.6681Z" stroke="#D9D9D9" stroke-width="3" stroke-linecap="round"/>
<path id="1" fill-rule="evenodd" clip-rule="evenodd" d="M72.2473 65.9994C66.0327 65.9994 60.2096 64.5732 54.7779 61.7209C54.2408 61.4464 53.7734 61.0034 53.4236 60.4373C53.3845 60.376 53.3466 60.3136 53.3099 60.2501C53.0923 59.8767 52.9292 59.4606 52.8279 59.0201C52.7579 58.7093 52.7225 58.3885 52.7227 58.0663C52.7227 57.0562 53.004 56.1797 53.5668 55.4369C53.8244 55.0916 54.138 54.8147 54.4878 54.6234C54.8377 54.4322 55.2163 54.3308 55.6 54.3256C55.644 54.3237 55.688 54.3227 55.7321 54.3227C56.2214 54.3227 56.6863 54.4415 57.1267 54.6792C61.6286 57.1156 66.4486 58.3337 71.5867 58.3337C73.0474 58.3464 74.5069 58.2262 75.9528 57.9742C81.6055 56.9333 84.4319 53.6363 84.4319 48.0832C84.4448 47.2946 84.3225 46.5113 84.0727 45.7832C83.8229 45.0551 83.4511 44.398 82.981 43.8538C82.9156 43.7761 82.8487 43.7003 82.7803 43.6265C82.0358 42.8314 81.2067 42.1613 80.3153 41.6343C79.7934 41.3224 79.2562 41.05 78.7066 40.8187C77.471 40.2958 75.8333 39.6946 73.7936 39.0152C73.1324 38.7948 72.4701 38.5788 71.8069 38.3675C70.5291 37.967 69.2563 37.5436 67.9888 37.0974C66.8593 36.6972 65.8113 36.3026 64.8448 35.9133C63.9524 35.5554 63.0677 35.1701 62.1914 34.7576C59.7447 33.5988 57.6405 31.8607 55.8789 29.5432C54.1173 27.2257 53.2365 24.1357 53.2365 20.2731C53.2365 16.886 53.9705 13.8109 55.4385 11.0477C56.4848 9.10492 57.8469 7.44223 59.4413 6.16161C60.2347 5.5143 61.0683 4.94263 61.9345 4.4517C64.6242 2.9166 67.8212 2.1025 71.5255 2.0094C71.7661 2.00342 72.0067 2.00045 72.2473 2.00049C75.0535 1.98627 77.8551 2.28113 80.6175 2.88144C82.7417 3.34706 84.8284 4.0365 86.8541 4.94194C88.2242 5.53618 88.9093 6.72464 88.9093 8.50734C88.9105 9.41136 88.6512 10.2874 88.1765 10.9838C88.1521 11.0204 88.1272 11.0565 88.1019 11.0923C87.8675 11.437 87.5758 11.7177 87.2459 11.9161C86.9159 12.1145 86.5552 12.2261 86.1874 12.2436C86.1161 12.2487 86.0447 12.2512 85.9733 12.251C85.8715 12.25 85.77 12.2386 85.6699 12.2168C85.426 12.1653 85.1357 12.0579 84.7989 11.8945C80.982 10.29 77.0428 9.48782 72.9813 9.48782C71.6799 9.48017 70.3801 9.5959 69.0935 9.83396C66.9494 10.244 65.1013 11.02 63.5493 12.1619C61.1271 13.9446 59.9159 16.4403 59.9159 19.6492C59.9093 20.48 60.0092 21.3069 60.212 22.1004C60.488 23.1535 60.9796 24.1043 61.6409 24.8636C62.4261 25.7673 63.3169 26.5252 64.2845 27.1128C64.8305 27.4475 65.3941 27.7383 65.9715 27.9833C66.5707 28.2377 67.1748 28.4745 67.7833 28.6934C69.1486 29.1876 70.7707 29.7006 72.6498 30.2325C72.7847 30.2704 72.9197 30.308 73.0547 30.3454C75.6523 31.104 77.913 31.8627 79.837 32.6213C80.7046 32.9608 81.5637 33.3314 82.4133 33.7325C84.7866 34.8616 86.8174 36.6145 88.5056 38.9915C90.0935 41.2278 90.9348 44.1994 91.0294 47.9064C91.0353 48.1436 91.0381 48.3808 91.0379 48.618C91.0379 51.9457 90.255 54.9318 88.6891 57.5761C87.549 59.4796 86.1049 61.0848 84.4429 62.2958C83.6861 62.855 82.8975 63.348 82.083 63.771C80.3422 64.6681 78.5132 65.2888 76.6416 65.6176C75.1867 65.878 73.7179 66.0056 72.2473 65.9994V65.9994Z" stroke="#D9D9D9" stroke-width="3" stroke-linecap="round"/>
<path id="2" fill-rule="evenodd" clip-rule="evenodd" d="M117.458 65.9994C111.244 65.9994 105.42 64.5732 99.9888 61.7209C99.4517 61.4464 98.9843 61.0034 98.6346 60.4373C98.5954 60.376 98.5575 60.3136 98.5208 60.2501C98.3032 59.8767 98.1402 59.4606 98.0388 59.0201C97.9688 58.7093 97.9334 58.3885 97.9336 58.0663C97.9336 57.0562 98.215 56.1797 98.7777 55.4369C99.0353 55.0916 99.3489 54.8147 99.6988 54.6234C100.049 54.4322 100.427 54.3308 100.811 54.3256C100.855 54.3237 100.899 54.3227 100.943 54.3227C101.432 54.3227 101.897 54.4415 102.338 54.6792C106.84 57.1156 111.66 58.3337 116.798 58.3337C118.258 58.3464 119.718 58.2262 121.164 57.9742C126.816 56.9333 129.643 53.6363 129.643 48.0832C129.656 47.2946 129.533 46.5113 129.284 45.7832C129.034 45.0551 128.662 44.398 128.192 43.8538C128.127 43.7761 128.06 43.7003 127.991 43.6265C127.247 42.8314 126.418 42.1613 125.526 41.6343C125.004 41.3224 124.467 41.05 123.918 40.8187C122.682 40.2958 121.044 39.6946 119.005 39.0152C118.343 38.7948 117.681 38.5788 117.018 38.3675C115.74 37.967 114.467 37.5436 113.2 37.0974C112.07 36.6972 111.022 36.3026 110.056 35.9133C109.163 35.5554 108.279 35.1701 107.402 34.7576C104.956 33.5988 102.851 31.8607 101.09 29.5432C99.3282 27.2257 98.4474 24.1357 98.4474 20.2731C98.4474 16.886 99.1814 13.8109 100.649 11.0477C101.696 9.10492 103.058 7.44223 104.652 6.16161C105.446 5.5143 106.279 4.94263 107.145 4.4517C109.835 2.9166 113.032 2.1025 116.736 2.0094C116.977 2.00342 117.218 2.00045 117.458 2.00049C120.264 1.98627 123.066 2.28113 125.828 2.88144C127.953 3.34706 130.039 4.0365 132.065 4.94194C133.435 5.53618 134.12 6.72464 134.12 8.50734C134.121 9.41136 133.862 10.2874 133.387 10.9838C133.363 11.0204 133.338 11.0565 133.313 11.0923C133.078 11.437 132.787 11.7177 132.457 11.9161C132.127 12.1145 131.766 12.2261 131.398 12.2436C131.327 12.2487 131.256 12.2512 131.184 12.251C131.082 12.25 130.981 12.2386 130.881 12.2168C130.637 12.1653 130.347 12.0579 130.01 11.8945C126.193 10.29 122.254 9.48782 118.192 9.48782C116.891 9.48017 115.591 9.5959 114.304 9.83396C112.16 10.244 110.312 11.02 108.76 12.1619C106.338 13.9446 105.127 16.4403 105.127 19.6492C105.12 20.48 105.22 21.3069 105.423 22.1004C105.699 23.1535 106.191 24.1043 106.852 24.8636C107.637 25.7673 108.528 26.5252 109.495 27.1128C110.041 27.4475 110.605 27.7383 111.182 27.9833C111.782 28.2377 112.386 28.4745 112.994 28.6934C114.36 29.1876 115.982 29.7006 117.861 30.2325C117.996 30.2704 118.131 30.308 118.266 30.3454C120.863 31.104 123.124 31.8627 125.048 32.6213C125.916 32.9608 126.775 33.3314 127.624 33.7325C129.998 34.8616 132.028 36.6145 133.717 38.9915C135.304 41.2278 136.146 44.1994 136.24 47.9064C136.246 48.1436 136.249 48.3808 136.249 48.618C136.249 51.9457 135.466 54.9318 133.9 57.5761C132.76 59.4796 131.316 61.0848 129.654 62.2958C128.897 62.855 128.108 63.348 127.294 63.771C125.553 64.6681 123.724 65.2888 121.853 65.6176C120.398 65.878 118.929 66.0056 117.458 65.9994V65.9994Z" stroke="#D9D9D9" stroke-width="3" stroke-linecap="round"/>
<path id="3" fill-rule="evenodd" clip-rule="evenodd" d="M157.097 37.1196H155.923C155.091 37.1196 154.369 36.7482 153.758 36.0055C153.457 35.6484 153.218 35.2215 153.055 34.7501C152.91 34.3136 152.837 33.8467 152.84 33.376C152.84 32.3658 153.146 31.4893 153.758 30.7465C154.052 30.3809 154.404 30.0909 154.792 29.8938C155.152 29.7177 155.536 29.6289 155.923 29.6323H156.363C157.717 29.6384 159.07 29.5586 160.417 29.3931C163.265 29.0297 165.586 28.2517 167.381 27.0593C167.452 27.0117 167.523 26.9632 167.594 26.9137C168.479 26.3141 169.267 25.522 169.917 24.5769C170.961 23.021 171.484 21.111 171.484 18.847C171.498 17.6373 171.293 16.4387 170.882 15.3366C170.45 14.2095 169.785 13.2236 168.889 12.3788C168.777 12.2733 168.664 12.1713 168.548 12.0727C167.732 11.3969 166.837 10.8759 165.892 10.5277C165.03 10.1959 164.07 9.95132 163.013 9.79385C161.976 9.64423 160.931 9.57179 159.886 9.57696C156.989 9.55462 154.106 10.0901 151.346 11.1636C150.379 11.5455 149.432 11.998 148.509 12.5184C148.33 12.6067 148.146 12.6816 147.959 12.7427C147.684 12.8309 147.427 12.8749 147.188 12.8749C146.454 12.8749 145.818 12.563 145.28 11.939C145.025 11.648 144.822 11.2967 144.683 10.9068C144.545 10.5169 144.473 10.0967 144.474 9.67203C144.473 9.64035 144.472 9.60865 144.472 9.57696C144.472 8.21022 144.962 7.20003 145.94 6.54637C149.165 4.429 152.67 3.01223 156.297 2.36C157.681 2.12006 159.076 1.99992 160.474 2.00049C166.101 2.00049 170.456 3.39694 173.539 6.18983C174.839 7.34049 175.919 8.81955 176.703 10.5252C177.487 12.2309 177.958 14.1227 178.083 16.0704C178.137 16.7264 178.164 17.3854 178.163 18.0448C178.171 19.3594 178.071 20.6717 177.865 21.9622C177.605 23.5231 177.179 24.9091 176.584 26.1204C176.307 26.686 175.988 27.22 175.631 27.7159C173.946 30.046 171.803 31.8212 169.402 32.8768C169.362 32.8948 169.322 32.9126 169.282 32.9303C172.071 33.7028 174.554 35.3221 176.732 37.7882C178.91 40.2542 179.998 43.9236 179.998 48.7963C180.019 50.7873 179.744 52.7665 179.187 54.6391C178.369 57.2973 176.933 59.5262 174.879 61.3257C174.812 61.3838 174.744 61.4413 174.677 61.498C171.383 64.285 167.213 65.778 162.168 65.9771C161.775 65.9922 161.381 65.9997 160.988 65.9993C155.556 65.9993 150.442 64.8109 145.647 62.4339C145.331 62.2776 145.037 62.0658 144.772 61.8055C144.577 61.6114 144.402 61.3883 144.252 61.1415C144.018 60.7507 143.862 60.2998 143.795 59.8238C143.756 59.5674 143.738 59.3073 143.738 59.0468C143.738 58.0366 144.02 57.1601 144.582 56.4173C144.831 56.0768 145.135 55.8022 145.475 55.611C145.815 55.4198 146.184 55.316 146.558 55.3061C146.597 55.3043 146.636 55.3033 146.674 55.3032C146.946 55.3052 147.216 55.3471 147.479 55.4279C147.68 55.4885 147.877 55.5659 148.069 55.6597C150.743 56.9508 153.559 57.7606 156.426 58.0634C157.527 58.1858 158.633 58.2463 159.74 58.2446C161.171 58.2522 162.6 58.1316 164.017 57.8836C166.025 57.5211 167.817 56.8838 169.392 55.9717C170.239 55.5001 171.004 54.8377 171.648 54.0196C172.762 52.5667 173.319 50.6771 173.319 48.3506C173.319 41.3357 168.572 37.6069 159.078 37.1642C158.418 37.134 157.758 37.1191 157.097 37.1196V37.1196Z" stroke="#D9D9D9" stroke-width="3" stroke-linecap="round"/>
</g>
</svg>
