<svg width="100" height="100" viewBox="0 0 100 100" fill="none" xmlns="http://www.w3.org/2000/svg">
<g id="FanyLouiseLogo">
<rect id="Rectangle 3" x="83.6328" y="0.978577" width="16.2694" height="98.0626" rx="8.1347" fill="#0D0D0D"/>
<path id="Rectangle 5" d="M91.8097 0.909335C96.2306 0.953205 99.7777 4.57259 99.7324 8.99347V8.99347C99.6871 13.4143 96.0666 16.9626 91.6457 16.9187L8.01017 16.0888C3.58928 16.0449 0.042167 12.4255 0.0874694 8.00464V8.00464C0.132772 3.58377 3.75334 0.0355071 8.17423 0.0793778L91.8097 0.909335Z" fill="#F89406"/>
<rect id="Rectangle 6" width="16.0102" height="99.7833" rx="8.00512" transform="matrix(-0.0102469 0.999947 -0.999951 -0.00992301 99.9473 40.7755)" fill="#F89406"/>
<path id="Rectangle 4" d="M91.995 83.9433C96.416 83.9692 99.9783 87.5741 99.9516 91.9951V91.9951C99.9248 96.4162 96.3192 99.9791 91.8982 99.9532L8.25985 99.4631C3.83882 99.4372 0.276554 95.8322 0.303305 91.4112V91.4112C0.330057 86.9902 3.93569 83.4273 8.35672 83.4532L91.995 83.9433Z" fill="#0D0D0D"/>
<path id="Rectangle 2" d="M0 8.50616C0 3.80834 3.80834 0 8.50617 0V0C13.204 0 17.0123 3.80834 17.0123 8.50617V91.4938C17.0123 96.1916 13.204 99.9999 8.50617 99.9999V99.9999C3.80834 99.9999 0 96.1916 0 91.4938V8.50616Z" fill="#F89406"/>
</g>
</svg>
