<svg width="126" height="115" viewBox="0 0 126 115" fill="none" xmlns="http://www.w3.org/2000/svg">
<g id="Group 23">
<path id="Vector 127" d="M54.2543 49.0037C58.7543 44.0037 63.7542 44.0037 67.7542 49.0037C71.7542 54.0037 70.7545 59.0037 67.7542 62.5037C64.754 66.0037 56.48 65.974 54.2543 62.5037C52.0285 59.0335 49.7543 54.0037 54.2543 49.0037ZM31.2543 30.0037C23.5177 1.00001 36.1939 -5.5 52.2543 10.5037C77.1386 35.3003 86.3359 51.9745 91.7543 88.0037C96.2654 118 87.5017 118 75.2543 106.004C63.0069 94.0074 41.3783 67.958 31.2543 30.0037ZM70.7543 9.50364C82.8263 -1.50006 91.7543 -0.499994 91.7543 20.5037C85.8347 61.1793 75.2543 83.5 47.0017 106.004C38.798 112.538 29.7542 114.507 29.7542 97.5037C29.7542 80.5 42.0815 35.6391 70.7543 9.50364ZM18.7582 44.0037C40.5166 39.0037 67.5085 34.5075 102.254 44.0037C137 53.5 126.5 66.5037 99.7543 71.0037C73.0085 75.5037 35.0085 70.5037 16.2543 66.5037C-2.49998 62.5037 -3.00021 49.0037 18.7582 44.0037Z" stroke="#2D4059" stroke-width="3"/>
</g>
</svg>
