<svg width="103" height="102" viewBox="0 0 103 102" fill="none" xmlns="http://www.w3.org/2000/svg">
<g id="HTML-WHITE">
<path d="M20 19H86L83.5 33.5H36L37.5 41.5H83.5L80 77.5L53.5 84.5L25.5 77.5L24 57H39.5L40.5 66L53.5 70L65 66L66.5 51H24L20 19Z" stroke="#D9D9D9" stroke-width="3"/>
<path fill-rule="evenodd" clip-rule="evenodd" d="M2 2H101L92.5 92L53.5 100L10.5 92L2 2ZM86 19H20L24 51H66.5L65 66L53.5 70L40.5 66L39.5 57H24L25.5 77.5L53.5 84.5L80 77.5L83.5 41.5H37.5L36 33.5H83.5L86 19Z" stroke="#D9D9D9" stroke-width="3"/>
</g>
</svg>
