<svg width="205" height="45" viewBox="0 0 205 45" fill="none" xmlns="http://www.w3.org/2000/svg">
<g id="Vector 124">
<path d="M30.0002 19.8154H6.50019V5.31541C6.50019 3.01282 6.00019 1.31541 4.00019 1.31541C2.00019 1.31541 1.00019 2.31541 1.00019 5.31541C1.00019 8.31541 0.999764 37.8154 1.00019 40.3154C1.00061 42.8154 1.99942 43.8154 4.00019 43.8154C6.00095 43.8154 6.50019 42.3154 6.50019 40.3154V24.8154H30.0002V40.3154C30.0002 42.3154 30.5002 43.3154 32.5002 43.3154C34.5002 43.3154 35.0002 42.3154 35.0002 40.3154V3.81541C35.0002 1.81541 33.5002 1.31541 32.0002 1.31541C30.5002 1.31541 30.0002 2.31541 30.0002 3.81541V19.8154Z" stroke="#D9D9D9"/>
<path d="M43.5002 6.31541C41.5 6.31541 41 1.31569 43.5002 1.31541C45.5784 1.31518 64.2396 1.31534 71.3404 1.31539L74.0002 1.31541C75.5 1.31541 76.5 2.81541 76.4998 4.31541C76.4997 5.81541 75.5 6.31541 74.0002 6.31541H61.5002V40.3154C61.5002 42.3158 61 43.3158 59 43.3158C57 43.3158 56.5002 42.8158 56.5002 40.3154V6.31541H43.5002Z" stroke="#D9D9D9"/>
<path d="M106.5 37.3154C106.5 37.3154 93.5004 6.3154 92.5002 3.81541C91.5 1.31543 90.7162 1.17661 88 1.31543C85.7125 1.3255 84 0.81543 83.0002 3.81541C82.0004 6.8154 83.0002 38.3154 83.0002 40.3154C83.0002 42.3154 83.4998 43.3158 86 43.3158C88.5002 43.3158 89 42.3154 89.0002 40.3154C89.0004 38.3154 88.5002 6.31541 88.5002 6.31541C88.5002 6.31541 100.5 38.315 102.5 41.3154C104.5 44.3158 108.5 44.3158 110 41.3154C111.5 38.315 124 6.81541 124 6.81541C124 6.81541 123.5 36.8153 123.5 40.3154C123.5 43.8155 125.5 43.3154 127 43.3154C128.5 43.3154 129.5 42.8155 129.5 40.3154C129.5 37.8153 131.5 7.31495 129.5 3.81541C127.5 0.315874 121 -0.184489 119.5 3.81541C118 7.81532 106.5 37.3154 106.5 37.3154Z" stroke="#D9D9D9"/>
<path d="M146.5 3.81541C146.5 1.31543 141.5 0.31543 141.5 3.81541V40.3154C141.5 43.3154 144.097 43.3573 146.5 43.3154H165.5C167 43.3154 168.5 42.8154 168.5 40.8154C168.5 38.8154 168 37.3154 165.5 37.3154H146.5V3.81541Z" stroke="#D9D9D9"/>
<path d="M182 1.31541C177 1.31545 176.5 1.31545 175.5 8.31541C174.5 15.3154 174.5 13.8154 173.5 19.3154C172.5 24.8154 176.5 27.3154 180 25.8154C183.5 24.3154 191 21.3154 195.5 24.3154C200 27.3154 198.5 32 195.5 35C192.5 38 186.064 38.2353 175.5 35C174.178 35.0287 173.774 36.4599 173.5 38.3154C173.867 39.4123 174.359 39.806 175.5 40.3154C186 45 195 43.3154 200 40.3154C205 37.3154 205.79 23 200 19.3154C194.21 15.6308 187.752 15.6087 180 19.3154L182 6.81541H198C201 6.81541 201.5 6.31543 201.5 3.81543C201.5 1.31543 201 1.31541 198 1.31541H182Z" stroke="#D9D9D9"/>
</g>
</svg>
