<svg width="221" height="74" viewBox="0 0 221 74" fill="none" xmlns="http://www.w3.org/2000/svg">
<g id="svgGroup">
<path id="0" fill-rule="evenodd" clip-rule="evenodd" d="M2 67.0906V6.51678C2 5.27323 2.2782 4.20967 2.83461 3.3261C3.08837 2.91123 3.39479 2.57986 3.73515 2.35226C4.07551 2.12466 4.44265 2.0056 4.81413 2.00237C4.83909 2.00141 4.86406 2.00086 4.88903 2.00074C5.27121 1.99193 5.65062 2.10115 6.00455 2.32186C6.35847 2.54256 6.67963 2.87021 6.9488 3.28519C6.95777 3.29875 6.96668 3.31239 6.97555 3.3261C7.25045 3.73234 7.46891 4.21925 7.61784 4.75766C7.76676 5.29607 7.8431 5.87491 7.84226 6.45951C7.84233 6.4786 7.84233 6.49769 7.84226 6.51678V32.6313H32.1743V6.51678C32.1743 5.27323 32.4525 4.20967 33.0089 3.3261C33.2627 2.91123 33.5691 2.57986 33.9095 2.35226C34.2498 2.12466 34.617 2.0056 34.9884 2.00237C35.0134 2.00141 35.0384 2.00086 35.0633 2.00074C35.4455 1.99193 35.8249 2.10115 36.1789 2.32186C36.5328 2.54256 36.8539 2.87021 37.1231 3.28519C37.1321 3.29875 37.141 3.31239 37.1499 3.3261C37.4248 3.73234 37.6432 4.21925 37.7921 4.75766C37.9411 5.29607 38.0174 5.87491 38.0166 6.45951C38.0166 6.4786 38.0166 6.49769 38.0166 6.51678V67.0906C38.0226 67.7611 37.9262 68.4244 37.7352 69.0279C37.5872 69.4782 37.3892 69.8857 37.1499 70.2322C36.5721 71.083 35.8765 71.5085 35.0633 71.5085C34.6557 71.5158 34.2516 71.3932 33.8767 71.1485C33.5523 70.9294 33.2578 70.6185 33.0089 70.2322C32.4525 69.3814 32.1743 68.3342 32.1743 67.0906V40.9761H7.84226V67.0906C7.84828 67.7611 7.75192 68.4244 7.56085 69.0279C7.41292 69.4782 7.21487 69.8857 6.97555 70.2322C6.39774 71.083 5.70224 71.5085 4.88903 71.5085C4.48143 71.5158 4.0773 71.3932 3.70239 71.1485C3.37797 70.9294 3.08354 70.6185 2.83461 70.2322C2.2782 69.3814 2 68.3342 2 67.0906Z" stroke="#D9D9D9" stroke-width="3" stroke-linecap="round"/>
<path id="1" fill-rule="evenodd" clip-rule="evenodd" d="M60.8715 67.0909V10.8368H47.7746C47.429 10.8427 47.0856 10.7523 46.7613 10.5701C46.4177 10.37 46.1064 10.0592 45.8485 9.6587C45.6041 9.28824 45.4103 8.84726 45.2782 8.36134C45.1462 7.87541 45.0785 7.35422 45.0792 6.828C45.0786 6.78982 45.0782 6.75164 45.0781 6.71346C45.0781 5.53536 45.3349 4.53725 45.8485 3.71913C46.0867 3.33239 46.374 3.02418 46.6929 2.81343C47.0118 2.60268 47.3555 2.49383 47.7029 2.49358C47.7268 2.49263 47.7507 2.49209 47.7746 2.49194H79.7465C80.5169 2.49194 81.1696 2.901 81.7046 3.71913C81.9609 4.10143 82.1641 4.5589 82.3019 5.06414C82.4398 5.56938 82.5096 6.11199 82.5071 6.65946C82.5072 6.67746 82.5072 6.69546 82.5071 6.71346C82.5116 7.2684 82.4435 7.81912 82.307 8.33334C82.1686 8.83431 81.9634 9.28569 81.7046 9.6587C81.1696 10.4441 80.5169 10.8368 79.7465 10.8368H66.7137V67.0909C66.7198 67.7614 66.6234 68.4248 66.4323 69.0283C66.2844 69.4786 66.0864 69.8861 65.847 70.2325C65.2692 71.0834 64.5737 71.5088 63.7605 71.5088C63.3529 71.5161 62.9488 71.3935 62.5739 71.1488C62.2495 70.9297 61.955 70.6188 61.7061 70.2325C61.1497 69.3817 60.8715 68.3345 60.8715 67.0909Z" stroke="#D9D9D9" stroke-width="3" stroke-linecap="round"/>
<path id="2" fill-rule="evenodd" clip-rule="evenodd" d="M89.5684 67.0906V8.48025C89.5684 6.71311 89.975 5.1914 90.7882 3.91513C91.2562 3.1602 91.8414 2.59847 92.4895 2.28215C92.895 2.09178 93.3172 1.99688 93.7414 2.00072H95.86C96.716 2.00072 97.4971 2.39342 98.2034 3.17882C98.9096 3.96422 99.4339 4.94596 99.7763 6.12406L114.35 61.691L128.923 6.12406C129.266 4.94596 129.79 3.96422 130.496 3.17882C131.202 2.39342 131.984 2.00072 132.84 2.00072H134.958C135.497 1.98802 136.032 2.1434 136.53 2.45736C137.028 2.77133 137.478 3.23729 137.855 3.82677C137.874 3.85598 137.893 3.88544 137.911 3.91513C138.725 5.1914 139.131 6.71311 139.131 8.48025V67.0906C139.136 67.7144 139.056 68.333 138.896 68.9068C138.752 69.4023 138.549 69.852 138.297 70.2322C137.74 71.083 137.055 71.5084 136.242 71.5084C135.429 71.5084 134.734 71.083 134.156 70.2322C133.885 69.8443 133.668 69.376 133.519 68.8558C133.37 68.3356 133.292 67.7745 133.29 67.2068C133.289 67.168 133.289 67.1293 133.289 67.0906V11.3273L118.459 67.3851C118.116 68.6287 117.571 69.6268 116.822 70.3794C116.073 71.1321 115.249 71.5084 114.35 71.5084C113.451 71.5084 112.627 71.1321 111.878 70.3794C111.129 69.6268 110.583 68.6287 110.241 67.3851L95.4106 11.3273V67.0906C95.4166 67.761 95.3203 68.4244 95.1292 69.0279C94.9813 69.4782 94.7832 69.8857 94.5439 70.2322C93.9661 71.083 93.2706 71.5084 92.4574 71.5084C92.0498 71.5158 91.6457 71.3932 91.2708 71.1485C90.9463 70.9294 90.6519 70.6185 90.403 70.2322C89.8466 69.3813 89.5684 68.3341 89.5684 67.0906Z" stroke="#D9D9D9" stroke-width="3" stroke-linecap="round"/>
<path id="3" fill-rule="evenodd" clip-rule="evenodd" d="M151.588 64.8326V6.51678C151.588 5.27323 151.866 4.20967 152.422 3.3261C152.676 2.91123 152.983 2.57986 153.323 2.35226C153.663 2.12466 154.031 2.0056 154.402 2.00237C154.427 2.00141 154.452 2.00086 154.477 2.00074C154.859 1.99193 155.239 2.10115 155.592 2.32186C155.946 2.54256 156.268 2.87021 156.537 3.28519C156.546 3.29875 156.555 3.31239 156.563 3.3261C156.838 3.73234 157.057 4.21925 157.206 4.75766C157.355 5.29608 157.431 5.87491 157.43 6.45951C157.43 6.4786 157.43 6.49769 157.43 6.51678V62.0837H178.424C178.806 62.0749 179.185 62.1841 179.539 62.4048C179.893 62.6255 180.214 62.9532 180.484 63.3682C180.492 63.3817 180.501 63.3953 180.51 63.4091C180.785 63.8153 181.004 64.3022 181.153 64.8406C181.301 65.379 181.378 65.9579 181.377 66.5425C181.377 66.5616 181.377 66.5806 181.377 66.5997C181.383 67.2702 181.287 67.9336 181.096 68.5371C180.948 68.9874 180.75 69.3949 180.51 69.7413C179.932 70.5922 179.237 71.0176 178.424 71.0176H155.633C155.109 71.0295 154.59 70.8798 154.106 70.5776C153.621 70.2754 153.181 69.8268 152.813 69.2586C152.801 69.2397 152.788 69.2206 152.776 69.2014C152.399 68.6453 152.1 67.9789 151.896 67.242C151.693 66.5051 151.588 65.7129 151.589 64.9128C151.588 64.886 151.588 64.8593 151.588 64.8326Z" stroke="#D9D9D9" stroke-width="3" stroke-linecap="round"/>
<path id="4" fill-rule="evenodd" clip-rule="evenodd" d="M186.963 33.5152L189.852 7.40068C189.899 6.81426 189.996 6.23957 190.139 5.6908C190.324 4.97981 190.61 4.34012 190.975 3.8173C191.571 2.965 192.356 2.49162 193.171 2.49358C193.199 2.4926 193.227 2.49206 193.255 2.49194H213.863C214.633 2.49194 215.286 2.901 215.821 3.71913C216.077 4.10143 216.281 4.5589 216.418 5.06414C216.556 5.56938 216.626 6.11199 216.624 6.65946C216.624 6.67746 216.624 6.69546 216.624 6.71346C216.628 7.2684 216.56 7.81912 216.424 8.33334C216.285 8.83431 216.08 9.28568 215.821 9.6587C215.286 10.4441 214.633 10.8368 213.863 10.8368H195.245L193.19 31.6498C196.166 29.217 199.466 27.8548 202.839 27.6672C203.239 27.6391 203.64 27.6249 204.04 27.6247C205.325 27.6143 206.606 27.7907 207.869 28.1516C209.371 28.5737 210.82 29.3568 212.162 30.4718C214.409 32.3698 216.11 34.9878 217.266 38.3257C218.103 40.7776 218.642 43.4424 218.855 46.1895C218.952 47.3912 219.001 48.6012 218.999 49.8122C219.018 52.4258 218.751 55.0259 218.212 57.5058C217.487 60.7235 216.232 63.6018 214.569 65.8637C212.226 69.1112 208.979 71.0697 204.829 71.7395C203.692 71.9178 202.551 72.0046 201.408 71.9997C196.186 71.9997 191.628 70.1016 187.733 66.3055C187.576 66.1383 187.424 65.9569 187.281 65.7623C187.071 65.4754 186.901 65.182 186.77 64.882C186.556 64.3911 186.449 63.6875 186.449 62.7712C186.446 62.2328 186.502 61.6974 186.615 61.1874C186.733 60.6677 186.917 60.1885 187.156 59.7769C187.366 59.407 187.624 59.1077 187.914 58.8979C188.204 58.6881 188.519 58.5723 188.84 58.5579C188.899 58.5527 188.958 58.5499 189.017 58.5497C189.488 58.5497 189.938 58.7134 190.366 59.0406C192.261 60.606 194.29 61.7603 196.394 62.4702C197.789 62.9305 199.211 63.1631 200.638 63.1639C203.202 63.1639 205.384 62.7478 207.182 61.9155C208.156 61.4816 209.086 60.8446 209.947 60.0224C212.087 57.928 213.157 54.3609 213.157 49.3213C213.166 47.8993 213.04 46.4827 212.782 45.1162C212.379 43.0092 211.583 41.1273 210.492 39.7002C208.866 37.5436 206.693 36.3742 203.972 36.1921C203.717 36.1748 203.461 36.1661 203.206 36.1659C199.653 36.1659 196.358 37.5731 193.319 40.3874C193.297 40.4044 193.276 40.4218 193.255 40.4398C193.136 40.5379 192.911 40.7332 192.581 41.0255C192.354 41.2235 192.108 41.366 191.852 41.4477C191.613 41.5262 191.353 41.5655 191.072 41.5655C190.569 41.5723 190.069 41.4675 189.586 41.2546C189.023 41.002 188.502 40.5729 188.054 39.9947C187.694 39.5439 187.401 38.9822 187.192 38.3462C186.984 37.7102 186.865 37.0141 186.844 36.3033C186.838 36.1595 186.835 36.0155 186.835 35.8714C186.835 35.086 186.877 34.3006 186.963 33.5152Z" stroke="#D9D9D9" stroke-width="3" stroke-linecap="round"/>
</g>
</svg>
