<svg width="101" height="101" viewBox="0 0 101 101" fill="none" xmlns="http://www.w3.org/2000/svg">
<g id="JAVASCRIPT-BLUE">
<path id="JS" d="M47.1523 84.875L46.8806 82.8935L45.184 83.1262L45.1527 84.8385L47.1523 84.875ZM50.5703 84.4062L52.5686 84.323L52.477 82.126L50.2986 82.4248L50.5703 84.4062ZM57.2891 89.4648L58.3462 91.1626L58.3576 91.1555L58.369 91.1482L57.2891 89.4648ZM58.7148 87.6875L60.6021 88.3497L60.6056 88.3395L58.7148 87.6875ZM59.1055 64.3672V62.3672H57.1055V64.3672H59.1055ZM62.8945 64.3672H64.8945V62.3672H62.8945V64.3672ZM62.0156 89.4453L60.1887 88.6314L60.1854 88.6389L60.1821 88.6465L62.0156 89.4453ZM59.2617 92.4531L58.3027 90.698L58.2951 90.7022L59.2617 92.4531ZM49.0664 91.3203L47.5937 92.6736L47.6003 92.6807L49.0664 91.3203ZM47.4241 86.8565L50.8421 86.3877L50.2986 82.4248L46.8806 82.8935L47.4241 86.8565ZM48.572 84.4895C48.666 86.7449 49.084 88.8744 50.3166 90.239L53.285 87.5579C53.0592 87.3079 52.6569 86.4426 52.5686 84.323L48.572 84.4895ZM50.3166 90.239C51.4953 91.5441 53.0876 92.1094 54.8281 92.1094V88.1094C53.9905 88.1094 53.5645 87.8674 53.285 87.5579L50.3166 90.239ZM54.8281 92.1094C56.0881 92.1094 57.2884 91.8213 58.3462 91.1626L56.2319 87.767C55.9095 87.9678 55.4692 88.1094 54.8281 88.1094V92.1094ZM58.369 91.1482C59.4174 90.4757 60.1873 89.5316 60.602 88.3497L56.8276 87.0253C56.7215 87.3278 56.5409 87.5686 56.2092 87.7815L58.369 91.1482ZM60.6056 88.3395C60.9804 87.2524 61.1055 85.7733 61.1055 84.0938H57.1055C57.1055 85.6955 56.9701 86.6122 56.8241 87.0355L60.6056 88.3395ZM61.1055 84.0938V64.3672H57.1055V84.0938H61.1055ZM59.1055 66.3672H62.8945V62.3672H59.1055V66.3672ZM60.8945 64.3672V83.8789H64.8945V64.3672H60.8945ZM60.8945 83.8789C60.8945 86.1566 60.6091 87.6879 60.1887 88.6314L63.8425 90.2593C64.594 88.5726 64.8945 86.3929 64.8945 83.8789H60.8945ZM60.1821 88.6465C59.7871 89.5532 59.1776 90.22 58.3027 90.698L60.2207 94.2082C61.8719 93.306 63.0983 91.9677 63.8492 90.2441L60.1821 88.6465ZM58.2951 90.7022C57.3915 91.2011 56.2651 91.4883 54.8477 91.4883V95.4883C56.8157 95.4883 58.6319 95.0854 60.2284 94.204L58.2951 90.7022ZM54.8477 91.4883C52.7288 91.4883 51.3974 90.892 50.5325 89.9599L47.6003 92.6807C49.4177 94.6392 51.9405 95.4883 54.8477 95.4883V91.4883ZM50.5391 89.9671C49.6887 89.0416 49.1051 87.4805 49.152 84.9115L45.1527 84.8385C45.0954 87.9726 45.7879 90.7084 47.5938 92.6736L50.5391 89.9671ZM67.7969 83.8008L67.6227 81.8084L65.7464 81.9724L65.7976 83.8552L67.7969 83.8008ZM71.3711 83.4883L73.3573 83.2536L73.1296 81.3269L71.1969 81.4959L71.3711 83.4883ZM72.543 87.0234L70.8753 88.1274L70.8843 88.141L70.8935 88.1545L72.543 87.0234ZM75.4336 89.25L74.6281 91.0806L74.6358 91.084L74.6435 91.0873L75.4336 89.25ZM86.1172 87.6875L84.4973 86.5145L84.4936 86.5196L86.1172 87.6875ZM86.1562 82.8828L84.571 84.1022L84.5767 84.1097L84.5825 84.1171L86.1562 82.8828ZM83.5781 81.1836L82.8517 83.047L82.8593 83.05L82.867 83.0529L83.5781 81.1836ZM78.4805 79.7969L78.009 81.7405L78.0181 81.7427L78.4805 79.7969ZM72.9531 78L73.8909 76.2335L73.8811 76.2283L72.9531 78ZM69.8867 75.3438L68.1884 76.4L68.196 76.4122L68.2037 76.4242L69.8867 75.3438ZM70.1211 67.7266L71.7932 68.8239L71.7984 68.8159L70.1211 67.7266ZM84.5742 64.9141L83.7882 66.7531L83.7971 66.7569L83.806 66.7607L84.5742 64.9141ZM89.7305 72.4336L89.8806 74.428L91.8037 74.2832L91.729 72.3561L89.7305 72.4336ZM86.0977 72.707L84.1092 72.9216L84.3169 74.8467L86.2478 74.7014L86.0977 72.707ZM84.1055 68.6055L82.8321 70.1478L82.8409 70.155L84.1055 68.6055ZM74.1055 68.4883L75.3549 70.05L75.3572 70.0481L74.1055 68.4883ZM73.6562 74.0547L75.0029 72.576L74.9964 72.5701L74.9898 72.5642L73.6562 74.0547ZM79.3594 76.1055L78.9133 78.0551L78.9229 78.0573L79.3594 76.1055ZM85.707 77.9219L86.5443 76.1055L86.5346 76.1011L85.707 77.9219ZM89.3984 80.8516L87.7371 81.9652L87.7429 81.9737L89.3984 80.8516ZM89.2812 89.2305L90.9578 90.321L90.9626 90.3136L89.2812 89.2305ZM85.5117 92.375L86.3415 94.1947L86.348 94.1918L85.5117 92.375ZM73.4805 92.3555L72.686 94.1909L72.691 94.1931L73.4805 92.3555ZM69.3594 88.957L67.6822 90.0465L67.6876 90.0548L67.6931 90.0631L69.3594 88.957ZM67.9711 85.7932L71.5453 85.4807L71.1969 81.4959L67.6227 81.8084L67.9711 85.7932ZM69.3849 83.723C69.5802 85.3758 70.0466 86.8757 70.8753 88.1274L74.2107 85.9195C73.8153 85.3223 73.5005 84.4653 73.3573 83.2536L69.3849 83.723ZM70.8935 88.1545C71.7817 89.4498 73.0815 90.4001 74.6281 91.0806L76.2391 87.4194C75.1815 86.9541 74.5542 86.42 74.1924 85.8924L70.8935 88.1545ZM74.6435 91.0873C76.2295 91.7693 77.9689 92.0898 79.8281 92.0898V88.0898C78.4322 88.0898 77.2418 87.8505 76.2236 87.4127L74.6435 91.0873ZM79.8281 92.0898C81.4688 92.0898 82.9984 91.8462 84.3801 91.3097L82.9324 87.5809C82.1006 87.9038 81.0781 88.0898 79.8281 88.0898V92.0898ZM84.3801 91.3097C85.7415 90.7812 86.9223 89.9933 87.7408 88.8554L84.4936 86.5196C84.2444 86.8661 83.7845 87.2501 82.9324 87.5809L84.3801 91.3097ZM87.7371 88.8605C88.5171 87.7834 88.9375 86.5564 88.9375 85.2266H84.9375C84.9375 85.6675 84.811 86.0812 84.4973 86.5145L87.7371 88.8605ZM88.9375 85.2266C88.9375 83.9115 88.5455 82.6883 87.73 81.6485L84.5825 84.1171C84.8087 84.4054 84.9375 84.7447 84.9375 85.2266H88.9375ZM87.7415 81.6634C86.909 80.5812 85.672 79.8403 84.2893 79.3143L82.867 83.0529C83.8801 83.4383 84.3618 83.8303 84.571 84.1022L87.7415 81.6634ZM84.3045 79.3202C83.3829 78.9609 81.5414 78.4685 78.9428 77.8511L78.0181 81.7427C80.68 82.3752 82.2369 82.8073 82.8517 83.047L84.3045 79.3202ZM78.9519 77.8532C76.3322 77.2178 74.705 76.6657 73.8909 76.2335L72.0153 79.7665C73.3106 80.4541 75.3683 81.1 78.009 81.7405L78.9519 77.8532ZM73.8811 76.2283C72.7508 75.6362 72.0206 74.9656 71.5698 74.2633L68.2037 76.4242C69.107 77.8313 70.4211 78.9315 72.0251 79.7717L73.8811 76.2283ZM71.585 74.2875C71.1274 73.5517 70.8906 72.7293 70.8906 71.7695H66.8906C66.8906 73.44 67.3179 75.0004 68.1884 76.4L71.585 74.2875ZM70.8906 71.7695C70.8906 70.7281 71.179 69.7598 71.7932 68.8239L68.449 66.6292C67.4226 68.1934 66.8906 69.9203 66.8906 71.7695H70.8906ZM71.7984 68.8159C72.3697 67.9362 73.2263 67.2214 74.4786 66.7039L72.951 63.0071C71.0524 63.7916 69.5131 64.9908 68.4438 66.6372L71.7984 68.8159ZM74.4786 66.7039C75.7824 66.1651 77.2697 65.8789 78.9688 65.8789V61.8789C76.8136 61.8789 74.7984 62.2437 72.951 63.0071L74.4786 66.7039ZM78.9688 65.8789C80.8761 65.8789 82.4682 66.1889 83.7882 66.7531L85.3603 63.075C83.4511 62.259 81.3062 61.8789 78.9688 61.8789V65.8789ZM83.806 66.7607C85.1065 67.3016 86.0235 68.0621 86.6526 69.0199L89.9958 66.8238C88.8802 65.1254 87.2972 63.8807 85.3424 63.0675L83.806 66.7607ZM86.6526 69.0199C87.3135 70.0261 87.6801 71.173 87.732 72.5111L91.729 72.3561C91.6506 70.3348 91.0797 68.4739 89.9958 66.8238L86.6526 69.0199ZM89.5804 70.4392L85.9475 70.7127L86.2478 74.7014L89.8806 74.428L89.5804 70.4392ZM88.0861 72.4924C87.849 70.2949 87.0047 68.39 85.37 67.056L82.8409 70.155C83.4719 70.6699 83.9557 71.4993 84.1092 72.9216L88.0861 72.4924ZM85.3788 67.0632C83.7565 65.7239 81.5608 65.2188 79.125 65.2188V69.2188C81.0902 69.2188 82.2148 69.6381 82.8322 70.1478L85.3788 67.0632ZM79.125 65.2188C76.6662 65.2188 74.4368 65.658 72.8537 66.9284L75.3572 70.0481C75.8835 69.6258 77.0005 69.2188 79.125 69.2188V65.2188ZM72.8561 66.9265C71.4076 68.0853 70.543 69.6415 70.543 71.5156H74.543C74.543 71.0199 74.72 70.5579 75.3549 70.05L72.8561 66.9265ZM70.543 71.5156C70.543 73.092 71.1408 74.4877 72.3227 75.5452L74.9898 72.5642C74.6873 72.2935 74.543 71.9966 74.543 71.5156H70.543ZM72.3096 75.5334C72.9826 76.1463 73.959 76.5903 74.9522 76.9475C76.0076 77.327 77.3367 77.6943 78.9133 78.0551L79.8055 74.1559C78.3091 73.8135 77.1512 73.4875 76.3057 73.1834C75.8839 73.0318 75.5656 72.8947 75.3349 72.7764C75.2208 72.718 75.1377 72.6691 75.0798 72.6312C75.0209 72.5926 74.9996 72.573 75.0029 72.576L72.3096 75.5334ZM78.9229 78.0573C82.0161 78.749 83.9445 79.3177 84.8794 79.7426L86.5346 76.1011C85.1779 75.4844 82.8745 74.8422 79.7959 74.1537L78.9229 78.0573ZM84.8698 79.7382C86.2966 80.3958 87.1986 81.1618 87.7372 81.9652L91.0597 79.738C90.0097 78.1715 88.4508 76.9844 86.5442 76.1055L84.8698 79.7382ZM87.7429 81.9737C88.2934 82.786 88.5898 83.7419 88.5898 84.9141H92.5898C92.5898 83.0133 92.092 81.2609 91.054 79.7295L87.7429 81.9737ZM88.5898 84.9141C88.5898 86.0308 88.2768 87.0967 87.5999 88.1473L90.9626 90.3136C92.0305 88.6559 92.5898 86.8442 92.5898 84.9141H88.5898ZM87.6047 88.1399C86.9639 89.1251 86.0185 89.94 84.6754 90.5582L86.348 94.1918C88.2862 93.2996 89.8538 92.0182 90.9578 90.321L87.6047 88.1399ZM84.6819 90.5553C83.3496 91.1628 81.8027 91.4883 80.0039 91.4883V95.4883C82.2937 95.4883 84.4187 95.0716 86.3415 94.1947L84.6819 90.5553ZM80.0039 91.4883C77.5936 91.4883 75.7068 91.1352 74.2699 90.5179L72.691 94.1931C74.7698 95.0862 77.2319 95.4883 80.0039 95.4883V91.4883ZM74.2749 90.52C72.867 89.9106 71.8036 89.0229 71.0257 87.8509L67.6931 90.0631C68.9203 91.912 70.6044 93.2899 72.686 94.1909L74.2749 90.52ZM71.0366 87.8676C70.2586 86.6699 69.8388 85.3131 69.7961 83.7464L65.7976 83.8552C65.8591 86.1166 66.481 88.1973 67.6822 90.0465L71.0366 87.8676Z" fill="#2D4059"/>
<path id="SHIELD" d="M100.5 0.5H0.5V100.5H100.5V0.5Z" stroke="#D9D9D9" stroke-width="3"/>
</g>
</svg>
