<svg width="100" height="100" viewBox="0 0 100 100" fill="none" xmlns="http://www.w3.org/2000/svg">
<g id="JAVASCRIPT-WHITE">
<path id="SHIELD" d="M1.5 1.5H98.5V98.5H1.5V1.5Z" stroke="#D9D9D9" stroke-width="3"/>
<g id="JS">
<path d="M61.4768 58H57.6275V83.8708C57.6275 86.5737 54.9329 88.4193 52.2384 88.1183C49.5439 87.8172 48.2306 86.994 46.8493 83.8708H43C43.4614 86.6408 44.3811 87.8993 46.0795 89.6628C55.7028 96.227 61.4768 86.5737 61.4768 84.6431V58Z" fill="#D9D9D9"/>
<path d="M89.192 64.9504L85.7276 66.881C83.3575 63.2893 79.5686 62.6336 77.644 63.4058C75.7193 64.1781 74.1796 64.9504 74.1796 68.0394C74.1796 71.1285 75.2845 72.0946 78.0289 73.0591C82.7644 74.0975 85.3426 74.2175 88.4221 78.465C91.5016 82.7124 89.5769 87.7321 86.8824 90.0489C84.1878 92.3657 79.8654 92.6142 74.5645 90.8212C71.6829 89.2624 70.3481 87.777 68.4056 84.2569L72.2549 83.0985C74.4578 87.248 79.5686 88.5732 82.2632 87.7321C84.9577 86.891 85.7276 85.8015 85.7276 83.4847C85.7276 81.1679 85.3426 79.6234 82.6481 78.465C79.9536 77.3066 76.5209 76.6324 73.0248 74.2175C70.5964 71.9496 70.3302 70.3562 70.3302 66.4949C70.3302 62.6336 73.4097 59.1584 78.7988 59.1584C84.1878 59.1584 86.2883 60.9393 89.192 64.9504Z" fill="#D9D9D9"/>
<path d="M61.4768 58H57.6275V83.8708C57.6275 86.5737 54.9329 88.4193 52.2384 88.1183C49.5439 87.8172 48.2306 86.994 46.8493 83.8708H43C43.4614 86.6408 44.3811 87.8993 46.0795 89.6628C55.7028 96.227 61.4768 86.5737 61.4768 84.6431V58Z" stroke="#D9D9D9" stroke-width="2"/>
<path d="M89.192 64.9504L85.7276 66.881C83.3575 63.2893 79.5686 62.6336 77.644 63.4058C75.7193 64.1781 74.1796 64.9504 74.1796 68.0394C74.1796 71.1285 75.2845 72.0946 78.0289 73.0591C82.7644 74.0975 85.3426 74.2175 88.4221 78.465C91.5016 82.7124 89.5769 87.7321 86.8824 90.0489C84.1878 92.3657 79.8654 92.6142 74.5645 90.8212C71.6829 89.2624 70.3481 87.777 68.4056 84.2569L72.2549 83.0985C74.4578 87.248 79.5686 88.5732 82.2632 87.7321C84.9577 86.891 85.7276 85.8015 85.7276 83.4847C85.7276 81.1679 85.3426 79.6234 82.6481 78.465C79.9536 77.3066 76.5209 76.6324 73.0248 74.2175C70.5964 71.9496 70.3302 70.3562 70.3302 66.4949C70.3302 62.6336 73.4097 59.1584 78.7988 59.1584C84.1878 59.1584 86.2883 60.9393 89.192 64.9504Z" stroke="#D9D9D9" stroke-width="2"/>
</g>
</g>
</svg>
