<svg width="100" height="100" viewBox="0 0 100 100" fill="none" xmlns="http://www.w3.org/2000/svg">
<g id="JAVASCRIPT-BLUE">
<path id="SHIELD" d="M1.5 1.5H98.5V98.5H1.5V1.5Z" stroke="#2D4059" stroke-width="3"/>
<path id="JS" d="M50 45.8333C50 65.6217 50 76.7328 50 79.1667C50 82.8175 47.8213 87.5 41.6667 87.5C31.7276 87.5 31.25 79.1667 31.25 79.1667M86.6249 56.3168C84.1245 52.1056 80.81 50 76.6814 50C70.2348 50 66.6667 54.1667 66.6667 58.3333C66.6667 62.5 68.75 66.6667 77.1184 68.75C82.4436 70.0757 87.5 72.9167 87.5 79.1667C87.5 85.4167 82.0189 87.5 77.0833 87.5C70.7757 87.5 66.609 84.7222 64.5833 79.1667" stroke="#2D4059" stroke-width="3"/>
</g>
</svg>
