<svg width="145" height="139" viewBox="0 0 145 139" fill="none" xmlns="http://www.w3.org/2000/svg">
<g id="Group 23">
<path id="JS" d="M66.7285 112.812L71.8555 112.109C71.9922 115.391 72.6074 117.637 73.7012 118.848C74.7949 120.059 76.3086 120.664 78.2422 120.664C79.668 120.664 80.8984 120.342 81.9336 119.697C82.9688 119.033 83.6816 118.145 84.0723 117.031C84.4629 115.898 84.6582 114.102 84.6582 111.641V82.0508H90.3418V111.318C90.3418 114.912 89.9023 117.695 89.0234 119.668C88.1641 121.641 86.7871 123.145 84.8926 124.18C83.0176 125.215 80.8105 125.732 78.2715 125.732C74.502 125.732 71.6113 124.648 69.5996 122.48C67.6074 120.312 66.6504 117.09 66.7285 112.812ZM97.6953 111.201L103.057 110.732C103.311 112.881 103.896 114.648 104.814 116.035C105.752 117.402 107.197 118.516 109.15 119.375C111.104 120.215 113.301 120.635 115.742 120.635C117.91 120.635 119.824 120.312 121.484 119.668C123.145 119.023 124.375 118.145 125.176 117.031C125.996 115.898 126.406 114.668 126.406 113.34C126.406 111.992 126.016 110.82 125.234 109.824C124.453 108.809 123.164 107.959 121.367 107.275C120.215 106.826 117.666 106.133 113.721 105.195C109.775 104.238 107.012 103.34 105.43 102.5C103.379 101.426 101.846 100.098 100.83 98.5156C99.834 96.9141 99.3359 95.127 99.3359 93.1543C99.3359 90.9863 99.9512 88.9648 101.182 87.0898C102.412 85.1953 104.209 83.7598 106.572 82.7832C108.936 81.8066 111.562 81.3184 114.453 81.3184C117.637 81.3184 120.439 81.8359 122.861 82.8711C125.303 83.8867 127.178 85.3906 128.486 87.3828C129.795 89.375 130.498 91.6309 130.596 94.1504L125.146 94.5605C124.854 91.8457 123.857 89.7949 122.158 88.4082C120.479 87.0215 117.988 86.3281 114.688 86.3281C111.25 86.3281 108.74 86.9629 107.158 88.2324C105.596 89.4824 104.814 90.9961 104.814 92.7734C104.814 94.3164 105.371 95.5859 106.484 96.582C107.578 97.5781 110.43 98.6035 115.039 99.6582C119.668 100.693 122.842 101.602 124.561 102.383C127.061 103.535 128.906 105 130.098 106.777C131.289 108.535 131.885 110.566 131.885 112.871C131.885 115.156 131.23 117.314 129.922 119.346C128.613 121.357 126.729 122.93 124.268 124.062C121.826 125.176 119.072 125.732 116.006 125.732C112.119 125.732 108.857 125.166 106.221 124.033C103.604 122.9 101.543 121.201 100.039 118.936C98.5547 116.65 97.7734 114.072 97.6953 111.201Z" fill="#2D4059"/>
<path id="Vector 124" d="M145 0.5H0.5V138.5H145V0.5Z" stroke="#2D4059" stroke-width="3"/>
</g>
</svg>
