<svg width="330" height="66" viewBox="0 0 330 66" fill="none" xmlns="http://www.w3.org/2000/svg">
<g id="svgGroup">
<path id="0" fill-rule="evenodd" clip-rule="evenodd" d="M15.454 44.1417V5.54622C15.454 4.41717 15.686 3.45154 16.15 2.64933C16.3615 2.27284 16.6168 1.97209 16.9005 1.76545C17.1841 1.55881 17.4901 1.45062 17.7997 1.44749C17.8208 1.4466 17.8419 1.4461 17.863 1.446C18.1817 1.43801 18.4981 1.53717 18.7932 1.73756C19.0883 1.93794 19.3561 2.23542 19.5806 2.61219C19.5881 2.6245 19.5955 2.63688 19.6029 2.64933C19.8321 3.01816 20.0143 3.46024 20.1384 3.94908C20.2626 4.43791 20.3263 4.96345 20.3256 5.49422C20.3256 5.51155 20.3256 5.52888 20.3256 5.54622V43.6069C20.3256 51.019 19.3792 56.3705 17.4865 59.6616C17.3917 59.8261 17.2941 59.9861 17.1939 60.1414C15.4248 62.8804 13.1542 64.55 10.7467 64.8819C10.2652 64.9615 9.78157 65.0007 9.29771 64.9993C6.69241 64.9993 4.3191 63.9891 2.17777 61.9687C1.92596 61.7277 1.69961 61.4196 1.50771 61.0565C1.17461 60.4128 1.00539 59.6324 1.00003 58.7153C0.999989 58.7004 0.999989 58.6856 1.00003 58.6707C1.00003 57.7199 1.1874 56.8731 1.56213 56.1304C1.72285 55.802 1.92339 55.5338 2.15063 55.3433C2.37787 55.1529 2.6267 55.0444 2.88084 55.0251C2.93192 55.0193 2.9831 55.0164 3.0343 55.0162C3.22583 55.0143 3.41675 55.0523 3.60265 55.1291C3.73928 55.1863 3.8718 55.268 3.9979 55.3727C5.05142 56.2253 6.17457 56.8149 7.33125 57.1227C7.87561 57.2631 8.42565 57.3337 8.9765 57.3337C9.68159 57.3439 10.3845 57.2026 11.0679 56.9133C12.0357 56.5036 12.9269 55.6984 13.6607 54.5705C14.1105 53.8518 14.4646 52.9838 14.7001 52.0227C15.2027 50.0825 15.454 47.4555 15.454 44.1417Z" stroke="#D9D9D9" stroke-width="2" stroke-linecap="round"/>
<path id="1" fill-rule="evenodd" clip-rule="evenodd" d="M28.1917 58.7601L41.8427 5.10076C42.0444 4.32987 42.3279 3.62583 42.6796 3.02243C42.7951 2.82613 42.9179 2.64205 43.0472 2.47128C43.5647 1.78791 44.1982 1.44622 44.9476 1.44622H45.483C45.8032 1.44198 46.1222 1.51299 46.4305 1.65718C46.7772 1.82161 47.101 2.09825 47.3834 2.47128C47.8742 3.12349 48.2678 3.9558 48.5335 4.90318C48.5522 4.96862 48.5703 5.03449 48.5879 5.10076L62.2389 58.7601C62.2913 58.9681 62.3383 59.1797 62.3799 59.3944C62.4614 59.8193 62.5036 60.1912 62.5066 60.5101C62.5066 60.521 62.5066 60.5319 62.5066 60.5428C62.5066 61.6718 62.2835 62.6226 61.8374 63.3951C61.4559 64.0577 60.9409 64.4624 60.3911 64.5316C60.2935 64.5468 60.1956 64.5543 60.0976 64.5538C59.5979 64.5538 59.1429 64.331 58.7325 63.8853C58.3221 63.4397 58.0098 62.8306 57.7956 62.0581L54.316 48.153H36.1146L32.635 62.0581C32.4208 62.8306 32.1085 63.4397 31.6981 63.8853C31.2877 64.331 30.8327 64.5538 30.333 64.5538C30.0561 64.5586 29.7804 64.492 29.5157 64.3563C29.1644 64.1709 28.8469 63.8402 28.5932 63.3951C28.1567 62.6461 27.9161 61.6398 27.924 60.5963C27.924 60.5784 27.924 60.5606 27.924 60.5428C27.9251 60.3642 27.9358 60.1862 27.9561 60.0109C27.9948 59.6564 28.0697 59.2543 28.181 58.8046C28.1845 58.7898 28.1881 58.7749 28.1917 58.7601V58.7601ZM45.2153 11.7859L37.9883 40.7548H52.4423L45.2153 11.7859Z" stroke="#D9D9D9" stroke-width="2" stroke-linecap="round"/>
<path id="2" fill-rule="evenodd" clip-rule="evenodd" d="M77.4987 60.4535L64.2759 7.06164C64.1689 6.58724 64.1153 6.08264 64.1153 5.54783C64.1132 5.11919 64.1423 4.69169 64.2019 4.27468C64.292 3.63087 64.4839 3.03893 64.7577 2.56032C65.0616 2.03852 65.4549 1.68571 65.8837 1.55012C66.0946 1.47894 66.3092 1.44409 66.5243 1.44613C67.024 1.44613 67.479 1.69868 67.8894 2.20378C68.2778 2.68446 68.5861 3.32205 68.7852 4.0563C68.7994 4.10696 68.8131 4.15798 68.8263 4.20932L81.4066 56.4425L93.987 4.20932C94.1267 3.65447 94.3263 3.14694 94.5758 2.71185C94.6831 2.52666 94.7995 2.35671 94.9238 2.20378C95.3342 1.69868 95.7893 1.44613 96.2889 1.44613C97.0384 1.44613 97.6272 1.81753 98.0555 2.56032C98.4838 3.30311 98.6979 4.29845 98.6979 5.54634C98.6999 6.06236 98.6458 6.57471 98.5382 7.05867C98.5379 7.05966 98.5376 7.06065 98.5373 7.06164L85.3146 60.4535C85.1305 61.143 84.8971 61.7929 84.6195 62.3893C84.3168 63.0711 83.9209 63.6231 83.4646 63.9995C83.0083 64.3759 82.5047 64.5659 81.9955 64.5537H80.8178C80.3025 64.5658 79.7931 64.3712 79.3325 63.9864C78.8719 63.6017 78.4737 63.0381 78.1714 62.3432C77.9038 61.759 77.678 61.1249 77.4987 60.4535Z" stroke="#D9D9D9" stroke-width="2" stroke-linecap="round"/>
<path id="3" fill-rule="evenodd" clip-rule="evenodd" d="M100.576 58.7601L114.227 5.10076C114.429 4.32987 114.713 3.62583 115.064 3.02243C115.18 2.82613 115.303 2.64205 115.432 2.47128C115.949 1.78791 116.583 1.44622 117.332 1.44622H117.868C118.188 1.44198 118.507 1.51299 118.815 1.65718C119.162 1.82161 119.486 2.09825 119.768 2.47128C120.259 3.12349 120.653 3.9558 120.918 4.90318C120.937 4.96862 120.955 5.03449 120.973 5.10076L134.624 58.7601C134.676 58.9681 134.723 59.1797 134.765 59.3944C134.846 59.8193 134.888 60.1912 134.891 60.5101C134.891 60.521 134.891 60.5319 134.891 60.5428C134.891 61.6718 134.668 62.6226 134.222 63.3951C133.841 64.0577 133.326 64.4624 132.776 64.5316C132.678 64.5468 132.58 64.5543 132.482 64.5538C131.983 64.5538 131.528 64.331 131.117 63.8853C130.707 63.4397 130.395 62.8306 130.18 62.0581L126.701 48.153H108.499L105.02 62.0581C104.806 62.8306 104.493 63.4397 104.083 63.8853C103.672 64.331 103.217 64.5538 102.718 64.5538C102.441 64.5586 102.165 64.492 101.901 64.3563C101.549 64.1709 101.232 63.8402 100.978 63.3951C100.541 62.6461 100.301 61.6398 100.309 60.5963C100.309 60.5784 100.309 60.5606 100.309 60.5428C100.31 60.3642 100.321 60.1862 100.341 60.0109C100.38 59.6564 100.455 59.2543 100.566 58.8046C100.569 58.7898 100.573 58.7749 100.576 58.7601V58.7601ZM117.6 11.7859L110.373 40.7548H124.827L117.6 11.7859Z" stroke="#D9D9D9" stroke-width="2" stroke-linecap="round"/>
<path id="4" fill-rule="evenodd" clip-rule="evenodd" d="M154.537 64.9995C150.004 64.9995 145.757 63.5733 141.796 60.721C141.404 60.4467 141.063 60.0037 140.807 59.4374C140.779 59.3761 140.752 59.3137 140.725 59.2502C140.566 58.8768 140.448 58.4607 140.374 58.0202C140.323 57.7094 140.297 57.3886 140.297 57.0664C140.297 56.0562 140.502 55.1797 140.913 54.437C141.1 54.0919 141.329 53.815 141.584 53.6238C141.839 53.4326 142.115 53.3311 142.394 53.3257C142.427 53.3238 142.459 53.3228 142.492 53.3228C142.849 53.3228 143.188 53.4416 143.509 53.6793C146.792 56.1157 150.308 57.3338 154.055 57.3338C155.12 57.3464 156.184 57.2262 157.238 56.9743C161.362 55.9334 163.423 52.6364 163.423 47.0833C163.433 46.2947 163.344 45.5114 163.161 44.7833C162.979 44.0552 162.708 43.3981 162.365 42.8538C162.317 42.7762 162.269 42.7004 162.219 42.6266C161.676 41.8313 161.071 41.1613 160.42 40.6344C160.04 40.3225 159.648 40.0501 159.248 39.8188C158.346 39.2959 157.151 38.6947 155.664 38.0153C155.182 37.7948 154.699 37.5789 154.216 37.3676C153.284 36.9671 152.355 36.5436 151.431 36.0974C150.607 35.6973 149.843 35.3026 149.138 34.9134C148.487 34.5555 147.842 34.1701 147.203 33.7576C145.418 32.5989 143.884 30.8607 142.599 28.5432C141.314 26.2257 140.672 23.1357 140.672 19.2732C140.672 15.886 141.207 12.8109 142.278 10.0477C143.041 8.10493 144.034 6.44223 145.197 5.16161C145.776 4.51431 146.384 3.94263 147.015 3.4517C148.977 1.9166 151.309 1.1025 154.01 1.0094C154.186 1.00342 154.361 1.00045 154.537 1.00049C156.583 0.986267 158.627 1.28113 160.641 1.88144C162.191 2.34706 163.713 3.0365 165.19 3.94195C166.189 4.53618 166.689 5.72465 166.689 7.50735C166.69 8.41138 166.501 9.28743 166.154 9.98382C166.137 10.0204 166.118 10.0566 166.1 10.0923C165.929 10.4372 165.716 10.718 165.475 10.9164C165.234 11.1148 164.971 11.2263 164.703 11.2436C164.651 11.2487 164.599 11.2512 164.548 11.251C164.473 11.2501 164.399 11.2386 164.326 11.2169C164.148 11.1654 163.937 11.0579 163.691 10.8945C160.907 9.29005 158.034 8.48783 155.072 8.48783C154.123 8.48018 153.175 8.59591 152.237 8.83398C150.673 9.244 149.325 10.02 148.193 11.1619C146.426 12.9446 145.543 15.4404 145.543 18.6492C145.538 19.48 145.611 20.307 145.759 21.1004C145.96 22.1535 146.319 23.1043 146.801 23.8636C147.374 24.7674 148.024 25.5253 148.729 26.1128C149.128 26.4476 149.539 26.7384 149.96 26.9834C150.397 27.2377 150.837 27.4745 151.281 27.6935C152.277 28.1877 153.46 28.7007 154.83 29.2325C154.929 29.2704 155.027 29.3081 155.126 29.3454C157.02 30.1041 158.669 30.8627 160.071 31.6213C160.704 31.9608 161.331 32.3314 161.951 32.7326C163.682 33.8616 165.163 35.6146 166.394 37.9915C167.553 40.2278 168.166 43.1995 168.235 46.9065C168.239 47.1437 168.241 47.3809 168.241 47.6181C168.241 50.9458 167.67 53.9319 166.528 56.5762C165.697 58.4797 164.643 60.0849 163.431 61.2959C162.879 61.8551 162.304 62.3481 161.71 62.7711C160.44 63.6684 159.106 64.289 157.741 64.6177C156.68 64.878 155.609 65.0057 154.537 64.9995V64.9995Z" stroke="#D9D9D9" stroke-width="2" stroke-linecap="round"/>
<path id="5" fill-rule="evenodd" clip-rule="evenodd" d="M186.327 63.6681C188.245 64.5734 190.23 65.0216 192.223 64.9992C193.307 65.0045 194.39 64.8998 195.466 64.6858C196.57 64.4683 197.661 64.096 198.728 63.5731C200.637 62.6223 202.538 61.2555 204.429 59.4728C205.214 58.7598 205.607 57.6307 205.607 56.0857C205.607 56.0709 205.607 56.056 205.607 56.0411C205.609 55.6017 205.558 55.166 205.457 54.7601C205.356 54.3542 205.206 53.9865 205.018 53.6791C204.781 53.2829 204.485 52.9966 204.161 52.8486C203.935 52.7456 203.7 52.6952 203.465 52.6986C203.383 52.6988 203.302 52.7058 203.22 52.7194C202.97 52.7567 202.727 52.8706 202.502 53.0551C201.975 53.5149 201.439 53.9464 200.895 54.3491C199.923 55.0728 198.921 55.6829 197.898 56.1748C197.792 56.2255 197.685 56.274 197.579 56.3204C196.825 56.6463 196.015 56.8864 195.148 57.0409C194.337 57.1806 193.521 57.2485 192.705 57.2445C191.516 57.2551 190.328 57.077 189.159 56.7126C187.647 56.2505 186.194 55.3601 184.863 54.0802C182.703 51.9706 181.08 49.0886 179.991 45.4341C179.475 43.6946 179.082 41.8616 178.82 39.9716C178.505 37.6849 178.351 35.3455 178.358 32.9997C178.357 31.7319 178.4 30.465 178.488 29.2055C178.685 26.2024 179.194 23.279 179.991 20.5654C181.08 16.9109 182.703 14.0288 184.863 11.9193C187.022 9.80976 189.636 8.75499 192.705 8.75499C192.827 8.75507 192.949 8.75656 193.071 8.75945C194.884 8.80105 196.493 9.1561 197.898 9.82461C198.473 10.099 199.04 10.4128 199.599 10.765C200.592 11.3934 201.562 12.1211 202.502 12.9443C202.628 13.049 202.76 13.1307 202.897 13.188C203.083 13.2648 203.274 13.3027 203.465 13.3009C203.575 13.3014 203.684 13.291 203.793 13.2697C204.259 13.1922 204.694 12.8397 205.018 12.2758C205.031 12.2533 205.044 12.2305 205.056 12.2075C205.411 11.5904 205.609 10.7682 205.607 9.91375C205.607 8.97882 205.463 8.19592 205.175 7.56504C204.973 7.13455 204.719 6.78054 204.429 6.52662C202.538 4.74392 200.637 3.37718 198.728 2.4264C196.818 1.47563 194.65 1.00024 192.223 1.00024C188.655 1.00024 185.451 2.2927 182.614 4.87762C179.777 7.46254 177.546 11.1765 175.923 16.0195C175.072 18.5732 174.445 21.3154 174.059 24.1635C173.668 27.0634 173.476 30.0278 173.487 32.9997C173.483 35.1393 173.579 37.2761 173.775 39.3907C174.107 43.1049 174.834 46.6908 175.923 49.98C177.546 54.823 179.777 58.5369 182.614 61.1218C183.792 62.1943 185.037 63.0481 186.327 63.6681V63.6681Z" stroke="#D9D9D9" stroke-width="2" stroke-linecap="round"/>
<path id="6" fill-rule="evenodd" clip-rule="evenodd" d="M212.938 60.5427V5.99206C212.938 4.86301 213.169 3.89738 213.633 3.09517C213.845 2.71868 214.1 2.41793 214.384 2.21129C214.668 2.00466 214.974 1.89647 215.283 1.89333C215.304 1.89244 215.325 1.89195 215.347 1.89185H227.82C232.673 1.89185 236.314 3.5557 238.741 6.88341C239.8 8.28487 240.669 10.044 241.291 12.045C241.913 14.0461 242.274 16.2437 242.349 18.4932C242.37 18.9901 242.381 19.4881 242.381 19.9863C242.381 23.5517 241.783 26.8051 240.587 29.7465C239.632 32.0759 238.321 33.9393 236.789 35.1452C236.328 35.5184 235.853 35.8439 235.368 36.1197C237.938 37.2487 239.695 39.9079 240.641 44.0973C241.229 46.6659 241.644 49.3356 241.877 52.057C241.998 53.5102 242.059 54.9754 242.06 56.4425V60.5427C242.064 61.1091 241.997 61.6707 241.863 62.1917C241.744 62.6416 241.574 63.0499 241.364 63.395C240.9 64.1675 240.329 64.5538 239.651 64.5538C239.388 64.5577 239.126 64.5053 238.872 64.3978C238.488 64.2364 238.137 63.9054 237.857 63.4396C237.494 62.8338 237.267 62.0397 237.212 61.1889C237.196 60.9746 237.188 60.7587 237.188 60.5427V57.8687C237.191 56.179 237.134 54.4904 237.019 52.8117C236.944 51.7416 236.84 50.6778 236.706 49.6237C236.385 47.0982 235.618 44.8401 234.404 42.8494C233.428 41.2469 232.046 40.2897 230.259 39.9778C229.804 39.9 229.348 39.8618 228.89 39.8634H217.809V60.5427C217.814 61.1514 217.734 61.7537 217.574 62.3016C217.451 62.7105 217.286 63.0805 217.086 63.395C216.605 64.1675 216.025 64.5538 215.347 64.5538C215.007 64.5604 214.67 64.4491 214.357 64.227C214.087 64.028 213.841 63.7458 213.633 63.395C213.169 62.6225 212.938 61.6718 212.938 60.5427ZM217.809 32.1978H227.499C230.568 32.1978 233.004 31.1876 234.806 29.1672C236.483 27.2874 237.38 24.6866 237.497 21.3649C237.505 21.1136 237.51 20.8619 237.509 20.6102C237.517 19.418 237.416 18.2308 237.209 17.0894C236.858 15.2026 236.145 13.5591 235.181 12.4098C234.636 11.7652 234.038 11.2586 233.404 10.9064C232.207 10.2072 230.697 9.7798 228.874 9.62431C228.327 9.57871 227.779 9.55642 227.231 9.55746H217.809V32.1978Z" stroke="#D9D9D9" stroke-width="2" stroke-linecap="round"/>
<path id="7" fill-rule="evenodd" clip-rule="evenodd" d="M251.053 60.5426V5.54622C251.053 4.41717 251.285 3.45154 251.749 2.64933C251.96 2.27284 252.216 1.97209 252.499 1.76545C252.783 1.55881 253.089 1.45062 253.398 1.44749C253.419 1.4466 253.441 1.4461 253.462 1.446C253.78 1.43801 254.097 1.53717 254.392 1.73756C254.687 1.93794 254.955 2.23542 255.179 2.61219C255.187 2.6245 255.194 2.63688 255.202 2.64933C255.431 3.01816 255.613 3.46024 255.737 3.94908C255.861 4.43792 255.925 4.96346 255.924 5.49422C255.924 5.51155 255.924 5.52889 255.924 5.54622V60.5426C255.929 61.1513 255.849 61.7535 255.69 62.3015C255.566 62.7103 255.401 63.0803 255.202 63.3949C254.72 64.1674 254.14 64.5536 253.462 64.5536C253.122 64.5603 252.785 64.449 252.472 64.2268C252.202 64.0279 251.956 63.7456 251.749 63.3949C251.285 62.6224 251.053 61.6716 251.053 60.5426Z" stroke="#D9D9D9" stroke-width="2" stroke-linecap="round"/>
<path id="8" fill-rule="evenodd" clip-rule="evenodd" d="M266.309 60.5426V5.99198C266.309 4.86293 266.541 3.8973 267.005 3.09509C267.216 2.7186 267.471 2.41785 267.755 2.21121C268.039 2.00457 268.345 1.89638 268.654 1.89325C268.675 1.89236 268.696 1.89187 268.718 1.89176H280.923C282.065 1.88331 283.205 2.00641 284.337 2.26019C285.513 2.53354 286.589 2.95891 287.565 3.53631C288.134 3.86988 288.688 4.27359 289.221 4.74409C290.075 5.4901 290.875 6.39356 291.608 7.43745C292.516 8.72769 293.268 10.2942 293.825 12.0532C294.753 15.0243 295.217 18.2332 295.217 21.6797C295.217 25.1263 294.753 28.3352 293.825 31.3063C292.897 34.2775 291.362 36.7139 289.221 38.6154C288.219 39.488 287.154 40.1436 286.052 40.566C285.06 40.9611 283.982 41.2266 282.82 41.3623C282.189 41.4342 281.556 41.4694 280.923 41.4677H271.18V60.5426C271.185 61.1514 271.105 61.7536 270.945 62.3016C270.822 62.7104 270.657 63.0804 270.457 63.395C269.976 64.1675 269.396 64.5537 268.718 64.5537C268.378 64.5604 268.041 64.449 267.728 64.2269C267.458 64.0279 267.212 63.7457 267.005 63.395C266.541 62.6224 266.309 61.6717 266.309 60.5426ZM271.18 33.8021H280.441C283.531 33.8021 285.844 32.9672 287.378 31.2974C287.643 31.0105 287.893 30.6854 288.123 30.3258C288.813 29.2782 289.366 28.0056 289.747 26.5872C290.129 25.1689 290.331 23.6349 290.342 22.0809C290.344 21.9472 290.345 21.8135 290.345 21.6797C290.358 19.9523 290.144 18.2411 289.718 16.6659C289.333 15.2943 288.792 14.0605 288.123 13.0336C287.536 12.1444 286.852 11.4491 286.109 10.985C284.872 10.1719 283.312 9.70643 281.428 9.58858C281.099 9.56789 280.77 9.55749 280.441 9.55738H271.18V33.8021Z" stroke="#D9D9D9" stroke-width="2" stroke-linecap="round"/>
<path id="9" fill-rule="evenodd" clip-rule="evenodd" d="M310.958 60.5427V9.46832H300.037C299.749 9.47365 299.463 9.3916 299.193 9.22617C298.906 9.04454 298.646 8.76232 298.431 8.3987C298.228 8.06236 298.066 7.66198 297.956 7.2208C297.846 6.77961 297.789 6.30641 297.79 5.82864C297.789 5.79399 297.789 5.75932 297.789 5.72465C297.789 4.65503 298.003 3.74883 298.431 3.00603C298.63 2.65491 298.87 2.37508 299.136 2.18373C299.401 1.99238 299.688 1.89356 299.978 1.89333C299.998 1.89247 300.018 1.89198 300.037 1.89185H326.697C327.339 1.89185 327.884 2.26324 328.33 3.00603C328.544 3.35313 328.713 3.76848 328.828 4.2272C328.943 4.68592 329.001 5.17857 328.999 5.67563C328.999 5.69197 328.999 5.70831 328.999 5.72465C329.003 6.2285 328.946 6.7285 328.832 7.19538C328.717 7.65022 328.546 8.06004 328.33 8.3987C327.884 9.11178 327.339 9.46832 326.697 9.46832H315.83V60.5427C315.835 61.1514 315.754 61.7537 315.595 62.3016C315.472 62.7105 315.307 63.0805 315.107 63.395C314.625 64.1675 314.045 64.5538 313.367 64.5538C313.027 64.5604 312.69 64.4491 312.378 64.227C312.107 64.028 311.862 63.7458 311.654 63.395C311.19 62.6225 310.958 61.6718 310.958 60.5427Z" stroke="#D9D9D9" stroke-width="2" stroke-linecap="round"/>
</g>
</svg>
