<svg width="104" height="104" viewBox="0 0 104 104" fill="none" xmlns="http://www.w3.org/2000/svg">
<g id="REACT-BLUE">
<g id="Group">
<path id="ELIPSE3" fill-rule="evenodd" clip-rule="evenodd" d="M52.0008 30.4634C64.5249 30.4634 76.1595 32.4947 84.9319 35.9083C95.5014 40.0214 102 46.2557 102 51.9009C102 57.7835 95.1128 64.4067 83.7626 68.6574C75.1815 71.8709 63.8894 73.5485 52.0008 73.5485C39.8118 73.5485 28.2695 71.9739 19.5917 68.6221C8.61273 64.3804 2 57.6715 2 51.9009C2 46.3015 8.20478 40.1153 18.6257 36.0086C27.4309 32.5386 39.3527 30.4634 51.9992 30.4634H52.0008Z" stroke="#2D4059" stroke-width="3"/>
<path id="ELIPSE2" fill-rule="evenodd" clip-rule="evenodd" d="M35.4896 41.244C41.7464 28.9809 49.1152 18.6035 56.1139 11.7191C64.5462 3.42452 72.5708 0.176119 76.897 2.99598C81.4057 5.93481 83.0408 15.9875 80.6283 29.2245C78.8061 39.2324 74.4488 51.1268 68.5095 62.7678C62.42 74.703 55.4473 85.2183 48.544 92.0387C39.8086 100.67 31.3632 103.794 26.9407 100.911C22.6492 98.1154 21.0081 88.9477 23.0668 76.692C24.8063 66.3369 29.1716 53.6268 35.4875 41.2438L35.4896 41.244Z" stroke="#2D4059" stroke-width="3"/>
<path id="ELIPSE1" fill-rule="evenodd" clip-rule="evenodd" d="M35.5064 62.7991C29.2319 50.55 24.96 38.1488 23.1768 27.8572C21.0303 15.4571 22.548 5.97625 26.8703 3.14818C31.3745 0.200746 39.8962 3.61981 48.8371 12.5933C55.5971 19.3776 62.5386 29.5829 68.4951 41.2129C74.6021 53.1365 79.1792 65.2165 80.9597 75.3829C83.2128 88.2481 81.3893 98.078 76.9708 100.969C72.6836 103.775 64.8383 100.804 56.4729 92.6674C49.4048 85.7927 41.8428 75.1702 35.5064 62.7991Z" stroke="#2D4059" stroke-width="3"/>
<path id="ROLE" d="M52.0008 62.4446C57.1526 62.4446 61.3288 57.724 61.3288 51.9009C61.3288 46.0778 57.1526 41.3573 52.0008 41.3573C46.8491 41.3573 42.6729 46.0778 42.6729 51.9009C42.6729 57.724 46.8491 62.4446 52.0008 62.4446Z" fill="#2D4059"/>
</g>
</g>
</svg>
