<svg width="219" height="66" viewBox="0 0 219 66" fill="none" xmlns="http://www.w3.org/2000/svg">
<g id="svgGroup">
<path id="0" fill-rule="evenodd" clip-rule="evenodd" d="M1 60.5426V5.99171C1 4.86266 1.28704 3.89703 1.86111 3.09481C2.12292 2.71814 2.43908 2.41728 2.79025 2.21064C3.14141 2.00399 3.52021 1.8959 3.90348 1.89297C3.92923 1.89209 3.95499 1.89159 3.98076 1.89148H19.4144C25.4201 1.89148 29.9244 3.55534 32.9272 6.88306C34.2384 8.28439 35.3142 10.0435 36.0839 12.0445C36.8536 14.0455 37.2997 16.2432 37.3928 18.4929C37.4191 18.9898 37.432 19.4878 37.4315 19.986C37.4315 23.5514 36.6918 26.8048 35.2125 29.7463C34.0301 32.0756 32.4079 33.939 30.5128 35.1449C29.9421 35.5182 29.3547 35.8437 28.7542 36.1195C31.9336 37.2485 34.1085 39.9077 35.2787 44.0971C36.0065 46.6657 36.5193 49.3354 36.8077 52.0569C36.9578 53.51 37.0334 54.9753 37.034 56.4423V60.5426C37.039 61.1085 36.9563 61.6696 36.7912 62.1901C36.6433 62.6405 36.4336 63.0493 36.1729 63.3949C35.5989 64.1674 34.8923 64.5537 34.0533 64.5537C33.7284 64.5576 33.4044 64.5052 33.0895 64.3977C32.6146 64.2363 32.1809 63.9052 31.8343 63.4395C31.385 62.8333 31.1034 62.0386 31.0361 61.1873C31.0161 60.9734 31.0062 60.7581 31.0063 60.5426V57.8685C31.0096 56.1788 30.9395 54.4903 30.7965 52.8116C30.7041 51.7415 30.5751 50.6776 30.4101 49.6235C30.0127 47.098 29.0633 44.8399 27.5618 42.8492C26.3534 41.2467 24.6437 40.289 22.4327 39.9761C21.8701 39.8988 21.3048 39.8611 20.7392 39.8632H7.02775V60.5426C7.03379 61.1508 6.93438 61.7525 6.7374 62.3C6.58489 62.7094 6.38054 63.0799 6.13352 63.3949C5.53737 64.1674 4.81978 64.5537 3.98076 64.5537C3.56021 64.5603 3.14325 64.449 2.75644 64.2268C2.42172 64.0279 2.11794 63.7456 1.86111 63.3949C1.28704 62.6224 1 61.6716 1 60.5426ZM7.02775 32.1975H19.017C22.8147 32.1975 25.8286 31.1873 28.0586 29.1669C30.1341 27.2871 31.244 24.6864 31.3883 21.3646C31.3989 21.1133 31.404 20.8616 31.4037 20.6099C31.4132 19.4177 31.2878 18.2305 31.0317 17.0891C30.5974 15.2023 29.7161 13.5588 28.5223 12.4095C27.8489 11.7649 27.1082 11.2582 26.3243 10.906C24.8442 10.2068 22.9763 9.77947 20.7205 9.62397C20.0428 9.57835 19.3643 9.55606 18.6858 9.55712H7.02775V32.1975Z" stroke="#D9D9D9" stroke-width="2" stroke-linecap="round"/>
<path id="1" fill-rule="evenodd" clip-rule="evenodd" d="M48.1621 60.0969V5.99171C48.1621 4.86266 48.4491 3.89703 49.0232 3.09481C49.285 2.71814 49.6012 2.41728 49.9524 2.21064C50.3035 2.00399 50.6823 1.8959 51.0656 1.89297C51.0913 1.89209 51.1171 1.89159 51.1429 1.89148H77.7047C78.4996 1.89148 79.173 2.26288 79.725 3.00567C79.9893 3.3526 80.1988 3.76771 80.3411 4.22616C80.4834 4.68461 80.5554 5.17698 80.553 5.67379C80.5531 5.69063 80.5531 5.70746 80.553 5.7243C80.5576 6.22815 80.4874 6.72816 80.3465 7.19504C80.2037 7.64988 79.992 8.05969 79.725 8.39836C79.173 9.11145 78.4996 9.46799 77.7047 9.46799H54.1899V29.1669H75.3201C76.115 29.1669 76.7884 29.5383 77.3404 30.2811C77.6047 30.628 77.8142 31.0431 77.9565 31.5016C78.0988 31.96 78.1708 32.4524 78.1684 32.9492C78.1685 32.9661 78.1685 32.9829 78.1684 32.9997C78.173 33.5036 78.1028 34.0036 77.9619 34.4705C77.8191 34.9253 77.6074 35.3351 77.3404 35.6738C76.7884 36.3869 76.115 36.7434 75.3201 36.7434H54.1899V56.5315H77.7047C78.4996 56.5315 79.173 56.9029 79.725 57.6457C79.9893 57.9926 80.1988 58.4077 80.3411 58.8662C80.4834 59.3246 80.5554 59.817 80.553 60.3138C80.5531 60.3306 80.5531 60.3475 80.553 60.3643C80.5576 60.8681 80.4874 61.3681 80.3465 61.835C80.2037 62.2899 79.992 62.6997 79.725 63.0384C79.173 63.7514 78.4996 64.108 77.7047 64.108H51.1429C50.7223 64.1146 50.3054 64.0033 49.9185 63.7811C49.5838 63.5822 49.2801 63.2999 49.0232 62.9492C48.4491 62.1767 48.1621 61.2259 48.1621 60.0969Z" stroke="#D9D9D9" stroke-width="2" stroke-linecap="round"/>
<path id="2" fill-rule="evenodd" clip-rule="evenodd" d="M87.6398 58.7595L104.531 5.10004C104.78 4.32915 105.131 3.62511 105.566 3.0217C105.709 2.8254 105.861 2.64132 106.021 2.47055C106.661 1.78718 107.445 1.44549 108.373 1.44549H109.035C109.431 1.44124 109.826 1.51226 110.207 1.65645C110.636 1.82088 111.037 2.09752 111.386 2.47055C111.994 3.12277 112.481 3.95507 112.81 4.90246C112.833 4.9679 112.855 5.03377 112.877 5.10004L129.768 58.7595C129.833 58.9675 129.892 59.1792 129.943 59.3939C130.044 59.8178 130.096 60.1897 130.099 60.5096C130.099 60.5205 130.099 60.5314 130.099 60.5423C130.099 61.6713 129.823 62.6221 129.271 63.3946C128.799 64.0572 128.162 64.4619 127.481 64.5311C127.361 64.5463 127.24 64.5538 127.118 64.5533C126.5 64.5533 125.937 64.3305 125.429 63.8848C124.921 63.4392 124.535 62.8301 124.27 62.0575L119.964 48.1524H97.4432L93.1376 62.0575C92.8727 62.8301 92.4863 63.4392 91.9784 63.8848C91.4706 64.3305 90.9076 64.5533 90.2893 64.5533C89.9466 64.5576 89.6055 64.4905 89.2781 64.3543C88.8434 64.1693 88.4507 63.8392 88.1366 63.3946C87.5969 62.6454 87.2996 61.6391 87.3097 60.5957C87.3093 60.5779 87.3089 60.5601 87.3086 60.5423C87.3099 60.3637 87.3232 60.1857 87.3483 60.0104C87.3962 59.6558 87.4889 59.2537 87.6265 58.8041C87.6309 58.7892 87.6353 58.7744 87.6398 58.7595V58.7595ZM108.704 11.7852L99.7615 40.7542H117.646L108.704 11.7852Z" stroke="#D9D9D9" stroke-width="2" stroke-linecap="round"/>
<path id="3" fill-rule="evenodd" clip-rule="evenodd" d="M152.015 63.6681C154.388 64.5734 156.845 65.0215 159.311 64.9992C160.652 65.0045 161.992 64.8998 163.323 64.6857C164.689 64.4683 166.039 64.096 167.359 63.573C169.722 62.6223 172.073 61.2555 174.414 59.4728C175.385 58.7597 175.871 57.6307 175.871 56.0857C175.871 56.0708 175.871 56.056 175.871 56.0411C175.874 55.6017 175.811 55.1659 175.686 54.7601C175.56 54.3542 175.376 53.9865 175.142 53.679C174.849 53.2828 174.483 52.9966 174.082 52.8486C173.802 52.7456 173.512 52.6951 173.221 52.6985C173.12 52.6983 173.019 52.7048 172.919 52.7178C172.609 52.7555 172.308 52.8698 172.029 53.0551C171.377 53.5148 170.714 53.9463 170.042 54.349C168.838 55.0728 167.599 55.6829 166.332 56.1748C166.201 56.2255 166.069 56.274 165.937 56.3204C165.005 56.6462 164.003 56.8859 162.931 57.0394C161.927 57.1796 160.917 57.248 159.907 57.2444C158.435 57.2551 156.966 57.077 155.519 56.7126C153.648 56.2505 151.85 55.3601 150.203 54.0801C147.532 51.9706 145.522 49.0885 144.176 45.434C143.537 43.6945 143.051 41.8615 142.726 39.9715C142.337 37.6847 142.146 35.3454 142.155 32.9996C142.154 31.7318 142.207 30.4649 142.315 29.2054C142.559 26.2022 143.189 23.2788 144.176 20.5652C145.522 16.9107 147.532 14.0286 150.203 11.9191C152.875 9.80955 156.11 8.75478 159.907 8.75478C160.058 8.75486 160.209 8.75634 160.36 8.75924C162.603 8.80083 164.594 9.15589 166.332 9.8244C167.044 10.0988 167.746 10.4125 168.438 10.7648C169.666 11.3931 170.866 12.1209 172.029 12.9441C172.185 13.0488 172.349 13.1305 172.518 13.1878C172.748 13.2646 172.984 13.3025 173.221 13.3007C173.357 13.3012 173.492 13.2908 173.626 13.2695C174.204 13.192 174.741 12.8395 175.142 12.2756C175.159 12.2531 175.175 12.2303 175.191 12.2073C175.63 11.59 175.873 10.7678 175.871 9.91354C175.871 8.97861 175.693 8.1957 175.338 7.56482C175.088 7.13417 174.773 6.78014 174.414 6.52639C172.073 4.74369 169.722 3.37694 167.359 2.42617C164.997 1.47539 162.314 1 159.311 1C154.895 1 150.932 2.29246 147.421 4.87739C143.911 7.46232 141.151 11.1763 139.141 16.0193C138.089 18.5731 137.313 21.3152 136.835 24.1633C136.352 27.0633 136.114 30.0276 136.127 32.9996C136.123 35.1387 136.242 37.275 136.484 39.3891C136.895 43.1039 137.795 46.6903 139.141 49.9799C141.151 54.8229 143.911 58.5369 147.421 61.1218C148.879 62.1943 150.419 63.0481 152.015 63.6681V63.6681Z" stroke="#D9D9D9" stroke-width="2" stroke-linecap="round"/>
<path id="4" fill-rule="evenodd" clip-rule="evenodd" d="M195.678 60.5426V9.46799H182.165C181.808 9.47331 181.454 9.39126 181.119 9.22584C180.765 9.04421 180.444 8.76198 180.178 8.39836C179.925 8.06184 179.725 7.66122 179.589 7.21977C179.453 6.77831 179.383 6.30483 179.384 5.82681C179.383 5.79264 179.383 5.75847 179.383 5.7243C179.383 4.65468 179.648 3.74847 180.178 3.00567C180.423 2.65454 180.72 2.37471 181.049 2.18337C181.378 1.99202 181.732 1.8932 182.091 1.89297C182.116 1.89211 182.14 1.89161 182.165 1.89148H215.152C215.947 1.89148 216.62 2.26288 217.172 3.00567C217.436 3.3526 217.646 3.76771 217.788 4.22616C217.931 4.68461 218.003 5.17698 218 5.67379C218 5.69063 218 5.70746 218 5.7243C218.005 6.22815 217.935 6.72816 217.794 7.19504C217.651 7.64988 217.439 8.05969 217.172 8.39836C216.62 9.11145 215.947 9.46799 215.152 9.46799H201.705V60.5426C201.711 61.1508 201.612 61.7525 201.415 62.3C201.263 62.7094 201.058 63.0799 200.811 63.3949C200.215 64.1674 199.497 64.5537 198.658 64.5537C198.238 64.5603 197.821 64.449 197.434 64.2268C197.099 64.0279 196.796 63.7456 196.539 63.3949C195.965 62.6224 195.678 61.6716 195.678 60.5426Z" stroke="#D9D9D9" stroke-width="2" stroke-linecap="round"/>
</g>
</svg>
