<svg width="461" height="241" viewBox="0 0 461 241" fill="none" xmlns="http://www.w3.org/2000/svg">
<g id="Tools">
<g id="Group 27">
<rect id="Rectangle 935" y="2.77002" width="326.478" height="238.23" rx="5" fill="#212429"/>
<rect id="Rectangle 929" width="326.478" height="241" rx="5" fill="#DA4D25" fill-opacity="0.8"/>
<rect id="Rectangle 930" x="26.0625" y="55.4023" width="274.352" height="55.4023" rx="5" fill="#177FC8" fill-opacity="0.9"/>
<rect id="Rectangle 932" x="131.689" y="119.115" width="93.2795" height="96.954" rx="5" fill="#21C3F6" fill-opacity="0.9"/>
<rect id="Rectangle 934" x="26.0625" y="119.115" width="93.2795" height="96.954" rx="5" fill="#21C3F6" fill-opacity="0.9"/>
<rect id="Rectangle 933" x="235.941" y="119.115" width="64.4726" height="96.954" rx="5" fill="#E6B524" fill-opacity="0.9"/>
</g>
<ellipse id="Ellipse 230" cx="162.554" cy="22.8535" rx="10.2882" ry="10.3879" fill="#D9D9D9" fill-opacity="0.8"/>
<path id="JavaScript" d="M347.816 123.2C346.843 123.2 345.956 122.973 345.156 122.52C344.863 122.347 344.716 122.1 344.716 121.78C344.716 121.567 344.783 121.38 344.916 121.22C345.063 121.047 345.25 120.96 345.476 120.96C345.61 120.96 345.73 120.987 345.836 121.04C346.45 121.333 347.07 121.48 347.696 121.48C348.416 121.48 348.996 121.273 349.436 120.86C349.89 120.447 350.116 119.667 350.116 118.52V109.86C350.116 109.607 350.203 109.393 350.376 109.22C350.55 109.033 350.763 108.94 351.016 108.94C351.27 108.94 351.483 109.033 351.656 109.22C351.843 109.393 351.936 109.607 351.936 109.86V118.4C351.936 120.147 351.543 121.387 350.756 122.12C349.983 122.84 349.003 123.2 347.816 123.2ZM357.953 123.2C357.366 123.2 356.819 123.08 356.313 122.84C355.819 122.6 355.426 122.253 355.133 121.8C354.839 121.333 354.693 120.8 354.693 120.2C354.693 119.213 355.079 118.427 355.853 117.84C356.639 117.253 357.786 116.96 359.293 116.96H361.713V116.8C361.713 115.92 361.493 115.287 361.053 114.9C360.626 114.513 359.953 114.32 359.033 114.32C358.526 114.32 358.073 114.36 357.673 114.44C357.286 114.52 356.853 114.64 356.373 114.8C356.266 114.827 356.179 114.84 356.113 114.84C355.913 114.84 355.739 114.767 355.593 114.62C355.446 114.473 355.373 114.293 355.373 114.08C355.373 113.72 355.546 113.467 355.893 113.32C357.026 112.84 358.179 112.6 359.353 112.6C360.273 112.6 361.046 112.787 361.673 113.16C362.313 113.533 362.779 114.02 363.073 114.62C363.379 115.207 363.533 115.847 363.533 116.54V122.2C363.533 122.453 363.439 122.667 363.253 122.84C363.079 123.013 362.866 123.1 362.613 123.1C362.359 123.1 362.146 123.013 361.973 122.84C361.799 122.667 361.713 122.453 361.713 122.2V121.68C360.726 122.693 359.473 123.2 357.953 123.2ZM358.633 121.6C359.219 121.6 359.786 121.46 360.333 121.18C360.879 120.887 361.339 120.527 361.713 120.1V118.42H359.533C357.519 118.42 356.513 118.947 356.513 120C356.513 120.48 356.673 120.867 356.993 121.16C357.326 121.453 357.873 121.6 358.633 121.6ZM370.027 123.1C369.787 123.1 369.567 123.033 369.367 122.9C369.167 122.753 369.021 122.573 368.927 122.36L365.447 114.04C365.381 113.88 365.347 113.74 365.347 113.62C365.347 113.367 365.434 113.153 365.607 112.98C365.781 112.793 365.994 112.7 366.247 112.7C366.421 112.7 366.581 112.753 366.727 112.86C366.887 112.953 367.001 113.073 367.067 113.22L370.127 120.98L373.187 113.22C373.254 113.073 373.361 112.953 373.507 112.86C373.667 112.753 373.834 112.7 374.007 112.7C374.261 112.7 374.474 112.793 374.647 112.98C374.821 113.153 374.907 113.367 374.907 113.62C374.907 113.74 374.874 113.88 374.807 114.04L371.327 122.36C371.234 122.573 371.087 122.753 370.887 122.9C370.687 123.033 370.467 123.1 370.227 123.1H370.027ZM379.496 123.2C378.909 123.2 378.362 123.08 377.856 122.84C377.362 122.6 376.969 122.253 376.676 121.8C376.382 121.333 376.236 120.8 376.236 120.2C376.236 119.213 376.622 118.427 377.396 117.84C378.182 117.253 379.329 116.96 380.836 116.96H383.256V116.8C383.256 115.92 383.036 115.287 382.596 114.9C382.169 114.513 381.496 114.32 380.576 114.32C380.069 114.32 379.616 114.36 379.216 114.44C378.829 114.52 378.396 114.64 377.916 114.8C377.809 114.827 377.722 114.84 377.656 114.84C377.456 114.84 377.282 114.767 377.136 114.62C376.989 114.473 376.916 114.293 376.916 114.08C376.916 113.72 377.089 113.467 377.436 113.32C378.569 112.84 379.722 112.6 380.896 112.6C381.816 112.6 382.589 112.787 383.216 113.16C383.856 113.533 384.322 114.02 384.616 114.62C384.922 115.207 385.076 115.847 385.076 116.54V122.2C385.076 122.453 384.982 122.667 384.796 122.84C384.622 123.013 384.409 123.1 384.156 123.1C383.902 123.1 383.689 123.013 383.516 122.84C383.342 122.667 383.256 122.453 383.256 122.2V121.68C382.269 122.693 381.016 123.2 379.496 123.2ZM380.176 121.6C380.762 121.6 381.329 121.46 381.876 121.18C382.422 120.887 382.882 120.527 383.256 120.1V118.42H381.076C379.062 118.42 378.056 118.947 378.056 120C378.056 120.48 378.216 120.867 378.536 121.16C378.869 121.453 379.416 121.6 380.176 121.6ZM392.515 123.2C390.822 123.2 389.235 122.88 387.755 122.24C387.595 122.173 387.462 122.067 387.355 121.92C387.248 121.76 387.195 121.593 387.195 121.42C387.195 121.193 387.268 121 387.415 120.84C387.575 120.667 387.775 120.58 388.015 120.58C388.148 120.58 388.275 120.607 388.395 120.66C389.622 121.207 390.935 121.48 392.335 121.48C394.668 121.48 395.835 120.713 395.835 119.18C395.835 118.78 395.682 118.447 395.375 118.18C395.082 117.913 394.715 117.707 394.275 117.56C393.835 117.4 393.208 117.213 392.395 117C391.315 116.72 390.442 116.453 389.775 116.2C389.108 115.933 388.535 115.54 388.055 115.02C387.575 114.5 387.335 113.807 387.335 112.94C387.335 112.18 387.535 111.493 387.935 110.88C388.335 110.253 388.922 109.76 389.695 109.4C390.482 109.027 391.422 108.84 392.515 108.84C393.982 108.84 395.308 109.06 396.495 109.5C396.868 109.633 397.055 109.9 397.055 110.3C397.055 110.513 396.982 110.707 396.835 110.88C396.688 111.053 396.495 111.14 396.255 111.14C396.175 111.14 396.068 111.113 395.935 111.06C394.895 110.7 393.822 110.52 392.715 110.52C391.662 110.52 390.802 110.72 390.135 111.12C389.482 111.52 389.155 112.08 389.155 112.8C389.155 113.28 389.308 113.673 389.615 113.98C389.935 114.273 390.328 114.507 390.795 114.68C391.275 114.84 391.922 115.013 392.735 115.2C393.788 115.453 394.635 115.707 395.275 115.96C395.928 116.213 396.482 116.607 396.935 117.14C397.402 117.673 397.635 118.393 397.635 119.3C397.635 120.047 397.422 120.72 396.995 121.32C396.568 121.907 395.968 122.367 395.195 122.7C394.422 123.033 393.528 123.2 392.515 123.2ZM404.799 123.2C403.839 123.2 402.953 122.987 402.139 122.56C401.326 122.133 400.673 121.52 400.179 120.72C399.699 119.92 399.459 118.98 399.459 117.9C399.459 116.82 399.699 115.88 400.179 115.08C400.673 114.28 401.326 113.667 402.139 113.24C402.953 112.813 403.839 112.6 404.799 112.6C405.506 112.6 406.113 112.693 406.619 112.88C407.139 113.053 407.619 113.28 408.059 113.56C408.326 113.733 408.459 113.967 408.459 114.26C408.459 114.46 408.379 114.647 408.219 114.82C408.073 114.98 407.899 115.06 407.699 115.06C407.553 115.06 407.406 115.02 407.259 114.94C406.819 114.713 406.439 114.553 406.119 114.46C405.813 114.353 405.426 114.3 404.959 114.3C403.813 114.3 402.913 114.633 402.259 115.3C401.606 115.953 401.279 116.82 401.279 117.9C401.279 118.98 401.606 119.853 402.259 120.52C402.913 121.173 403.813 121.5 404.959 121.5C405.426 121.5 405.813 121.453 406.119 121.36C406.439 121.253 406.819 121.087 407.259 120.86C407.406 120.78 407.553 120.74 407.699 120.74C407.899 120.74 408.073 120.827 408.219 121C408.379 121.16 408.459 121.34 408.459 121.54C408.459 121.833 408.326 122.067 408.059 122.24C407.619 122.52 407.139 122.753 406.619 122.94C406.113 123.113 405.506 123.2 404.799 123.2ZM411.643 123.1C411.39 123.1 411.177 123.013 411.003 122.84C410.83 122.667 410.743 122.453 410.743 122.2V113.62C410.743 113.367 410.83 113.153 411.003 112.98C411.177 112.793 411.39 112.7 411.643 112.7C411.897 112.7 412.11 112.793 412.283 112.98C412.47 113.153 412.563 113.367 412.563 113.62V114.48C413.497 113.227 414.543 112.6 415.703 112.6H415.803C416.057 112.6 416.263 112.687 416.423 112.86C416.597 113.033 416.683 113.247 416.683 113.5C416.683 113.753 416.597 113.96 416.423 114.12C416.25 114.28 416.03 114.36 415.763 114.36H415.663C415.023 114.36 414.437 114.52 413.903 114.84C413.37 115.147 412.923 115.573 412.563 116.12V122.2C412.563 122.453 412.47 122.667 412.283 122.84C412.11 123.013 411.897 123.1 411.643 123.1ZM419.26 110.72C418.98 110.72 418.74 110.62 418.54 110.42C418.34 110.22 418.24 109.98 418.24 109.7V109.62C418.24 109.34 418.34 109.1 418.54 108.9C418.74 108.7 418.98 108.6 419.26 108.6H419.38C419.66 108.6 419.9 108.7 420.1 108.9C420.3 109.1 420.4 109.34 420.4 109.62V109.7C420.4 109.98 420.3 110.22 420.1 110.42C419.9 110.62 419.66 110.72 419.38 110.72H419.26ZM419.3 123.1C419.046 123.1 418.833 123.013 418.66 122.84C418.486 122.667 418.4 122.453 418.4 122.2V113.62C418.4 113.367 418.486 113.153 418.66 112.98C418.833 112.793 419.046 112.7 419.3 112.7C419.566 112.7 419.786 112.787 419.96 112.96C420.133 113.133 420.22 113.353 420.22 113.62V122.2C420.22 122.453 420.126 122.667 419.94 122.84C419.766 123.013 419.553 123.1 419.3 123.1ZM424.28 127.7C424.027 127.7 423.813 127.607 423.64 127.42C423.467 127.247 423.38 127.033 423.38 126.78V113.6C423.38 113.347 423.467 113.133 423.64 112.96C423.813 112.787 424.027 112.7 424.28 112.7C424.533 112.7 424.747 112.787 424.92 112.96C425.107 113.133 425.2 113.347 425.2 113.6V114.12C426.173 113.107 427.313 112.6 428.62 112.6C429.447 112.6 430.227 112.813 430.96 113.24C431.707 113.653 432.307 114.267 432.76 115.08C433.227 115.88 433.46 116.82 433.46 117.9C433.46 118.98 433.227 119.927 432.76 120.74C432.307 121.54 431.707 122.153 430.96 122.58C430.227 122.993 429.447 123.2 428.62 123.2C427.313 123.2 426.173 122.693 425.2 121.68V126.78C425.2 127.047 425.113 127.267 424.94 127.44C424.767 127.613 424.547 127.7 424.28 127.7ZM428.36 121.5C429.347 121.5 430.14 121.187 430.74 120.56C431.34 119.933 431.64 119.047 431.64 117.9C431.64 116.753 431.34 115.867 430.74 115.24C430.14 114.613 429.347 114.3 428.36 114.3C427.747 114.3 427.167 114.44 426.62 114.72C426.087 114.987 425.613 115.347 425.2 115.8V120C425.613 120.453 426.087 120.82 426.62 121.1C427.167 121.367 427.747 121.5 428.36 121.5ZM439.439 123.2C437.493 123.2 436.519 122.32 436.519 120.56V114.36H435.099C434.993 114.36 434.899 114.327 434.819 114.26C434.753 114.18 434.719 114.087 434.719 113.98C434.719 113.847 434.779 113.733 434.899 113.64L437.619 110.98C437.739 110.86 437.853 110.8 437.959 110.8C438.066 110.8 438.153 110.84 438.219 110.92C438.299 111 438.339 111.093 438.339 111.2V112.8H440.599C440.826 112.8 441.013 112.873 441.159 113.02C441.306 113.167 441.379 113.353 441.379 113.58C441.379 113.793 441.306 113.98 441.159 114.14C441.013 114.287 440.826 114.36 440.599 114.36H438.339V120.4C438.339 120.92 438.459 121.253 438.699 121.4C438.953 121.533 439.266 121.6 439.639 121.6C439.906 121.6 440.173 121.56 440.439 121.48C440.493 121.467 440.546 121.453 440.599 121.44C440.666 121.427 440.746 121.42 440.839 121.42C441.026 121.42 441.193 121.493 441.339 121.64C441.486 121.773 441.559 121.94 441.559 122.14C441.559 122.447 441.406 122.68 441.099 122.84C440.579 123.08 440.026 123.2 439.439 123.2Z" fill="#E6B524"/>
<path id="Html" d="M344.461 33.1C344.207 33.1 343.994 33.0133 343.821 32.84C343.647 32.6667 343.561 32.4533 343.561 32.2V19.86C343.561 19.6067 343.647 19.3933 343.821 19.22C343.994 19.0333 344.207 18.94 344.461 18.94C344.714 18.94 344.927 19.0333 345.101 19.22C345.287 19.3933 345.381 19.6067 345.381 19.86V25.18H352.961V19.86C352.961 19.6067 353.047 19.3933 353.221 19.22C353.394 19.0333 353.607 18.94 353.861 18.94C354.114 18.94 354.327 19.0333 354.501 19.22C354.687 19.3933 354.781 19.6067 354.781 19.86V32.2C354.781 32.4533 354.687 32.6667 354.501 32.84C354.327 33.0133 354.114 33.1 353.861 33.1C353.607 33.1 353.394 33.0133 353.221 32.84C353.047 32.6667 352.961 32.4533 352.961 32.2V26.88H345.381V32.2C345.381 32.4533 345.287 32.6667 345.101 32.84C344.927 33.0133 344.714 33.1 344.461 33.1ZM361.604 33.2C359.657 33.2 358.684 32.32 358.684 30.56V24.36H357.264C357.157 24.36 357.064 24.3267 356.984 24.26C356.917 24.18 356.884 24.0867 356.884 23.98C356.884 23.8467 356.944 23.7333 357.064 23.64L359.784 20.98C359.904 20.86 360.017 20.8 360.124 20.8C360.23 20.8 360.317 20.84 360.384 20.92C360.464 21 360.504 21.0933 360.504 21.2V22.8H362.764C362.99 22.8 363.177 22.8733 363.324 23.02C363.47 23.1667 363.544 23.3533 363.544 23.58C363.544 23.7933 363.47 23.98 363.324 24.14C363.177 24.2867 362.99 24.36 362.764 24.36H360.504V30.4C360.504 30.92 360.624 31.2533 360.864 31.4C361.117 31.5333 361.43 31.6 361.804 31.6C362.07 31.6 362.337 31.56 362.604 31.48C362.657 31.4667 362.71 31.4533 362.764 31.44C362.83 31.4267 362.91 31.42 363.004 31.42C363.19 31.42 363.357 31.4933 363.504 31.64C363.65 31.7733 363.724 31.94 363.724 32.14C363.724 32.4467 363.57 32.68 363.264 32.84C362.744 33.08 362.19 33.2 361.604 33.2ZM366.62 33.1C366.367 33.1 366.154 33.0133 365.98 32.84C365.807 32.6667 365.72 32.4533 365.72 32.2V23.62C365.72 23.3667 365.807 23.1533 365.98 22.98C366.154 22.7933 366.367 22.7 366.62 22.7C366.874 22.7 367.087 22.7933 367.26 22.98C367.447 23.1533 367.54 23.3667 367.54 23.62V24.44C367.914 23.9067 368.36 23.4667 368.88 23.12C369.414 22.7733 370.1 22.6 370.94 22.6C371.687 22.6 372.327 22.8 372.86 23.2C373.394 23.6 373.774 24.0867 374 24.66C374.827 23.2867 376.054 22.6 377.68 22.6C378.427 22.6 379.047 22.7867 379.54 23.16C380.047 23.5333 380.42 24.0133 380.66 24.6C380.9 25.1867 381.02 25.8 381.02 26.44V32.2C381.02 32.4533 380.927 32.6667 380.74 32.84C380.567 33.0133 380.354 33.1 380.1 33.1C379.847 33.1 379.634 33.0133 379.46 32.84C379.287 32.6667 379.2 32.4533 379.2 32.2V26.8C379.2 25.9333 379.047 25.3 378.74 24.9C378.434 24.4867 377.907 24.28 377.16 24.28C376.48 24.28 375.914 24.46 375.46 24.82C375.02 25.1667 374.627 25.6267 374.28 26.2V32.2C374.28 32.4533 374.187 32.6667 374 32.84C373.827 33.0133 373.614 33.1 373.36 33.1C373.107 33.1 372.894 33.0133 372.72 32.84C372.547 32.6667 372.46 32.4533 372.46 32.2V26.8C372.46 25.9333 372.307 25.3 372 24.9C371.694 24.4867 371.167 24.28 370.42 24.28C369.74 24.28 369.174 24.46 368.72 24.82C368.28 25.1667 367.887 25.6267 367.54 26.2V32.2C367.54 32.4533 367.447 32.6667 367.26 32.84C367.087 33.0133 366.874 33.1 366.62 33.1ZM384.98 33.1C384.726 33.1 384.513 33.0133 384.34 32.84C384.166 32.6667 384.08 32.4533 384.08 32.2V19.22C384.08 18.9667 384.166 18.7533 384.34 18.58C384.513 18.3933 384.726 18.3 384.98 18.3C385.246 18.3 385.466 18.3867 385.64 18.56C385.813 18.7333 385.9 18.9533 385.9 19.22V32.2C385.9 32.4533 385.806 32.6667 385.62 32.84C385.446 33.0133 385.233 33.1 384.98 33.1Z" fill="#DA4D25"/>
<path id="Css" d="M352.269 78.2C350.936 78.2 349.736 77.9133 348.669 77.34C347.616 76.7533 346.782 75.92 346.169 74.84C345.569 73.7467 345.269 72.4733 345.269 71.02C345.269 69.5667 345.569 68.3 346.169 67.22C346.782 66.1267 347.616 65.2933 348.669 64.72C349.736 64.1333 350.936 63.84 352.269 63.84C353.176 63.84 353.982 63.9467 354.689 64.16C355.409 64.3733 356.122 64.68 356.829 65.08C357.122 65.24 357.269 65.4933 357.269 65.84C357.269 66.04 357.196 66.22 357.049 66.38C356.902 66.5267 356.709 66.6 356.469 66.6C356.336 66.6 356.216 66.5733 356.109 66.52C355.522 66.2133 354.949 65.98 354.389 65.82C353.829 65.66 353.182 65.58 352.449 65.58C351.302 65.58 350.322 65.82 349.509 66.3C348.709 66.7667 348.102 67.4133 347.689 68.24C347.289 69.0533 347.089 69.98 347.089 71.02C347.089 72.06 347.289 72.9933 347.689 73.82C348.102 74.6333 348.709 75.28 349.509 75.76C350.322 76.2267 351.302 76.46 352.449 76.46C353.182 76.46 353.829 76.38 354.389 76.22C354.949 76.06 355.522 75.8267 356.109 75.52C356.216 75.4667 356.336 75.44 356.469 75.44C356.709 75.44 356.902 75.5133 357.049 75.66C357.196 75.8067 357.269 75.9867 357.269 76.2C357.269 76.5467 357.122 76.8 356.829 76.96C356.122 77.36 355.409 77.6667 354.689 77.88C353.982 78.0933 353.176 78.2 352.269 78.2ZM362.76 78.2C361.427 78.2 360.213 77.9 359.12 77.3C358.893 77.14 358.78 76.92 358.78 76.64C358.78 76.4267 358.853 76.24 359 76.08C359.147 75.92 359.333 75.84 359.56 75.84C359.68 75.84 359.8 75.8667 359.92 75.92C360.347 76.1067 360.773 76.2533 361.2 76.36C361.627 76.4667 362.107 76.52 362.64 76.52C364.12 76.52 364.86 76.0467 364.86 75.1C364.86 74.7933 364.687 74.56 364.34 74.4C364.007 74.24 363.453 74.06 362.68 73.86C361.893 73.6733 361.24 73.48 360.72 73.28C360.213 73.08 359.773 72.78 359.4 72.38C359.04 71.9667 358.86 71.4267 358.86 70.76C358.86 69.8267 359.193 69.0667 359.86 68.48C360.54 67.8933 361.507 67.6 362.76 67.6C363.787 67.6 364.753 67.7667 365.66 68.1C365.847 68.1533 365.987 68.2533 366.08 68.4C366.187 68.5467 366.24 68.7 366.24 68.86C366.24 69.0733 366.16 69.26 366 69.42C365.853 69.58 365.667 69.66 365.44 69.66C365.373 69.66 365.287 69.6467 365.18 69.62C364.407 69.38 363.647 69.26 362.9 69.26C362.18 69.26 361.613 69.3933 361.2 69.66C360.8 69.9133 360.6 70.2467 360.6 70.66C360.6 71.06 360.787 71.3533 361.16 71.54C361.533 71.7267 362.113 71.9067 362.9 72.08C363.687 72.28 364.327 72.48 364.82 72.68C365.313 72.8667 365.733 73.1667 366.08 73.58C366.44 73.9933 366.62 74.5467 366.62 75.24C366.62 76.0933 366.28 76.8 365.6 77.36C364.933 77.92 363.987 78.2 362.76 78.2ZM372.369 78.2C371.036 78.2 369.823 77.9 368.729 77.3C368.503 77.14 368.389 76.92 368.389 76.64C368.389 76.4267 368.463 76.24 368.609 76.08C368.756 75.92 368.943 75.84 369.169 75.84C369.289 75.84 369.409 75.8667 369.529 75.92C369.956 76.1067 370.383 76.2533 370.809 76.36C371.236 76.4667 371.716 76.52 372.249 76.52C373.729 76.52 374.469 76.0467 374.469 75.1C374.469 74.7933 374.296 74.56 373.949 74.4C373.616 74.24 373.063 74.06 372.289 73.86C371.503 73.6733 370.849 73.48 370.329 73.28C369.823 73.08 369.383 72.78 369.009 72.38C368.649 71.9667 368.469 71.4267 368.469 70.76C368.469 69.8267 368.803 69.0667 369.469 68.48C370.149 67.8933 371.116 67.6 372.369 67.6C373.396 67.6 374.363 67.7667 375.269 68.1C375.456 68.1533 375.596 68.2533 375.689 68.4C375.796 68.5467 375.849 68.7 375.849 68.86C375.849 69.0733 375.769 69.26 375.609 69.42C375.463 69.58 375.276 69.66 375.049 69.66C374.983 69.66 374.896 69.6467 374.789 69.62C374.016 69.38 373.256 69.26 372.509 69.26C371.789 69.26 371.223 69.3933 370.809 69.66C370.409 69.9133 370.209 70.2467 370.209 70.66C370.209 71.06 370.396 71.3533 370.769 71.54C371.143 71.7267 371.723 71.9067 372.509 72.08C373.296 72.28 373.936 72.48 374.429 72.68C374.923 72.8667 375.343 73.1667 375.689 73.58C376.049 73.9933 376.229 74.5467 376.229 75.24C376.229 76.0933 375.889 76.8 375.209 77.36C374.543 77.92 373.596 78.2 372.369 78.2Z" fill="#177FC8"/>
<path id="ReactJS" d="M347.284 168.1C347.03 168.1 346.817 168.013 346.644 167.84C346.47 167.667 346.384 167.453 346.384 167.2V154.96C346.384 154.707 346.47 154.493 346.644 154.32C346.817 154.133 347.03 154.04 347.284 154.04H351.944C353.757 154.04 355.117 154.413 356.024 155.16C356.93 155.907 357.384 156.887 357.384 158.1C357.384 158.9 357.157 159.633 356.704 160.3C356.264 160.953 355.617 161.427 354.764 161.72C355.724 161.973 356.377 162.573 356.724 163.52C357.084 164.453 357.264 165.373 357.264 166.28V167.2C357.264 167.453 357.177 167.667 357.004 167.84C356.83 168.013 356.617 168.1 356.364 168.1C356.084 168.1 355.857 168.02 355.684 167.86C355.524 167.687 355.444 167.467 355.444 167.2V166.6C355.444 165.933 355.384 165.32 355.264 164.76C355.144 164.187 354.857 163.68 354.404 163.24C353.95 162.787 353.264 162.56 352.344 162.56H348.204V167.2C348.204 167.453 348.11 167.667 347.924 167.84C347.75 168.013 347.537 168.1 347.284 168.1ZM351.824 160.84C352.97 160.84 353.877 160.613 354.544 160.16C355.224 159.707 355.564 159.067 355.564 158.24C355.564 157.44 355.27 156.827 354.684 156.4C354.11 155.973 353.124 155.76 351.724 155.76H348.204V160.84H351.824ZM364.822 168.2C363.195 168.2 361.922 167.74 361.002 166.82C360.095 165.887 359.642 164.58 359.642 162.9C359.642 161.953 359.815 161.08 360.162 160.28C360.508 159.48 361.042 158.833 361.762 158.34C362.482 157.847 363.368 157.6 364.422 157.6C365.408 157.6 366.262 157.833 366.982 158.3C367.702 158.753 368.248 159.367 368.622 160.14C368.995 160.9 369.182 161.733 369.182 162.64C369.182 162.893 369.095 163.107 368.922 163.28C368.762 163.453 368.542 163.54 368.262 163.54H361.482C361.588 164.473 361.935 165.2 362.522 165.72C363.108 166.24 363.928 166.5 364.982 166.5C365.542 166.5 366.028 166.447 366.442 166.34C366.868 166.233 367.282 166.08 367.682 165.88C367.788 165.827 367.908 165.8 368.042 165.8C368.255 165.8 368.442 165.873 368.602 166.02C368.762 166.167 368.842 166.353 368.842 166.58C368.842 166.873 368.668 167.12 368.322 167.32C367.802 167.613 367.288 167.833 366.782 167.98C366.275 168.127 365.622 168.2 364.822 168.2ZM367.382 162.06C367.342 161.407 367.168 160.86 366.862 160.42C366.568 159.98 366.202 159.66 365.762 159.46C365.322 159.247 364.875 159.14 364.422 159.14C363.968 159.14 363.522 159.247 363.082 159.46C362.642 159.66 362.275 159.98 361.982 160.42C361.688 160.86 361.522 161.407 361.482 162.06H367.382ZM374.19 168.2C373.603 168.2 373.057 168.08 372.55 167.84C372.057 167.6 371.663 167.253 371.37 166.8C371.077 166.333 370.93 165.8 370.93 165.2C370.93 164.213 371.317 163.427 372.09 162.84C372.877 162.253 374.023 161.96 375.53 161.96H377.95V161.8C377.95 160.92 377.73 160.287 377.29 159.9C376.863 159.513 376.19 159.32 375.27 159.32C374.763 159.32 374.31 159.36 373.91 159.44C373.523 159.52 373.09 159.64 372.61 159.8C372.503 159.827 372.417 159.84 372.35 159.84C372.15 159.84 371.977 159.767 371.83 159.62C371.683 159.473 371.61 159.293 371.61 159.08C371.61 158.72 371.783 158.467 372.13 158.32C373.263 157.84 374.417 157.6 375.59 157.6C376.51 157.6 377.283 157.787 377.91 158.16C378.55 158.533 379.017 159.02 379.31 159.62C379.617 160.207 379.77 160.847 379.77 161.54V167.2C379.77 167.453 379.677 167.667 379.49 167.84C379.317 168.013 379.103 168.1 378.85 168.1C378.597 168.1 378.383 168.013 378.21 167.84C378.037 167.667 377.95 167.453 377.95 167.2V166.68C376.963 167.693 375.71 168.2 374.19 168.2ZM374.87 166.6C375.457 166.6 376.023 166.46 376.57 166.18C377.117 165.887 377.577 165.527 377.95 165.1V163.42H375.77C373.757 163.42 372.75 163.947 372.75 165C372.75 165.48 372.91 165.867 373.23 166.16C373.563 166.453 374.11 166.6 374.87 166.6ZM387.54 168.2C386.58 168.2 385.694 167.987 384.88 167.56C384.067 167.133 383.414 166.52 382.92 165.72C382.44 164.92 382.2 163.98 382.2 162.9C382.2 161.82 382.44 160.88 382.92 160.08C383.414 159.28 384.067 158.667 384.88 158.24C385.694 157.813 386.58 157.6 387.54 157.6C388.247 157.6 388.854 157.693 389.36 157.88C389.88 158.053 390.36 158.28 390.8 158.56C391.067 158.733 391.2 158.967 391.2 159.26C391.2 159.46 391.12 159.647 390.96 159.82C390.814 159.98 390.64 160.06 390.44 160.06C390.294 160.06 390.147 160.02 390 159.94C389.56 159.713 389.18 159.553 388.86 159.46C388.554 159.353 388.167 159.3 387.7 159.3C386.554 159.3 385.654 159.633 385 160.3C384.347 160.953 384.02 161.82 384.02 162.9C384.02 163.98 384.347 164.853 385 165.52C385.654 166.173 386.554 166.5 387.7 166.5C388.167 166.5 388.554 166.453 388.86 166.36C389.18 166.253 389.56 166.087 390 165.86C390.147 165.78 390.294 165.74 390.44 165.74C390.64 165.74 390.814 165.827 390.96 166C391.12 166.16 391.2 166.34 391.2 166.54C391.2 166.833 391.067 167.067 390.8 167.24C390.36 167.52 389.88 167.753 389.36 167.94C388.854 168.113 388.247 168.2 387.54 168.2ZM397.004 168.2C395.058 168.2 394.084 167.32 394.084 165.56V159.36H392.664C392.558 159.36 392.464 159.327 392.384 159.26C392.318 159.18 392.284 159.087 392.284 158.98C392.284 158.847 392.344 158.733 392.464 158.64L395.184 155.98C395.304 155.86 395.418 155.8 395.524 155.8C395.631 155.8 395.718 155.84 395.784 155.92C395.864 156 395.904 156.093 395.904 156.2V157.8H398.164C398.391 157.8 398.578 157.873 398.724 158.02C398.871 158.167 398.944 158.353 398.944 158.58C398.944 158.793 398.871 158.98 398.724 159.14C398.578 159.287 398.391 159.36 398.164 159.36H395.904V165.4C395.904 165.92 396.024 166.253 396.264 166.4C396.518 166.533 396.831 166.6 397.204 166.6C397.471 166.6 397.738 166.56 398.004 166.48C398.058 166.467 398.111 166.453 398.164 166.44C398.231 166.427 398.311 166.42 398.404 166.42C398.591 166.42 398.758 166.493 398.904 166.64C399.051 166.773 399.124 166.94 399.124 167.14C399.124 167.447 398.971 167.68 398.664 167.84C398.144 168.08 397.591 168.2 397.004 168.2ZM402.901 168.2C401.928 168.2 401.041 167.973 400.241 167.52C399.948 167.347 399.801 167.1 399.801 166.78C399.801 166.567 399.868 166.38 400.001 166.22C400.148 166.047 400.335 165.96 400.561 165.96C400.695 165.96 400.815 165.987 400.921 166.04C401.535 166.333 402.155 166.48 402.781 166.48C403.501 166.48 404.081 166.273 404.521 165.86C404.975 165.447 405.201 164.667 405.201 163.52V154.86C405.201 154.607 405.288 154.393 405.461 154.22C405.635 154.033 405.848 153.94 406.101 153.94C406.355 153.94 406.568 154.033 406.741 154.22C406.928 154.393 407.021 154.607 407.021 154.86V163.4C407.021 165.147 406.628 166.387 405.841 167.12C405.068 167.84 404.088 168.2 402.901 168.2ZM415.198 168.2C413.504 168.2 411.918 167.88 410.438 167.24C410.278 167.173 410.144 167.067 410.038 166.92C409.931 166.76 409.878 166.593 409.878 166.42C409.878 166.193 409.951 166 410.098 165.84C410.258 165.667 410.458 165.58 410.698 165.58C410.831 165.58 410.958 165.607 411.078 165.66C412.304 166.207 413.618 166.48 415.018 166.48C417.351 166.48 418.518 165.713 418.518 164.18C418.518 163.78 418.364 163.447 418.058 163.18C417.764 162.913 417.398 162.707 416.958 162.56C416.518 162.4 415.891 162.213 415.078 162C413.998 161.72 413.124 161.453 412.458 161.2C411.791 160.933 411.218 160.54 410.738 160.02C410.258 159.5 410.018 158.807 410.018 157.94C410.018 157.18 410.218 156.493 410.618 155.88C411.018 155.253 411.604 154.76 412.378 154.4C413.164 154.027 414.104 153.84 415.198 153.84C416.664 153.84 417.991 154.06 419.178 154.5C419.551 154.633 419.738 154.9 419.738 155.3C419.738 155.513 419.664 155.707 419.518 155.88C419.371 156.053 419.178 156.14 418.938 156.14C418.858 156.14 418.751 156.113 418.618 156.06C417.578 155.7 416.504 155.52 415.398 155.52C414.344 155.52 413.484 155.72 412.818 156.12C412.164 156.52 411.838 157.08 411.838 157.8C411.838 158.28 411.991 158.673 412.298 158.98C412.618 159.273 413.011 159.507 413.478 159.68C413.958 159.84 414.604 160.013 415.418 160.2C416.471 160.453 417.318 160.707 417.958 160.96C418.611 161.213 419.164 161.607 419.618 162.14C420.084 162.673 420.318 163.393 420.318 164.3C420.318 165.047 420.104 165.72 419.678 166.32C419.251 166.907 418.651 167.367 417.878 167.7C417.104 168.033 416.211 168.2 415.198 168.2Z" fill="#21C3F7"/>
<path id="&#38;more" d="M351.283 213.2C350.163 213.2 349.236 213.007 348.503 212.62C347.769 212.22 347.229 211.707 346.883 211.08C346.549 210.453 346.383 209.787 346.383 209.08C346.383 208.173 346.616 207.4 347.083 206.76C347.563 206.107 348.083 205.6 348.643 205.24C348.243 204.76 347.936 204.3 347.723 203.86C347.523 203.42 347.423 202.913 347.423 202.34C347.423 201.7 347.569 201.113 347.863 200.58C348.169 200.047 348.603 199.627 349.163 199.32C349.736 199 350.403 198.84 351.163 198.84C352.056 198.84 352.943 199.133 353.823 199.72C353.916 199.773 353.996 199.86 354.063 199.98C354.143 200.087 354.183 200.2 354.183 200.32C354.183 200.507 354.116 200.673 353.983 200.82C353.849 200.953 353.683 201.02 353.483 201.02C353.376 201.02 353.256 200.987 353.123 200.92C352.483 200.573 351.856 200.4 351.243 200.4C350.576 200.4 350.049 200.587 349.663 200.96C349.289 201.32 349.103 201.747 349.103 202.24C349.103 202.627 349.163 202.967 349.283 203.26C349.416 203.553 349.609 203.84 349.863 204.12C350.116 204.4 350.529 204.807 351.103 205.34L355.283 209.28C355.469 209.013 355.689 208.607 355.943 208.06C356.009 207.913 356.109 207.793 356.243 207.7C356.389 207.607 356.549 207.56 356.723 207.56C356.963 207.56 357.163 207.64 357.323 207.8C357.483 207.947 357.563 208.14 357.563 208.38C357.563 208.513 357.529 208.647 357.463 208.78C357.196 209.353 356.876 209.9 356.503 210.42L357.843 211.7C357.949 211.793 358.029 211.887 358.083 211.98C358.136 212.073 358.163 212.193 358.163 212.34C358.163 212.567 358.089 212.76 357.943 212.92C357.796 213.08 357.596 213.16 357.343 213.16C357.103 213.16 356.896 213.08 356.723 212.92L355.383 211.64C354.809 212.12 354.176 212.5 353.483 212.78C352.789 213.06 352.056 213.2 351.283 213.2ZM351.123 211.66C352.256 211.66 353.283 211.287 354.203 210.54L349.743 206.36C349.289 206.653 348.903 207.033 348.583 207.5C348.263 207.967 348.103 208.513 348.103 209.14C348.103 209.873 348.389 210.48 348.963 210.96C349.549 211.427 350.269 211.66 351.123 211.66ZM362.091 213.1C361.838 213.1 361.624 213.013 361.451 212.84C361.278 212.667 361.191 212.453 361.191 212.2V203.62C361.191 203.367 361.278 203.153 361.451 202.98C361.624 202.793 361.838 202.7 362.091 202.7C362.344 202.7 362.558 202.793 362.731 202.98C362.918 203.153 363.011 203.367 363.011 203.62V204.44C363.384 203.907 363.831 203.467 364.351 203.12C364.884 202.773 365.571 202.6 366.411 202.6C367.158 202.6 367.798 202.8 368.331 203.2C368.864 203.6 369.244 204.087 369.471 204.66C370.298 203.287 371.524 202.6 373.151 202.6C373.898 202.6 374.518 202.787 375.011 203.16C375.518 203.533 375.891 204.013 376.131 204.6C376.371 205.187 376.491 205.8 376.491 206.44V212.2C376.491 212.453 376.398 212.667 376.211 212.84C376.038 213.013 375.824 213.1 375.571 213.1C375.318 213.1 375.104 213.013 374.931 212.84C374.758 212.667 374.671 212.453 374.671 212.2V206.8C374.671 205.933 374.518 205.3 374.211 204.9C373.904 204.487 373.378 204.28 372.631 204.28C371.951 204.28 371.384 204.46 370.931 204.82C370.491 205.167 370.098 205.627 369.751 206.2V212.2C369.751 212.453 369.658 212.667 369.471 212.84C369.298 213.013 369.084 213.1 368.831 213.1C368.578 213.1 368.364 213.013 368.191 212.84C368.018 212.667 367.931 212.453 367.931 212.2V206.8C367.931 205.933 367.778 205.3 367.471 204.9C367.164 204.487 366.638 204.28 365.891 204.28C365.211 204.28 364.644 204.46 364.191 204.82C363.751 205.167 363.358 205.627 363.011 206.2V212.2C363.011 212.453 362.918 212.667 362.731 212.84C362.558 213.013 362.344 213.1 362.091 213.1ZM384.05 213.2C383.024 213.2 382.124 212.98 381.35 212.54C380.577 212.1 379.977 211.48 379.55 210.68C379.137 209.867 378.93 208.94 378.93 207.9C378.93 206.86 379.137 205.94 379.55 205.14C379.977 204.327 380.577 203.7 381.35 203.26C382.124 202.82 383.024 202.6 384.05 202.6C385.064 202.6 385.957 202.82 386.73 203.26C387.504 203.7 388.104 204.327 388.53 205.14C388.957 205.94 389.17 206.86 389.17 207.9C389.17 208.94 388.957 209.867 388.53 210.68C388.104 211.48 387.504 212.1 386.73 212.54C385.957 212.98 385.064 213.2 384.05 213.2ZM384.05 211.54C384.597 211.54 385.117 211.413 385.61 211.16C386.117 210.907 386.53 210.507 386.85 209.96C387.184 209.413 387.35 208.72 387.35 207.88C387.35 207.053 387.184 206.367 386.85 205.82C386.53 205.273 386.117 204.88 385.61 204.64C385.117 204.387 384.597 204.26 384.05 204.26C383.49 204.26 382.957 204.387 382.45 204.64C381.957 204.88 381.55 205.273 381.23 205.82C380.91 206.367 380.75 207.053 380.75 207.88C380.75 208.72 380.91 209.413 381.23 209.96C381.55 210.507 381.957 210.907 382.45 211.16C382.957 211.413 383.49 211.54 384.05 211.54ZM392.618 213.1C392.365 213.1 392.152 213.013 391.978 212.84C391.805 212.667 391.718 212.453 391.718 212.2V203.62C391.718 203.367 391.805 203.153 391.978 202.98C392.152 202.793 392.365 202.7 392.618 202.7C392.872 202.7 393.085 202.793 393.258 202.98C393.445 203.153 393.538 203.367 393.538 203.62V204.48C394.472 203.227 395.518 202.6 396.678 202.6H396.778C397.032 202.6 397.238 202.687 397.398 202.86C397.572 203.033 397.658 203.247 397.658 203.5C397.658 203.753 397.572 203.96 397.398 204.12C397.225 204.28 397.005 204.36 396.738 204.36H396.638C395.998 204.36 395.412 204.52 394.878 204.84C394.345 205.147 393.898 205.573 393.538 206.12V212.2C393.538 212.453 393.445 212.667 393.258 212.84C393.085 213.013 392.872 213.1 392.618 213.1ZM403.642 213.2C402.015 213.2 400.742 212.74 399.822 211.82C398.915 210.887 398.462 209.58 398.462 207.9C398.462 206.953 398.635 206.08 398.982 205.28C399.328 204.48 399.862 203.833 400.582 203.34C401.302 202.847 402.188 202.6 403.242 202.6C404.228 202.6 405.082 202.833 405.802 203.3C406.522 203.753 407.068 204.367 407.442 205.14C407.815 205.9 408.002 206.733 408.002 207.64C408.002 207.893 407.915 208.107 407.742 208.28C407.582 208.453 407.362 208.54 407.082 208.54H400.302C400.408 209.473 400.755 210.2 401.342 210.72C401.928 211.24 402.748 211.5 403.802 211.5C404.362 211.5 404.848 211.447 405.262 211.34C405.688 211.233 406.102 211.08 406.502 210.88C406.608 210.827 406.728 210.8 406.862 210.8C407.075 210.8 407.262 210.873 407.422 211.02C407.582 211.167 407.662 211.353 407.662 211.58C407.662 211.873 407.488 212.12 407.142 212.32C406.622 212.613 406.108 212.833 405.602 212.98C405.095 213.127 404.442 213.2 403.642 213.2ZM406.202 207.06C406.162 206.407 405.988 205.86 405.682 205.42C405.388 204.98 405.022 204.66 404.582 204.46C404.142 204.247 403.695 204.14 403.242 204.14C402.788 204.14 402.342 204.247 401.902 204.46C401.462 204.66 401.095 204.98 400.802 205.42C400.508 205.86 400.342 206.407 400.302 207.06H406.202Z" fill="#D9D9D9"/>
<rect id="Rectangle 936" x="192.047" y="23.5459" width="19.2046" height="2.77011" rx="1" fill="#D9D9D9" fill-opacity="0.8"/>
<rect id="Rectangle 939" x="64.4727" y="23.5459" width="19.2046" height="2.77011" rx="1" fill="#D9D9D9" fill-opacity="0.8"/>
<rect id="Rectangle 937" x="216.738" y="23.5459" width="19.2046" height="2.77011" rx="1" fill="#D9D9D9" fill-opacity="0.8"/>
<rect id="Rectangle 940" x="89.1641" y="23.5459" width="19.2046" height="2.77011" rx="1" fill="#D9D9D9" fill-opacity="0.8"/>
<rect id="Rectangle 938" x="241.43" y="23.5459" width="19.2046" height="2.77011" rx="1" fill="#D9D9D9" fill-opacity="0.8"/>
<rect id="Rectangle 941" x="113.855" y="23.5459" width="19.2046" height="2.77011" rx="1" fill="#D9D9D9" fill-opacity="0.8"/>
</g>
</svg>
