<svg width="104" height="104" viewBox="0 0 104 104" fill="none" xmlns="http://www.w3.org/2000/svg">
<g id="XMLID_106_">
<path id="XMLID_107_" d="M3.67447 2C2.6315 2 1.85439 2.74896 1.94693 3.66436L10.7398 90.5741C10.8323 91.4895 11.73 92.4397 12.7354 92.6856L50.0476 101.815C51.0527 102.061 52.6972 102.061 53.7026 101.816L91.1282 92.6713C92.1332 92.4256 93.0321 91.4755 93.1246 90.5604L101.932 3.66436C102.025 2.74896 101.247 2 100.204 2H3.67447ZM83.2065 21.9325C83.1235 22.749 82.9797 24.1663 82.8872 25.0817L82.6555 27.362C82.5622 28.2771 82.4294 29.5859 82.3593 30.27C82.2895 30.9544 82.2231 31.5142 82.211 31.5142C82.1992 31.5142 81.336 31.5142 80.2931 31.5142H53.8357C52.7927 31.5142 51.9307 31.5142 51.9193 31.5142C51.9079 31.5142 51.0451 31.5142 50.0021 31.5142H36.068C35.0251 31.5142 34.2479 32.2632 34.3405 33.1786L35.1532 41.1845C35.2458 42.0996 36.1754 42.8489 37.2183 42.8489H50.0025C51.0455 42.8489 51.9083 42.8489 51.9197 42.8489C51.9311 42.8489 52.7931 42.8489 53.8361 42.8489H75.8102C76.8531 42.8489 78.4673 42.8489 79.3969 42.8489C80.3257 42.8489 81.0174 43.517 80.9332 44.3334C80.8487 45.1499 80.7042 46.5676 80.6116 47.4827L77.9981 73.2929C77.9048 74.2083 77.7869 75.3777 77.7361 75.8917C77.6841 76.4054 76.8198 77.0267 75.8147 77.2723L53.7671 82.6594C52.762 82.9047 51.9269 83.1079 51.9113 83.1109C51.8958 83.1139 51.061 82.9151 50.0556 82.6694L27.9844 77.2726C26.9794 77.027 26.0813 76.0768 25.9887 75.1614L24.568 61.1097C24.4755 60.1943 25.2534 59.4453 26.2963 59.4453H28.3106C29.3536 59.4453 31.0602 59.4453 32.1032 59.4453H35.107C36.1499 59.4453 37.0788 60.1943 37.1721 61.1097L37.7292 66.6104C37.8217 67.5258 38.721 68.4706 39.7283 68.7102L50.0522 71.167C51.0587 71.4066 51.8863 71.6028 51.8909 71.6028C51.8954 71.6028 52.7226 71.4063 53.7295 71.1667L64.072 68.7039C65.0786 68.4643 65.9785 67.5191 66.0718 66.604L67.1933 55.5832C67.2866 54.6678 66.5095 53.9189 65.4665 53.9189H53.8361C52.7931 53.9189 51.9311 53.9189 51.9197 53.9189C51.9083 53.9189 51.0455 53.9189 50.0025 53.9189H25.7339C24.6909 53.9189 23.7621 53.1696 23.6696 52.2545L20.9176 25.0814C20.8251 24.166 20.6814 22.749 20.5983 21.9322C20.516 21.1157 21.3014 20.4476 22.3444 20.4476H50.0025C51.0455 20.4476 51.9083 20.4476 51.9197 20.4476C51.9311 20.4476 52.7931 20.4476 53.8361 20.4476H81.4608C82.5034 20.4476 83.2892 21.1157 83.2065 21.9325Z" stroke="#2D4059" stroke-width="3"/>
</g>
</svg>
