<svg width="50" height="50" viewBox="0 0 50 50" fill="none" xmlns="http://www.w3.org/2000/svg">
<path d="M11.0189 8.12853C9.26418 7.56774 8.46641 9.38417 9.55971 14.4428C9.88595 15.9523 9.69921 17.5268 9.09067 18.9461C5.57087 27.1559 6.88783 35.5115 10.1377 39.4858C13.6744 43.811 34.8163 44.8922 39.216 38.4046C43.335 32.3309 42.3312 25.5187 39.762 18.2675C39.415 17.288 39.3124 16.2398 39.4343 15.2078C39.5561 14.1773 39.6138 13.2667 39.6084 12.3519C39.5936 9.81736 37.5941 7.31753 35.4243 8.62761C33.0575 10.0567 30.3294 11.6806 27.6133 11.1644C25.4653 10.7563 23.5425 10.7409 21.433 11.0921C18.4425 11.59 15.6166 9.74946 12.7805 8.6783C12.2251 8.46855 11.6449 8.32861 11.0189 8.12853Z" stroke="#F89406" stroke-width="2"/>
<path d="M33.3324 21.1382C27.6854 23.2335 22.2163 23.567 15.1257 21.1382C9.48106 19.2042 8.52158 35.1156 15.1257 36.8529C23.2127 38.9799 27.2603 38.5063 34.2907 36.8529C42.0592 35.0258 38.2285 19.3215 33.3324 21.1382Z" stroke="#F89406" stroke-width="2"/>
<mask id="path-3-inside-1_1219_38" fill="white">
<ellipse cx="19.3365" cy="29.6258" rx="1.76232" ry="4.32515"/>
</mask>
<ellipse cx="19.3365" cy="29.6258" rx="1.76232" ry="4.32515" fill="#F89406"/>
<path d="M19.0989 29.6258C19.0989 30.627 18.9298 31.4404 18.7305 31.9295C18.6289 32.179 18.5582 32.2483 18.5821 32.2235C18.6115 32.1931 18.8666 31.951 19.3365 31.951V35.951C20.2931 35.951 21.0119 35.4668 21.4629 34.9986C21.9085 34.5361 22.2176 33.972 22.4348 33.4388C22.8734 32.3625 23.0989 31.0134 23.0989 29.6258H19.0989ZM19.3365 31.951C19.8064 31.951 20.0616 32.1931 20.0909 32.2235C20.1148 32.2483 20.0442 32.179 19.9425 31.9295C19.7433 31.4404 19.5742 30.627 19.5742 29.6258H15.5742C15.5742 31.0134 15.7997 32.3625 16.2382 33.4388C16.4555 33.972 16.7646 34.5361 17.2102 34.9986C17.6612 35.4668 18.38 35.951 19.3365 35.951V31.951ZM19.5742 29.6258C19.5742 28.6247 19.7433 27.8112 19.9425 27.3221C20.0442 27.0726 20.1148 27.0033 20.0909 27.0281C20.0616 27.0586 19.8064 27.3007 19.3365 27.3007V23.3007C18.38 23.3007 17.6612 23.7848 17.2102 24.253C16.7646 24.7155 16.4555 25.2796 16.2382 25.8128C15.7997 26.8891 15.5742 28.2382 15.5742 29.6258H19.5742ZM19.3365 27.3007C18.8666 27.3007 18.6115 27.0586 18.5821 27.0281C18.5582 27.0033 18.6289 27.0726 18.7305 27.3221C18.9298 27.8112 19.0989 28.6247 19.0989 29.6258H23.0989C23.0989 28.2382 22.8734 26.8891 22.4348 25.8128C22.2176 25.2796 21.9085 24.7155 21.4629 24.253C21.0119 23.7848 20.2931 23.3007 19.3365 23.3007V27.3007Z" fill="#F89406" mask="url(#path-3-inside-1_1219_38)"/>
<mask id="path-5-inside-2_1219_38" fill="white">
<ellipse cx="29.9108" cy="29.6258" rx="1.76232" ry="4.32515"/>
</mask>
<ellipse cx="29.9108" cy="29.6258" rx="1.76232" ry="4.32515" fill="#F89406"/>
<path d="M29.6731 29.6258C29.6731 30.627 29.504 31.4404 29.3048 31.9295C29.2031 32.179 29.1325 32.2483 29.1564 32.2235C29.1857 32.1931 29.4409 31.951 29.9108 31.951V35.951C30.8673 35.951 31.5861 35.4668 32.0371 34.9986C32.4827 34.5361 32.7918 33.972 33.0091 33.4388C33.4476 32.3625 33.6731 31.0134 33.6731 29.6258H29.6731ZM29.9108 31.951C30.3807 31.951 30.6358 32.1931 30.6652 32.2235C30.6891 32.2483 30.6184 32.179 30.5168 31.9295C30.3175 31.4404 30.1484 30.627 30.1484 29.6258H26.1484C26.1484 31.0134 26.3739 32.3625 26.8125 33.4388C27.0297 33.972 27.3388 34.5361 27.7844 34.9986C28.2354 35.4668 28.9542 35.951 29.9108 35.951V31.951ZM30.1484 29.6258C30.1484 28.6247 30.3175 27.8112 30.5168 27.3221C30.6184 27.0726 30.6891 27.0033 30.6652 27.0281C30.6358 27.0586 30.3807 27.3007 29.9108 27.3007V23.3007C28.9542 23.3007 28.2354 23.7848 27.7844 24.253C27.3388 24.7155 27.0297 25.2796 26.8125 25.8128C26.3739 26.8891 26.1484 28.2382 26.1484 29.6258H30.1484ZM29.9108 27.3007C29.4409 27.3007 29.1857 27.0586 29.1564 27.0281C29.1325 27.0033 29.2031 27.0726 29.3048 27.3221C29.504 27.8112 29.6731 28.6247 29.6731 29.6258H33.6731C33.6731 28.2382 33.4476 26.8891 33.0091 25.8128C32.7918 25.2796 32.4827 24.7155 32.0371 24.253C31.5861 23.7848 30.8673 23.3007 29.9108 23.3007V27.3007Z" fill="#F89406" mask="url(#path-5-inside-2_1219_38)"/>
<rect x="1" y="1" width="48" height="48" rx="5" stroke="#F89406" stroke-width="2"/>
</svg>
