<svg width="30" height="30" viewBox="0 0 30 30" fill="none" xmlns="http://www.w3.org/2000/svg">
<g id="instagram">
<path id="Vector" d="M21.25 2.5H8.75C5.29822 2.5 2.5 5.29822 2.5 8.75V21.25C2.5 24.7018 5.29822 27.5 8.75 27.5H21.25C24.7018 27.5 27.5 24.7018 27.5 21.25V8.75C27.5 5.29822 24.7018 2.5 21.25 2.5Z" stroke="#F89406" stroke-width="2" stroke-linecap="round" stroke-linejoin="round"/>
<path id="Vector_2" d="M20.0006 14.2125C20.1549 15.2528 19.9772 16.3153 19.4928 17.2488C19.0084 18.1823 18.242 18.9393 17.3026 19.4121C16.3632 19.8849 15.2987 20.0495 14.2603 19.8824C13.222 19.7153 12.2628 19.2251 11.5192 18.4815C10.7755 17.7378 10.2853 16.7786 10.1182 15.7403C9.95111 14.702 10.1157 13.6374 10.5885 12.698C11.0613 11.7586 11.8183 10.9922 12.7518 10.5078C13.6853 10.0234 14.7478 9.84575 15.7881 10C16.8493 10.1574 17.8317 10.6518 18.5902 11.4104C19.3488 12.1689 19.8433 13.1514 20.0006 14.2125Z" stroke="#F89406" stroke-width="2" stroke-linecap="round" stroke-linejoin="round"/>
<path id="Vector_3" d="M21.875 8.125H21.8875" stroke="#F89406" stroke-width="2" stroke-linecap="round" stroke-linejoin="round"/>
</g>
</svg>
