<svg width="50" height="50" viewBox="0 0 50 50" fill="none" xmlns="http://www.w3.org/2000/svg">
<path d="M25.5446 19.4279C25.8171 19.4406 26.0602 19.4524 26.2641 19.4625L26.5484 20.3155C26.658 20.6443 26.93 20.8929 27.2673 20.9726C27.6046 21.0522 27.9591 20.9515 28.2042 20.7064L29.4113 19.4993H35.4971C37.6102 19.4993 39.0388 19.9682 40.0229 21.0015C41.0369 22.0661 41.7566 23.9114 42 27.076C42.2462 30.277 42.2471 34.1135 42.1848 37.1664C42.1537 38.6893 42.1071 40.0103 42.0682 40.9502C42.0599 41.1513 42.052 41.335 42.0446 41.4993H34.0309C34.0414 41.1686 34.0538 40.7694 34.067 40.3176C34.1061 38.9792 34.1531 37.178 34.1844 35.3288C34.2157 33.4814 34.2316 31.5782 34.2079 30.0386C34.1961 29.2699 34.1743 28.5814 34.1385 28.0312C34.1059 27.5289 34.0561 27.0141 33.9458 26.6831C33.6655 25.8422 32.8588 25.4207 32.2433 25.2096C31.5653 24.9772 30.7626 24.8743 29.9971 24.8743C29.2316 24.8743 28.4289 24.9772 27.7509 25.2096C27.1353 25.4207 26.3287 25.8422 26.0484 26.6831C25.9381 27.0141 25.8882 27.5289 25.8556 28.0312C25.8199 28.5814 25.7981 29.2699 25.7863 30.0386C25.7626 31.5782 25.7784 33.4814 25.8097 35.3288C25.8411 37.178 25.8881 38.9792 25.9272 40.3176C25.9404 40.7694 25.9527 41.1686 25.9632 41.4993H18.9971V19.3053C19.1251 19.2983 19.27 19.2925 19.4311 19.288C20.246 19.2654 21.3484 19.2803 22.4693 19.3114C23.5859 19.3425 24.7043 19.389 25.5446 19.4279ZM15.4971 41.4993H8.49707V19.4993H15.4971V41.4993Z" stroke="#F89406" stroke-width="2" stroke-linejoin="round"/>
<path d="M16 12.5C16 14.3365 14.3109 16 12 16C9.68915 16 8 14.3365 8 12.5C8 10.6635 9.68915 9 12 9C14.3109 9 16 10.6635 16 12.5Z" stroke="#F89406" stroke-width="2" stroke-linejoin="round"/>
<rect x="1" y="1" width="48" height="48" rx="5" stroke="#F89406" stroke-width="2"/>
</svg>
