<svg width="50" height="50" viewBox="0 0 50 50" fill="none" xmlns="http://www.w3.org/2000/svg">
<g id="linkedin">
<path id="linkedin-logo" d="M15.0769 42H7.38462V18.9459H15.0769V42ZM11.2308 15.5223C8.89615 15.5223 7 13.6165 7 11.2612C7 8.90965 8.89231 7 11.2308 7C13.5692 7 15.4615 8.90965 15.4615 11.2612C15.4615 13.6165 13.5654 15.5223 11.2308 15.5223ZM42 42H34.3154V31.007C34.3154 23.7796 26.6154 24.3905 26.6154 31.007V42H18.9231V18.9459H26.6154V23.1456C29.9692 16.9363 42 16.4752 42 29.0935V42Z" stroke="#2D4059" stroke-width="1.2"/>
<rect id="moldura" x="0.6" y="0.6" width="48.8" height="48.8" rx="2.4" stroke="#2D4059" stroke-width="1.2"/>
</g>
</svg>
