<svg width="50" height="50" viewBox="0 0 50 50" fill="none" xmlns="http://www.w3.org/2000/svg">
<g id="email">
<path id="Vector" d="M36.5052 38.4798C34.0477 39.8322 30.2742 41.4 24.56 41.4C18.9966 41.4 14.7704 39.6143 11.9355 36.7335C9.09747 33.8496 7.6 29.8138 7.6 25.216C7.6 20.3016 9.28615 15.9069 12.4479 12.7423C15.6071 9.58027 20.2862 7.6 26.36 7.6C35.1378 7.6 41.4 13.4413 41.4 21.4249C41.4 27.7135 37.7922 31.6409 34.3271 33.1192C32.5781 33.8654 30.9387 33.9592 29.8298 33.5168C29.286 33.2998 28.8724 32.9571 28.6079 32.4949C28.3421 32.0303 28.2006 31.3987 28.2845 30.5633L27.1778 30.1867C26.1928 31.7726 24.6854 33.4394 21.7775 33.4394C20.1074 33.4394 18.7957 32.8164 17.8902 31.7178C16.9737 30.6059 16.4275 28.9494 16.4275 26.8179C16.4275 23.6021 17.4542 20.6511 19.0669 18.5161C20.6815 16.3786 22.846 15.0996 25.1325 15.0996C27.291 15.0996 28.7291 16.2454 29.3426 18.0299L29.9724 19.8618L30.4883 17.9946L31.0442 15.983H33.2121C32.8695 17.2582 32.216 19.7337 31.5916 22.106C31.1907 23.6296 30.8008 25.1139 30.5111 26.2174L30.163 27.5443L30.0662 27.9134L30.0408 28.0104L30.0343 28.0352L30.0327 28.0415L30.0322 28.0431L30.0321 28.0435C30.0321 28.0436 30.0321 28.0436 30.6125 28.1957L30.0321 28.0436L30.0302 28.0508L30.0285 28.0579C29.7796 29.113 29.7621 29.9941 29.993 30.68C30.2354 31.4003 30.7422 31.868 31.4085 32.048C32.039 32.2183 32.7507 32.1163 33.4384 31.8619C34.1336 31.6047 34.8564 31.1732 35.5428 30.6089C38.1562 28.5202 39.4739 24.8104 39.3176 21.1287C39.1606 17.4305 37.5125 13.6384 34.0351 11.3967L34.0352 11.3966L34.0254 11.3906C30.3222 9.10276 24.359 8.69833 19.3308 10.7268C14.2486 12.7771 10.075 17.3331 10.075 24.961C10.075 29.3175 11.5659 33.0023 14.2059 35.5984C16.845 38.1937 20.5867 39.6563 25.0075 39.6563C29.8393 39.6563 32.9357 38.3845 35.4645 36.9333L36.5052 38.4798ZM22.2918 31.8798C24.2169 31.9391 26.3051 30.4431 27.6228 27.7793C28.6979 25.6145 29.395 22.8534 29.395 20.709C29.395 19.496 29.0409 18.481 28.4166 17.7435C27.791 17.0045 26.9232 16.5801 25.973 16.5074C24.0698 16.3617 21.9629 17.6093 20.6119 20.2327C19.5308 22.3189 18.8275 25.0214 18.8275 27.1527C18.8275 28.5978 19.169 29.7577 19.7912 30.578C20.4226 31.4103 21.3128 31.8497 22.2918 31.8798Z" stroke="#F89406" stroke-opacity="0.8" stroke-width="1.2"/>
<rect id="email-logo" x="0.6" y="0.6" width="48.8" height="48.8" rx="2.4" stroke="#F89406" stroke-opacity="0.8" stroke-width="1.2"/>
</g>
</svg>
