<svg width="50" height="50" viewBox="0 0 50 50" fill="none" xmlns="http://www.w3.org/2000/svg">
<g id="github">
<rect id="moldura" x="0.6" y="0.6" width="48.8" height="48.8" rx="2.4" stroke="#F89406" stroke-opacity="0.8" stroke-width="1.2"/>
<path id="github-logo" d="M30.045 41.9665C29.16 42.1434 28.875 41.5846 28.875 41.1052V36.1811C28.875 34.5072 28.3025 33.4152 27.6725 32.859C31.5725 32.4155 35.6675 30.898 35.6675 24.0052C35.6675 22.0442 34.985 20.4447 33.865 19.1887C34.045 18.735 34.645 16.9099 33.6925 14.4388C33.6925 14.4388 32.225 13.9569 28.885 16.2767C27.4825 15.882 25.9875 15.6846 24.5 15.6769C23.0125 15.6846 21.5175 15.882 20.1175 16.2793C16.775 13.9595 15.305 14.4414 15.305 14.4414C14.3575 16.9124 14.955 18.7375 15.1375 19.1887C14.0175 20.4447 13.3325 22.0442 13.3325 24.0052C13.3325 30.8801 17.4175 32.4181 21.305 32.8718C20.805 33.3204 20.3525 34.1099 20.195 35.2711C19.195 35.7299 16.6625 36.522 15.1025 33.7792C15.1025 33.7792 14.1775 32.0567 12.42 31.9285C12.42 31.9285 10.7125 31.9054 12.3 33.0205C12.3 33.0205 13.45 33.5716 14.2425 35.6453C14.2425 35.6453 15.255 38.8495 20.125 37.7626V41.1027C20.125 41.5769 19.8425 42.1331 18.97 41.9665C12.015 39.5954 7 32.8692 7 24.9434C7 15.0309 14.8375 7 24.5 7C34.1625 7 42 15.0309 42 24.9434C42 32.8667 36.9925 39.5929 30.045 41.9665Z" stroke="#F89406" stroke-opacity="0.8" stroke-width="1.2"/>
</g>
</svg>
