<svg width="20" height="17" viewBox="0 0 20 17" fill="none" xmlns="http://www.w3.org/2000/svg">
<g id="Group 103">
<g id="Group">
<g id="Group_2">
<g id="Group_3">
<path id="Vector" d="M6.09766 12.1412L3.85766 13.9832C3.78797 14.0405 3.75266 14.1203 3.76133 14.2011C3.77 14.282 3.82199 14.3554 3.90301 14.4021C4.17266 14.5561 4.33336 14.808 4.33336 15.0761C4.33336 15.5295 3.88469 15.8984 3.33336 15.8984C2.78203 15.8984 2.33336 15.5295 2.33336 15.0761C2.33336 15.0007 2.35004 14.922 2.38602 14.8285C2.42367 14.731 2.39203 14.6243 2.30402 14.5517C2.21602 14.4796 2.08668 14.4535 1.96734 14.4845C1.85402 14.5141 1.75867 14.5278 1.66668 14.5278C1.11535 14.5278 0.66668 14.1589 0.66668 13.7055C0.66668 13.2521 1.11535 12.8831 1.66668 12.8831C1.99234 12.8831 2.29867 13.0156 2.48633 13.237C2.54301 13.3037 2.63234 13.3464 2.73066 13.3535C2.82898 13.3598 2.92598 13.3316 2.99566 13.2743L4.56898 11.9805C4.6993 11.8733 4.6993 11.7001 4.56898 11.5929C4.43863 11.4858 4.22797 11.4858 4.09766 11.5929L2.77301 12.6822C2.47102 12.4611 2.07801 12.335 1.66668 12.335C0.747656 12.335 0 12.9498 0 13.7055C0 14.4613 0.747656 15.0761 1.66668 15.0761C1.66668 15.8318 2.41434 16.4467 3.33336 16.4467C4.25234 16.4466 5 15.8318 5 15.0761C5 14.7378 4.84668 14.4146 4.57766 14.1663L6.56898 12.5288C6.6993 12.4216 6.6993 12.2483 6.56898 12.1412C6.43867 12.034 6.22801 12.034 6.09766 12.1412Z" fill="#F89406" fill-opacity="0.5"/>
<path id="Vector_2" d="M14.4021 3.8943L16.1421 2.46344C16.2118 2.40613 16.2471 2.32637 16.2384 2.24552C16.2294 2.16467 16.1777 2.0912 16.0967 2.04459C15.827 1.89054 15.6664 1.63863 15.6664 1.37057C15.6664 0.917193 16.115 0.548234 16.6664 0.548234C17.2177 0.548234 17.6664 0.917193 17.6664 1.37057C17.6664 1.44567 17.6497 1.52463 17.6134 1.6181C17.576 1.71595 17.6077 1.82231 17.6957 1.89497C17.784 1.96734 17.9137 1.99365 18.0324 1.96214C18.1454 1.93252 18.2411 1.91884 18.333 1.91884C18.8844 1.91884 19.333 2.28779 19.333 2.74117C19.333 3.19455 18.8844 3.56351 18.333 3.56351C18.0074 3.56351 17.7011 3.4311 17.5134 3.20961C17.4567 3.14299 17.3674 3.10052 17.2691 3.0931C17.1691 3.08626 17.0737 3.11504 17.0041 3.17232L15.2641 4.60315C15.1337 4.71031 15.1337 4.88358 15.2641 4.99074C15.3291 5.04419 15.4144 5.07104 15.4997 5.07104C15.5851 5.07104 15.6704 5.04419 15.7354 4.99074L17.2267 3.76437C17.5287 3.98556 17.9217 4.11168 18.333 4.11168C19.2521 4.11168 19.9997 3.49685 19.9997 2.74111C19.9997 1.98539 19.2521 1.37054 18.333 1.37054C18.333 0.614824 17.5854 0 16.6664 0C15.7474 0 14.9997 0.614824 14.9997 1.37057C14.9997 1.70882 15.153 2.032 15.4221 2.28034L13.9307 3.50671C13.8004 3.61391 13.8004 3.78714 13.9307 3.8943C14.0611 4.0015 14.2717 4.0015 14.4021 3.8943Z" fill="#F89406" fill-opacity="0.5"/>
<path id="Vector_3" d="M1.66668 4.11168C2.07801 4.11168 2.47102 3.98559 2.77301 3.76437L4.26434 4.99074C4.32934 5.04419 4.41469 5.07104 4.5 5.07104C4.58531 5.07104 4.67066 5.04419 4.73566 4.99074C4.86598 4.88355 4.86598 4.71031 4.73566 4.60315L2.99566 3.17229C2.92598 3.11498 2.82766 3.08649 2.73066 3.09307C2.63234 3.10046 2.54301 3.14296 2.48633 3.20958C2.29898 3.43132 1.99266 3.56347 1.66668 3.56347C1.11535 3.56347 0.66668 3.19451 0.66668 2.74114C0.66668 2.28776 1.11535 1.9188 1.66668 1.9188C1.75801 1.9188 1.85402 1.93252 1.9677 1.96239C2.08602 1.9931 2.2157 1.96734 2.30402 1.89468C2.39203 1.82231 2.42367 1.71569 2.38637 1.6181C2.35004 1.52463 2.33336 1.4457 2.33336 1.37057C2.33336 0.917193 2.78203 0.548234 3.33336 0.548234C3.88469 0.548234 4.33336 0.917193 4.33336 1.37057C4.33336 1.63866 4.1727 1.89057 3.90301 2.04459C3.82199 2.0912 3.77 2.16467 3.76133 2.24552C3.75266 2.32637 3.78801 2.40613 3.85766 2.46344L5.59766 3.8943C5.72797 4.00146 5.93867 4.00146 6.06898 3.8943C6.19934 3.78711 6.19934 3.61387 6.06898 3.50671L4.57766 2.28034C4.84668 2.032 5 1.70882 5 1.37057C5 0.614824 4.25234 0 3.33332 0C2.41434 0 1.66668 0.614824 1.66668 1.37057C0.747656 1.37057 0 1.98539 0 2.74111C0 3.49685 0.747656 4.11168 1.66668 4.11168Z" fill="#F89406" fill-opacity="0.5"/>
<path id="Vector_4" d="M12.0003 9.31982C12.7357 9.31982 13.3336 8.82806 13.3336 8.22339C13.3336 7.61868 12.7356 7.12695 12.0003 7.12695C11.265 7.12695 10.667 7.61868 10.667 8.22339C10.667 8.82809 11.265 9.31982 12.0003 9.31982ZM12.0003 7.67515C12.368 7.67515 12.667 7.92102 12.667 8.22339C12.667 8.52573 12.368 8.77162 12.0003 8.77162C11.6326 8.77162 11.3336 8.52576 11.3336 8.22339C11.3336 7.92105 11.6327 7.67515 12.0003 7.67515Z" fill="#F89406" fill-opacity="0.5"/>
<g id="Vector_5">
<mask id="path-5-inside-1_819_1402" fill="white">
<path d="M14.6667 11.5127C14.8297 11.5127 14.9687 11.4156 14.9954 11.2838L15.312 9.72273C15.7746 9.31291 16 8.82144 16 8.22332C16 5.50277 13.3083 3.28931 10 3.28931C6.69168 3.28931 4 5.50277 4 8.22332C4 8.81267 4.23133 9.31648 4.68832 9.7227L5.00465 11.2838C5.03133 11.4156 5.17031 11.5126 5.33332 11.5126H6.66664C6.93562 11.5126 6.99129 11.7462 7.00465 11.832L7.33797 13.4766C7.36465 13.6087 7.50363 13.7055 7.66664 13.7055H9.66664C9.85063 13.7055 9.99996 13.5827 9.99996 13.4314C9.99996 13.2801 9.85063 13.1573 9.66664 13.1573H9.33332V12.335C9.33332 12.1837 9.18398 12.0609 9 12.0609C8.81602 12.0609 8.66668 12.1837 8.66668 12.335V13.1573H7.94902L7.66504 11.7585C7.63039 11.4839 7.37672 10.9644 6.66672 10.9644H5.6157L5.32871 9.54863C5.31738 9.49244 5.28504 9.44034 5.2357 9.39977C4.8527 9.08536 4.66672 8.70053 4.66672 8.22328C4.66672 5.80507 7.05938 3.83751 10 3.83751C12.9407 3.83751 15.3333 5.80511 15.3333 8.22332C15.3333 8.8587 15.0087 9.19942 14.7643 9.3998C14.7154 9.44037 14.6827 9.49244 14.6713 9.54866L14.3843 10.9645H13.3333C12.6627 10.9645 12.3887 11.4746 12.338 11.7416L12.051 13.1574H11.3333V12.335C11.3333 12.1837 11.184 12.0609 11 12.0609C10.816 12.0609 10.6667 12.1837 10.6667 12.335V13.4314C10.6667 13.5827 10.816 13.7055 11 13.7055H12.3333C12.4963 13.7055 12.6353 13.6088 12.662 13.4767L12.9957 11.8312C13.0023 11.7985 13.07 11.5126 13.3333 11.5126H14.6667V11.5127Z"/>
</mask>
<path d="M14.6667 11.5127C14.8297 11.5127 14.9687 11.4156 14.9954 11.2838L15.312 9.72273C15.7746 9.31291 16 8.82144 16 8.22332C16 5.50277 13.3083 3.28931 10 3.28931C6.69168 3.28931 4 5.50277 4 8.22332C4 8.81267 4.23133 9.31648 4.68832 9.7227L5.00465 11.2838C5.03133 11.4156 5.17031 11.5126 5.33332 11.5126H6.66664C6.93562 11.5126 6.99129 11.7462 7.00465 11.832L7.33797 13.4766C7.36465 13.6087 7.50363 13.7055 7.66664 13.7055H9.66664C9.85063 13.7055 9.99996 13.5827 9.99996 13.4314C9.99996 13.2801 9.85063 13.1573 9.66664 13.1573H9.33332V12.335C9.33332 12.1837 9.18398 12.0609 9 12.0609C8.81602 12.0609 8.66668 12.1837 8.66668 12.335V13.1573H7.94902L7.66504 11.7585C7.63039 11.4839 7.37672 10.9644 6.66672 10.9644H5.6157L5.32871 9.54863C5.31738 9.49244 5.28504 9.44034 5.2357 9.39977C4.8527 9.08536 4.66672 8.70053 4.66672 8.22328C4.66672 5.80507 7.05938 3.83751 10 3.83751C12.9407 3.83751 15.3333 5.80511 15.3333 8.22332C15.3333 8.8587 15.0087 9.19942 14.7643 9.3998C14.7154 9.44037 14.6827 9.49244 14.6713 9.54866L14.3843 10.9645H13.3333C12.6627 10.9645 12.3887 11.4746 12.338 11.7416L12.051 13.1574H11.3333V12.335C11.3333 12.1837 11.184 12.0609 11 12.0609C10.816 12.0609 10.6667 12.1837 10.6667 12.335V13.4314C10.6667 13.5827 10.816 13.7055 11 13.7055H12.3333C12.4963 13.7055 12.6353 13.6088 12.662 13.4767L12.9957 11.8312C13.0023 11.7985 13.07 11.5126 13.3333 11.5126H14.6667V11.5127Z" fill="#F89406" fill-opacity="0.5"/>
<path d="M14.6667 11.5127H12.6667V13.5127H14.6667V11.5127ZM14.9954 11.2838L13.0353 10.8862L13.0351 10.8871L14.9954 11.2838ZM15.312 9.72273L13.9858 8.22567L13.485 8.66935L13.352 9.3251L15.312 9.72273ZM4.68832 9.7227L6.64848 9.3255L6.51592 8.67133L6.01706 8.22789L4.68832 9.7227ZM5.00465 11.2838L6.96491 10.887L6.96481 10.8866L5.00465 11.2838ZM7.00465 11.832L5.02846 12.1397L5.03546 12.1846L5.0445 12.2292L7.00465 11.832ZM7.33797 13.4766L9.2984 13.0807L9.29812 13.0794L7.33797 13.4766ZM9.33332 13.1573H7.33332V15.1573H9.33332V13.1573ZM8.66668 13.1573V15.1573H10.6667V13.1573H8.66668ZM7.94902 13.1573L5.98901 13.5552L6.31426 15.1573H7.94902V13.1573ZM7.66504 11.7585L5.68077 12.0089L5.69013 12.0831L5.70502 12.1564L7.66504 11.7585ZM5.6157 10.9644L3.65557 11.3618L3.98044 12.9644H5.6157V10.9644ZM5.32871 9.54863L3.36817 9.94393L3.36858 9.94596L5.32871 9.54863ZM5.2357 9.39977L6.50602 7.855L6.5047 7.85392L5.2357 9.39977ZM14.7643 9.3998L13.4961 7.85332L13.4886 7.85951L14.7643 9.3998ZM14.6713 9.54866L16.6315 9.94599L16.6319 9.94375L14.6713 9.54866ZM14.3843 10.9645V12.9645H16.0196L16.3445 11.3618L14.3843 10.9645ZM12.338 11.7416L14.2981 12.1389L14.3006 12.1268L14.3029 12.1147L12.338 11.7416ZM12.051 13.1574V15.1574H13.6862L14.0111 13.5547L12.051 13.1574ZM11.3333 13.1574H9.33332V15.1574H11.3333V13.1574ZM12.662 13.4767L10.7019 13.0792L10.7016 13.0808L12.662 13.4767ZM12.9957 11.8312L11.0364 11.4297L11.0356 11.4337L12.9957 11.8312ZM14.6667 11.5126H16.6667V9.51262H14.6667V11.5126ZM14.6667 13.5127C15.5042 13.5127 16.6901 12.9923 16.9556 11.6805L13.0351 10.8871C13.2472 9.83894 14.1552 9.51266 14.6667 9.51266V13.5127ZM16.9554 11.6814L17.2721 10.1204L13.352 9.3251L13.0353 10.8862L16.9554 11.6814ZM16.6382 11.2198C17.5135 10.4444 18 9.41474 18 8.22332H14C14 8.2467 13.9979 8.25275 13.9993 8.24578C14 8.24255 14.0013 8.2373 14.0035 8.23056C14.0057 8.22379 14.0084 8.2167 14.0117 8.2097C14.0149 8.20271 14.018 8.19696 14.0206 8.19269C14.0231 8.18845 14.0246 8.1866 14.0242 8.18716C14.0234 8.18808 14.0131 8.20149 13.9858 8.22567L16.6382 11.2198ZM18 8.22332C18 4.05006 14.0292 1.28931 10 1.28931V5.28931C12.5875 5.28931 14 6.95548 14 8.22332H18ZM10 1.28931C5.97084 1.28931 2 4.05006 2 8.22332H6C6 6.95548 7.41252 5.28931 10 5.28931V1.28931ZM2 8.22332C2 9.40802 2.49396 10.4481 3.35958 11.2175L6.01706 8.22789C5.99382 8.20723 5.98428 8.19501 5.98272 8.19295C5.98186 8.1918 5.98254 8.1926 5.98419 8.19534C5.98585 8.1981 5.98805 8.20211 5.99039 8.20723C5.99275 8.21236 5.99486 8.21773 5.99661 8.22304C5.99836 8.22834 5.99946 8.2327 6.0001 8.23571C6.00148 8.24229 6 8.23919 6 8.22332H2ZM2.72816 10.1199L3.04449 11.681L6.96481 10.8866L6.64848 9.3255L2.72816 10.1199ZM3.04439 11.6805C3.30987 12.9923 4.49581 13.5126 5.33332 13.5126V9.51262C5.84482 9.51262 6.75279 9.83891 6.96491 10.887L3.04439 11.6805ZM5.33332 13.5126H6.66664V9.51262H5.33332V13.5126ZM6.66664 13.5126C6.43394 13.5126 6.15796 13.4592 5.88462 13.3123C5.6159 13.168 5.42679 12.975 5.30233 12.8002C5.08169 12.4903 5.03826 12.2026 5.02846 12.1397L8.98084 11.5243C8.95768 11.3755 8.87974 10.9281 8.56068 10.48C8.16616 9.92598 7.49802 9.51262 6.66664 9.51262V13.5126ZM5.0445 12.2292L5.37782 13.8739L9.29812 13.0794L8.9648 11.4347L5.0445 12.2292ZM5.37754 13.8725C5.64298 15.187 6.83122 15.7055 7.66664 15.7055V11.7055C8.17605 11.7055 9.08632 12.0305 9.2984 13.0807L5.37754 13.8725ZM7.66664 15.7055H9.66664V11.7055H7.66664V15.7055ZM9.66664 15.7055C10.5715 15.7055 12 15.0354 12 13.4314H7.99996C7.99996 12.8122 8.31057 12.3447 8.63198 12.0804C8.94941 11.8194 9.32161 11.7055 9.66664 11.7055V15.7055ZM12 13.4314C12 11.8274 10.5715 11.1573 9.66664 11.1573V15.1573C9.32161 15.1573 8.94941 15.0434 8.63198 14.7824C8.31057 14.5181 7.99996 14.0505 7.99996 13.4314H12ZM9.66664 11.1573H9.33332V15.1573H9.66664V11.1573ZM11.3333 13.1573V12.335H7.33332V13.1573H11.3333ZM11.3333 12.335C11.3333 10.731 9.90482 10.0609 9 10.0609V14.0609C8.65497 14.0609 8.28277 13.947 7.96534 13.686C7.64393 13.4217 7.33332 12.9541 7.33332 12.335H11.3333ZM9 10.0609C8.09518 10.0609 6.66668 10.731 6.66668 12.335H10.6667C10.6667 12.9541 10.3561 13.4217 10.0347 13.686C9.71723 13.947 9.34503 14.0609 9 14.0609V10.0609ZM6.66668 12.335V13.1573H10.6667V12.335H6.66668ZM8.66668 11.1573H7.94902V15.1573H8.66668V11.1573ZM9.90904 12.7594L9.62505 11.3606L5.70502 12.1564L5.98901 13.5552L9.90904 12.7594ZM9.64931 11.5082C9.58434 10.9932 9.34911 10.3846 8.86687 9.8786C8.33026 9.3156 7.56493 8.96442 6.66672 8.96442V12.9644C6.59519 12.9644 6.47477 12.9502 6.33234 12.8894C6.1905 12.8288 6.06802 12.7397 5.97141 12.6384C5.80216 12.4608 5.71109 12.2492 5.68077 12.0089L9.64931 11.5082ZM6.66672 8.96442H5.6157V12.9644H6.66672V8.96442ZM7.57584 10.5671L7.28884 9.15129L3.36858 9.94596L3.65557 11.3618L7.57584 10.5671ZM7.28925 9.15332C7.17771 8.6001 6.87292 8.15672 6.50602 7.855L3.96539 10.9445C3.69716 10.724 3.45706 10.3848 3.36817 9.94393L7.28925 9.15332ZM6.5047 7.85392C6.50358 7.853 6.55867 7.89966 6.60813 8.00195C6.65878 8.10668 6.66672 8.19363 6.66672 8.22328H2.66672C2.66672 9.32461 3.14089 10.2677 3.9667 10.9456L6.5047 7.85392ZM6.66672 8.22328C6.66672 7.25778 7.78021 5.83751 10 5.83751V1.83751C6.33854 1.83751 2.66672 4.35237 2.66672 8.22328H6.66672ZM10 5.83751C12.2198 5.83751 13.3333 7.25778 13.3333 8.22332H17.3333C17.3333 4.35243 13.6616 1.83751 10 1.83751V5.83751ZM13.3333 8.22332C13.3333 8.20941 13.3354 8.17094 13.3505 8.11617C13.3656 8.06134 13.3889 8.00773 13.4172 7.95967C13.4717 7.86699 13.5255 7.82922 13.4961 7.85334L16.0326 10.9463C16.5147 10.5509 17.3333 9.69847 17.3333 8.22332H13.3333ZM13.4886 7.85951C13.132 8.15489 12.8234 8.59437 12.7107 9.15357L16.6319 9.94375C16.5419 10.3905 16.2987 10.7259 16.0401 10.9401L13.4886 7.85951ZM12.7112 9.15133L12.4242 10.5671L16.3445 11.3618L16.6315 9.94599L12.7112 9.15133ZM14.3843 8.96446H13.3333V12.9645H14.3843V8.96446ZM13.3333 8.96446C11.3747 8.96446 10.534 10.5208 10.3731 11.3684L14.3029 12.1147C14.2615 12.3326 14.1733 12.5091 14.0272 12.6572C13.942 12.7436 13.8299 12.8263 13.6927 12.8854C13.5531 12.9455 13.4257 12.9645 13.3333 12.9645V8.96446ZM10.3778 11.3442L10.0908 12.76L14.0111 13.5547L14.2981 12.1389L10.3778 11.3442ZM12.051 11.1574H11.3333V15.1574H12.051V11.1574ZM13.3333 13.1574V12.335H9.33332V13.1574H13.3333ZM13.3333 12.335C13.3333 10.731 11.9048 10.0609 11 10.0609V14.0609C10.655 14.0609 10.2828 13.947 9.96534 13.686C9.64393 13.4217 9.33332 12.9541 9.33332 12.335H13.3333ZM11 10.0609C10.0952 10.0609 8.66668 10.731 8.66668 12.335H12.6667C12.6667 12.9541 12.3561 13.4217 12.0347 13.686C11.7172 13.947 11.345 14.0609 11 14.0609V10.0609ZM8.66668 12.335V13.4314H12.6667V12.335H8.66668ZM8.66668 13.4314C8.66668 15.0354 10.0952 15.7055 11 15.7055V11.7055C11.345 11.7055 11.7172 11.8194 12.0347 12.0804C12.3561 12.3447 12.6667 12.8123 12.6667 13.4314H8.66668ZM11 15.7055H12.3333V11.7055H11V15.7055ZM12.3333 15.7055C13.1687 15.7055 14.357 15.187 14.6224 13.8725L10.7016 13.0808C10.9136 12.0306 11.8239 11.7055 12.3333 11.7055V15.7055ZM14.6221 13.8741L14.9558 12.2286L11.0356 11.4337L10.7019 13.0792L14.6221 13.8741ZM14.955 12.2326C14.9356 12.3271 14.8874 12.5379 14.7294 12.7735C14.6407 12.9058 14.4851 13.0938 14.2344 13.2513C13.966 13.4199 13.652 13.5126 13.3333 13.5126V9.51262C12.335 9.51262 11.702 10.106 11.4071 10.5458C11.1478 10.9325 11.0624 11.3026 11.0364 11.4297L14.955 12.2326ZM13.3333 13.5126H14.6667V9.51262H13.3333V13.5126ZM12.6667 11.5126V11.5127H16.6667V11.5126H12.6667Z" fill="#F89406" fill-opacity="0.5" mask="url(#path-5-inside-1_819_1402)"/>
</g>
<path id="Vector_6" d="M9.33332 10.9644H10.6666C10.669 10.9641 10.671 10.9644 10.6733 10.9644C10.8573 10.9644 11.0066 10.8416 11.0066 10.6903C11.0066 10.6692 11.0036 10.6486 10.9983 10.6289C10.977 10.2389 10.75 9.59387 10 9.59387C9.20898 9.59387 9 10.3112 9 10.6903C9 10.8416 9.14934 10.9644 9.33332 10.9644ZM10 10.1421C10.158 10.1421 10.2413 10.2791 10.285 10.4162H9.715C9.75867 10.2791 9.84199 10.1421 10 10.1421Z" fill="#F89406" fill-opacity="0.5"/>
<path id="Vector_7" d="M8.00031 7.12695C7.26496 7.12695 6.66699 7.61872 6.66699 8.22339C6.66699 8.82809 7.265 9.31982 8.00031 9.31982C8.73562 9.31982 9.33363 8.82806 9.33363 8.22339C9.33363 7.61868 8.73566 7.12695 8.00031 7.12695ZM8.00031 8.77162C7.63266 8.77162 7.33363 8.52576 7.33363 8.22339C7.33363 7.92105 7.63262 7.67515 8.00031 7.67515C8.36797 7.67515 8.66699 7.92102 8.66699 8.22339C8.66699 8.52573 8.36797 8.77162 8.00031 8.77162Z" fill="#F89406" fill-opacity="0.5"/>
<path id="Vector_8" d="M18.3331 12.335C17.9217 12.335 17.5287 12.4611 17.2267 12.6823L15.9021 11.5929C15.7718 11.4858 15.5611 11.4858 15.4308 11.5929C15.3004 11.7001 15.3004 11.8734 15.4308 11.9805L17.0041 13.2743C17.0737 13.3316 17.1711 13.3598 17.2691 13.3535C17.3674 13.3464 17.4567 13.3037 17.5134 13.237C17.7008 13.0153 18.0071 12.8831 18.3331 12.8831C18.8844 12.8831 19.3331 13.2521 19.3331 13.7055C19.3331 14.1589 18.8844 14.5278 18.3331 14.5278C18.2417 14.5278 18.1457 14.5141 18.0321 14.4842C17.9134 14.4535 17.7837 14.4796 17.6957 14.5519C17.6077 14.6243 17.5761 14.7309 17.6134 14.8285C17.6497 14.9222 17.6664 15.0009 17.6664 15.076C17.6664 15.5294 17.2177 15.8984 16.6664 15.8984C16.1151 15.8984 15.6664 15.5294 15.6664 15.076C15.6664 14.808 15.8271 14.556 16.0967 14.402C16.1778 14.3554 16.2294 14.2819 16.2384 14.2011C16.2471 14.1202 16.2117 14.0405 16.1421 13.9832L13.9021 12.1412C13.7717 12.034 13.5611 12.034 13.4308 12.1412C13.3004 12.2484 13.3004 12.4216 13.4308 12.5288L15.4221 14.1663C15.1531 14.4146 14.9998 14.7378 14.9998 15.0761C14.9998 15.8318 15.7474 16.4466 16.6664 16.4466C17.5855 16.4466 18.3331 15.8318 18.3331 15.0761C19.2521 15.0761 19.9998 14.4613 19.9998 13.7055C19.9998 12.9498 19.2521 12.335 18.3331 12.335Z" fill="#F89406" fill-opacity="0.5"/>
</g>
</g>
</g>
<g id="Group_4">
<g id="Group_5">
<g id="Group_6">
<path id="Vector_9" d="M6.09766 12.1412L3.85766 13.9832C3.78797 14.0405 3.75266 14.1203 3.76133 14.2011C3.77 14.282 3.82199 14.3554 3.90301 14.4021C4.17266 14.5561 4.33336 14.808 4.33336 15.0761C4.33336 15.5295 3.88469 15.8984 3.33336 15.8984C2.78203 15.8984 2.33336 15.5295 2.33336 15.0761C2.33336 15.0007 2.35004 14.922 2.38602 14.8285C2.42367 14.731 2.39203 14.6243 2.30402 14.5517C2.21602 14.4796 2.08668 14.4535 1.96734 14.4845C1.85402 14.5141 1.75867 14.5278 1.66668 14.5278C1.11535 14.5278 0.66668 14.1589 0.66668 13.7055C0.66668 13.2521 1.11535 12.8831 1.66668 12.8831C1.99234 12.8831 2.29867 13.0156 2.48633 13.237C2.54301 13.3037 2.63234 13.3464 2.73066 13.3535C2.82898 13.3598 2.92598 13.3316 2.99566 13.2743L4.56898 11.9805C4.6993 11.8733 4.6993 11.7001 4.56898 11.5929C4.43863 11.4858 4.22797 11.4858 4.09766 11.5929L2.77301 12.6822C2.47102 12.4611 2.07801 12.335 1.66668 12.335C0.747656 12.335 0 12.9498 0 13.7055C0 14.4613 0.747656 15.0761 1.66668 15.0761C1.66668 15.8318 2.41434 16.4467 3.33336 16.4467C4.25234 16.4466 5 15.8318 5 15.0761C5 14.7378 4.84668 14.4146 4.57766 14.1663L6.56898 12.5288C6.6993 12.4216 6.6993 12.2483 6.56898 12.1412C6.43867 12.034 6.22801 12.034 6.09766 12.1412Z" fill="#F89406" fill-opacity="0.5"/>
<path id="Vector_10" d="M14.4021 3.8943L16.1421 2.46344C16.2118 2.40613 16.2471 2.32637 16.2384 2.24552C16.2294 2.16467 16.1777 2.0912 16.0967 2.04459C15.827 1.89054 15.6664 1.63863 15.6664 1.37057C15.6664 0.917193 16.115 0.548234 16.6664 0.548234C17.2177 0.548234 17.6664 0.917193 17.6664 1.37057C17.6664 1.44567 17.6497 1.52463 17.6134 1.6181C17.576 1.71595 17.6077 1.82231 17.6957 1.89497C17.784 1.96734 17.9137 1.99365 18.0324 1.96214C18.1454 1.93252 18.2411 1.91884 18.333 1.91884C18.8844 1.91884 19.333 2.28779 19.333 2.74117C19.333 3.19455 18.8844 3.56351 18.333 3.56351C18.0074 3.56351 17.7011 3.4311 17.5134 3.20961C17.4567 3.14299 17.3674 3.10052 17.2691 3.0931C17.1691 3.08626 17.0737 3.11504 17.0041 3.17232L15.2641 4.60315C15.1337 4.71031 15.1337 4.88358 15.2641 4.99074C15.3291 5.04419 15.4144 5.07104 15.4997 5.07104C15.5851 5.07104 15.6704 5.04419 15.7354 4.99074L17.2267 3.76437C17.5287 3.98556 17.9217 4.11168 18.333 4.11168C19.2521 4.11168 19.9997 3.49685 19.9997 2.74111C19.9997 1.98539 19.2521 1.37054 18.333 1.37054C18.333 0.614824 17.5854 0 16.6664 0C15.7474 0 14.9997 0.614824 14.9997 1.37057C14.9997 1.70882 15.153 2.032 15.4221 2.28034L13.9307 3.50671C13.8004 3.61391 13.8004 3.78714 13.9307 3.8943C14.0611 4.0015 14.2717 4.0015 14.4021 3.8943Z" fill="#F89406" fill-opacity="0.5"/>
<path id="Vector_11" d="M1.66668 4.11168C2.07801 4.11168 2.47102 3.98559 2.77301 3.76437L4.26434 4.99074C4.32934 5.04419 4.41469 5.07104 4.5 5.07104C4.58531 5.07104 4.67066 5.04419 4.73566 4.99074C4.86598 4.88355 4.86598 4.71031 4.73566 4.60315L2.99566 3.17229C2.92598 3.11498 2.82766 3.08649 2.73066 3.09307C2.63234 3.10046 2.54301 3.14296 2.48633 3.20958C2.29898 3.43132 1.99266 3.56347 1.66668 3.56347C1.11535 3.56347 0.66668 3.19451 0.66668 2.74114C0.66668 2.28776 1.11535 1.9188 1.66668 1.9188C1.75801 1.9188 1.85402 1.93252 1.9677 1.96239C2.08602 1.9931 2.2157 1.96734 2.30402 1.89468C2.39203 1.82231 2.42367 1.71569 2.38637 1.6181C2.35004 1.52463 2.33336 1.4457 2.33336 1.37057C2.33336 0.917193 2.78203 0.548234 3.33336 0.548234C3.88469 0.548234 4.33336 0.917193 4.33336 1.37057C4.33336 1.63866 4.1727 1.89057 3.90301 2.04459C3.82199 2.0912 3.77 2.16467 3.76133 2.24552C3.75266 2.32637 3.78801 2.40613 3.85766 2.46344L5.59766 3.8943C5.72797 4.00146 5.93867 4.00146 6.06898 3.8943C6.19934 3.78711 6.19934 3.61387 6.06898 3.50671L4.57766 2.28034C4.84668 2.032 5 1.70882 5 1.37057C5 0.614824 4.25234 0 3.33332 0C2.41434 0 1.66668 0.614824 1.66668 1.37057C0.747656 1.37057 0 1.98539 0 2.74111C0 3.49685 0.747656 4.11168 1.66668 4.11168Z" fill="#F89406" fill-opacity="0.5"/>
<path id="Vector_12" d="M12.0003 9.31982C12.7357 9.31982 13.3336 8.82806 13.3336 8.22339C13.3336 7.61868 12.7356 7.12695 12.0003 7.12695C11.265 7.12695 10.667 7.61868 10.667 8.22339C10.667 8.82809 11.265 9.31982 12.0003 9.31982ZM12.0003 7.67515C12.368 7.67515 12.667 7.92102 12.667 8.22339C12.667 8.52573 12.368 8.77162 12.0003 8.77162C11.6326 8.77162 11.3336 8.52576 11.3336 8.22339C11.3336 7.92105 11.6327 7.67515 12.0003 7.67515Z" fill="#F89406" fill-opacity="0.5"/>
<g id="Vector_13">
<mask id="path-14-inside-2_819_1402" fill="white">
<path d="M14.6667 11.5127C14.8297 11.5127 14.9687 11.4156 14.9954 11.2838L15.312 9.72273C15.7746 9.31291 16 8.82144 16 8.22332C16 5.50277 13.3083 3.28931 10 3.28931C6.69168 3.28931 4 5.50277 4 8.22332C4 8.81267 4.23133 9.31648 4.68832 9.7227L5.00465 11.2838C5.03133 11.4156 5.17031 11.5126 5.33332 11.5126H6.66664C6.93562 11.5126 6.99129 11.7462 7.00465 11.832L7.33797 13.4766C7.36465 13.6087 7.50363 13.7055 7.66664 13.7055H9.66664C9.85063 13.7055 9.99996 13.5827 9.99996 13.4314C9.99996 13.2801 9.85063 13.1573 9.66664 13.1573H9.33332V12.335C9.33332 12.1837 9.18398 12.0609 9 12.0609C8.81602 12.0609 8.66668 12.1837 8.66668 12.335V13.1573H7.94902L7.66504 11.7585C7.63039 11.4839 7.37672 10.9644 6.66672 10.9644H5.6157L5.32871 9.54863C5.31738 9.49244 5.28504 9.44034 5.2357 9.39977C4.8527 9.08536 4.66672 8.70053 4.66672 8.22328C4.66672 5.80507 7.05938 3.83751 10 3.83751C12.9407 3.83751 15.3333 5.80511 15.3333 8.22332C15.3333 8.8587 15.0087 9.19942 14.7643 9.3998C14.7154 9.44037 14.6827 9.49244 14.6713 9.54866L14.3843 10.9645H13.3333C12.6627 10.9645 12.3887 11.4746 12.338 11.7416L12.051 13.1574H11.3333V12.335C11.3333 12.1837 11.184 12.0609 11 12.0609C10.816 12.0609 10.6667 12.1837 10.6667 12.335V13.4314C10.6667 13.5827 10.816 13.7055 11 13.7055H12.3333C12.4963 13.7055 12.6353 13.6088 12.662 13.4767L12.9957 11.8312C13.0023 11.7985 13.07 11.5126 13.3333 11.5126H14.6667V11.5127Z"/>
</mask>
<path d="M14.6667 11.5127C14.8297 11.5127 14.9687 11.4156 14.9954 11.2838L15.312 9.72273C15.7746 9.31291 16 8.82144 16 8.22332C16 5.50277 13.3083 3.28931 10 3.28931C6.69168 3.28931 4 5.50277 4 8.22332C4 8.81267 4.23133 9.31648 4.68832 9.7227L5.00465 11.2838C5.03133 11.4156 5.17031 11.5126 5.33332 11.5126H6.66664C6.93562 11.5126 6.99129 11.7462 7.00465 11.832L7.33797 13.4766C7.36465 13.6087 7.50363 13.7055 7.66664 13.7055H9.66664C9.85063 13.7055 9.99996 13.5827 9.99996 13.4314C9.99996 13.2801 9.85063 13.1573 9.66664 13.1573H9.33332V12.335C9.33332 12.1837 9.18398 12.0609 9 12.0609C8.81602 12.0609 8.66668 12.1837 8.66668 12.335V13.1573H7.94902L7.66504 11.7585C7.63039 11.4839 7.37672 10.9644 6.66672 10.9644H5.6157L5.32871 9.54863C5.31738 9.49244 5.28504 9.44034 5.2357 9.39977C4.8527 9.08536 4.66672 8.70053 4.66672 8.22328C4.66672 5.80507 7.05938 3.83751 10 3.83751C12.9407 3.83751 15.3333 5.80511 15.3333 8.22332C15.3333 8.8587 15.0087 9.19942 14.7643 9.3998C14.7154 9.44037 14.6827 9.49244 14.6713 9.54866L14.3843 10.9645H13.3333C12.6627 10.9645 12.3887 11.4746 12.338 11.7416L12.051 13.1574H11.3333V12.335C11.3333 12.1837 11.184 12.0609 11 12.0609C10.816 12.0609 10.6667 12.1837 10.6667 12.335V13.4314C10.6667 13.5827 10.816 13.7055 11 13.7055H12.3333C12.4963 13.7055 12.6353 13.6088 12.662 13.4767L12.9957 11.8312C13.0023 11.7985 13.07 11.5126 13.3333 11.5126H14.6667V11.5127Z" fill="#F89406" fill-opacity="0.5"/>
<path d="M14.6667 11.5127H12.6667V13.5127H14.6667V11.5127ZM14.9954 11.2838L13.0353 10.8862L13.0351 10.8871L14.9954 11.2838ZM15.312 9.72273L13.9858 8.22567L13.485 8.66935L13.352 9.3251L15.312 9.72273ZM4.68832 9.7227L6.64848 9.3255L6.51592 8.67133L6.01706 8.22789L4.68832 9.7227ZM5.00465 11.2838L6.96491 10.887L6.96481 10.8866L5.00465 11.2838ZM7.00465 11.832L5.02846 12.1397L5.03546 12.1846L5.0445 12.2292L7.00465 11.832ZM7.33797 13.4766L9.2984 13.0807L9.29812 13.0794L7.33797 13.4766ZM9.33332 13.1573H7.33332V15.1573H9.33332V13.1573ZM8.66668 13.1573V15.1573H10.6667V13.1573H8.66668ZM7.94902 13.1573L5.98901 13.5552L6.31426 15.1573H7.94902V13.1573ZM7.66504 11.7585L5.68077 12.0089L5.69013 12.0831L5.70502 12.1564L7.66504 11.7585ZM5.6157 10.9644L3.65557 11.3618L3.98044 12.9644H5.6157V10.9644ZM5.32871 9.54863L3.36817 9.94393L3.36858 9.94596L5.32871 9.54863ZM5.2357 9.39977L6.50602 7.855L6.5047 7.85392L5.2357 9.39977ZM14.7643 9.3998L13.4961 7.85332L13.4886 7.85951L14.7643 9.3998ZM14.6713 9.54866L16.6315 9.94599L16.6319 9.94375L14.6713 9.54866ZM14.3843 10.9645V12.9645H16.0196L16.3445 11.3618L14.3843 10.9645ZM12.338 11.7416L14.2981 12.1389L14.3006 12.1268L14.3029 12.1147L12.338 11.7416ZM12.051 13.1574V15.1574H13.6862L14.0111 13.5547L12.051 13.1574ZM11.3333 13.1574H9.33332V15.1574H11.3333V13.1574ZM12.662 13.4767L10.7019 13.0792L10.7016 13.0808L12.662 13.4767ZM12.9957 11.8312L11.0364 11.4297L11.0356 11.4337L12.9957 11.8312ZM14.6667 11.5126H16.6667V9.51262H14.6667V11.5126ZM14.6667 13.5127C15.5042 13.5127 16.6901 12.9923 16.9556 11.6805L13.0351 10.8871C13.2472 9.83894 14.1552 9.51266 14.6667 9.51266V13.5127ZM16.9554 11.6814L17.2721 10.1204L13.352 9.3251L13.0353 10.8862L16.9554 11.6814ZM16.6382 11.2198C17.5135 10.4444 18 9.41474 18 8.22332H14C14 8.2467 13.9979 8.25275 13.9993 8.24578C14 8.24255 14.0013 8.2373 14.0035 8.23056C14.0057 8.22379 14.0084 8.2167 14.0117 8.2097C14.0149 8.20271 14.018 8.19696 14.0206 8.19269C14.0231 8.18845 14.0246 8.1866 14.0242 8.18716C14.0234 8.18808 14.0131 8.20149 13.9858 8.22567L16.6382 11.2198ZM18 8.22332C18 4.05006 14.0292 1.28931 10 1.28931V5.28931C12.5875 5.28931 14 6.95548 14 8.22332H18ZM10 1.28931C5.97084 1.28931 2 4.05006 2 8.22332H6C6 6.95548 7.41252 5.28931 10 5.28931V1.28931ZM2 8.22332C2 9.40802 2.49396 10.4481 3.35958 11.2175L6.01706 8.22789C5.99382 8.20723 5.98428 8.19501 5.98272 8.19295C5.98186 8.1918 5.98254 8.1926 5.98419 8.19534C5.98585 8.1981 5.98805 8.20211 5.99039 8.20723C5.99275 8.21236 5.99486 8.21773 5.99661 8.22304C5.99836 8.22834 5.99946 8.2327 6.0001 8.23571C6.00148 8.24229 6 8.23919 6 8.22332H2ZM2.72816 10.1199L3.04449 11.681L6.96481 10.8866L6.64848 9.3255L2.72816 10.1199ZM3.04439 11.6805C3.30987 12.9923 4.49581 13.5126 5.33332 13.5126V9.51262C5.84482 9.51262 6.75279 9.83891 6.96491 10.887L3.04439 11.6805ZM5.33332 13.5126H6.66664V9.51262H5.33332V13.5126ZM6.66664 13.5126C6.43394 13.5126 6.15796 13.4592 5.88462 13.3123C5.6159 13.168 5.42679 12.975 5.30233 12.8002C5.08169 12.4903 5.03826 12.2026 5.02846 12.1397L8.98084 11.5243C8.95768 11.3755 8.87974 10.9281 8.56068 10.48C8.16616 9.92598 7.49802 9.51262 6.66664 9.51262V13.5126ZM5.0445 12.2292L5.37782 13.8739L9.29812 13.0794L8.9648 11.4347L5.0445 12.2292ZM5.37754 13.8725C5.64298 15.187 6.83122 15.7055 7.66664 15.7055V11.7055C8.17605 11.7055 9.08632 12.0305 9.2984 13.0807L5.37754 13.8725ZM7.66664 15.7055H9.66664V11.7055H7.66664V15.7055ZM9.66664 15.7055C10.5715 15.7055 12 15.0354 12 13.4314H7.99996C7.99996 12.8122 8.31057 12.3447 8.63198 12.0804C8.94941 11.8194 9.32161 11.7055 9.66664 11.7055V15.7055ZM12 13.4314C12 11.8274 10.5715 11.1573 9.66664 11.1573V15.1573C9.32161 15.1573 8.94941 15.0434 8.63198 14.7824C8.31057 14.5181 7.99996 14.0505 7.99996 13.4314H12ZM9.66664 11.1573H9.33332V15.1573H9.66664V11.1573ZM11.3333 13.1573V12.335H7.33332V13.1573H11.3333ZM11.3333 12.335C11.3333 10.731 9.90482 10.0609 9 10.0609V14.0609C8.65497 14.0609 8.28277 13.947 7.96534 13.686C7.64393 13.4217 7.33332 12.9541 7.33332 12.335H11.3333ZM9 10.0609C8.09518 10.0609 6.66668 10.731 6.66668 12.335H10.6667C10.6667 12.9541 10.3561 13.4217 10.0347 13.686C9.71723 13.947 9.34503 14.0609 9 14.0609V10.0609ZM6.66668 12.335V13.1573H10.6667V12.335H6.66668ZM8.66668 11.1573H7.94902V15.1573H8.66668V11.1573ZM9.90904 12.7594L9.62505 11.3606L5.70502 12.1564L5.98901 13.5552L9.90904 12.7594ZM9.64931 11.5082C9.58434 10.9932 9.34911 10.3846 8.86687 9.8786C8.33026 9.3156 7.56493 8.96442 6.66672 8.96442V12.9644C6.59519 12.9644 6.47477 12.9502 6.33234 12.8894C6.1905 12.8288 6.06802 12.7397 5.97141 12.6384C5.80216 12.4608 5.71109 12.2492 5.68077 12.0089L9.64931 11.5082ZM6.66672 8.96442H5.6157V12.9644H6.66672V8.96442ZM7.57584 10.5671L7.28884 9.15129L3.36858 9.94596L3.65557 11.3618L7.57584 10.5671ZM7.28925 9.15332C7.17771 8.6001 6.87292 8.15672 6.50602 7.855L3.96539 10.9445C3.69716 10.724 3.45706 10.3848 3.36817 9.94393L7.28925 9.15332ZM6.5047 7.85392C6.50358 7.853 6.55867 7.89966 6.60813 8.00195C6.65878 8.10668 6.66672 8.19363 6.66672 8.22328H2.66672C2.66672 9.32461 3.14089 10.2677 3.9667 10.9456L6.5047 7.85392ZM6.66672 8.22328C6.66672 7.25778 7.78021 5.83751 10 5.83751V1.83751C6.33854 1.83751 2.66672 4.35237 2.66672 8.22328H6.66672ZM10 5.83751C12.2198 5.83751 13.3333 7.25778 13.3333 8.22332H17.3333C17.3333 4.35243 13.6616 1.83751 10 1.83751V5.83751ZM13.3333 8.22332C13.3333 8.20941 13.3354 8.17094 13.3505 8.11617C13.3656 8.06134 13.3889 8.00773 13.4172 7.95967C13.4717 7.86699 13.5255 7.82922 13.4961 7.85334L16.0326 10.9463C16.5147 10.5509 17.3333 9.69847 17.3333 8.22332H13.3333ZM13.4886 7.85951C13.132 8.15489 12.8234 8.59437 12.7107 9.15357L16.6319 9.94375C16.5419 10.3905 16.2987 10.7259 16.0401 10.9401L13.4886 7.85951ZM12.7112 9.15133L12.4242 10.5671L16.3445 11.3618L16.6315 9.94599L12.7112 9.15133ZM14.3843 8.96446H13.3333V12.9645H14.3843V8.96446ZM13.3333 8.96446C11.3747 8.96446 10.534 10.5208 10.3731 11.3684L14.3029 12.1147C14.2615 12.3326 14.1733 12.5091 14.0272 12.6572C13.942 12.7436 13.8299 12.8263 13.6927 12.8854C13.5531 12.9455 13.4257 12.9645 13.3333 12.9645V8.96446ZM10.3778 11.3442L10.0908 12.76L14.0111 13.5547L14.2981 12.1389L10.3778 11.3442ZM12.051 11.1574H11.3333V15.1574H12.051V11.1574ZM13.3333 13.1574V12.335H9.33332V13.1574H13.3333ZM13.3333 12.335C13.3333 10.731 11.9048 10.0609 11 10.0609V14.0609C10.655 14.0609 10.2828 13.947 9.96534 13.686C9.64393 13.4217 9.33332 12.9541 9.33332 12.335H13.3333ZM11 10.0609C10.0952 10.0609 8.66668 10.731 8.66668 12.335H12.6667C12.6667 12.9541 12.3561 13.4217 12.0347 13.686C11.7172 13.947 11.345 14.0609 11 14.0609V10.0609ZM8.66668 12.335V13.4314H12.6667V12.335H8.66668ZM8.66668 13.4314C8.66668 15.0354 10.0952 15.7055 11 15.7055V11.7055C11.345 11.7055 11.7172 11.8194 12.0347 12.0804C12.3561 12.3447 12.6667 12.8123 12.6667 13.4314H8.66668ZM11 15.7055H12.3333V11.7055H11V15.7055ZM12.3333 15.7055C13.1687 15.7055 14.357 15.187 14.6224 13.8725L10.7016 13.0808C10.9136 12.0306 11.8239 11.7055 12.3333 11.7055V15.7055ZM14.6221 13.8741L14.9558 12.2286L11.0356 11.4337L10.7019 13.0792L14.6221 13.8741ZM14.955 12.2326C14.9356 12.3271 14.8874 12.5379 14.7294 12.7735C14.6407 12.9058 14.4851 13.0938 14.2344 13.2513C13.966 13.4199 13.652 13.5126 13.3333 13.5126V9.51262C12.335 9.51262 11.702 10.106 11.4071 10.5458C11.1478 10.9325 11.0624 11.3026 11.0364 11.4297L14.955 12.2326ZM13.3333 13.5126H14.6667V9.51262H13.3333V13.5126ZM12.6667 11.5126V11.5127H16.6667V11.5126H12.6667Z" fill="#F89406" fill-opacity="0.5" mask="url(#path-14-inside-2_819_1402)"/>
</g>
<path id="Vector_14" d="M9.33332 10.9644H10.6666C10.669 10.9641 10.671 10.9644 10.6733 10.9644C10.8573 10.9644 11.0066 10.8416 11.0066 10.6903C11.0066 10.6692 11.0036 10.6486 10.9983 10.6289C10.977 10.2389 10.75 9.59387 10 9.59387C9.20898 9.59387 9 10.3112 9 10.6903C9 10.8416 9.14934 10.9644 9.33332 10.9644ZM10 10.1421C10.158 10.1421 10.2413 10.2791 10.285 10.4162H9.715C9.75867 10.2791 9.84199 10.1421 10 10.1421Z" fill="#F89406" fill-opacity="0.5"/>
<path id="Vector_15" d="M8.00031 7.12695C7.26496 7.12695 6.66699 7.61872 6.66699 8.22339C6.66699 8.82809 7.265 9.31982 8.00031 9.31982C8.73562 9.31982 9.33363 8.82806 9.33363 8.22339C9.33363 7.61868 8.73566 7.12695 8.00031 7.12695ZM8.00031 8.77162C7.63266 8.77162 7.33363 8.52576 7.33363 8.22339C7.33363 7.92105 7.63262 7.67515 8.00031 7.67515C8.36797 7.67515 8.66699 7.92102 8.66699 8.22339C8.66699 8.52573 8.36797 8.77162 8.00031 8.77162Z" fill="#F89406" fill-opacity="0.5"/>
<path id="Vector_16" d="M18.3331 12.335C17.9217 12.335 17.5287 12.4611 17.2267 12.6823L15.9021 11.5929C15.7718 11.4858 15.5611 11.4858 15.4308 11.5929C15.3004 11.7001 15.3004 11.8734 15.4308 11.9805L17.0041 13.2743C17.0737 13.3316 17.1711 13.3598 17.2691 13.3535C17.3674 13.3464 17.4567 13.3037 17.5134 13.237C17.7008 13.0153 18.0071 12.8831 18.3331 12.8831C18.8844 12.8831 19.3331 13.2521 19.3331 13.7055C19.3331 14.1589 18.8844 14.5278 18.3331 14.5278C18.2417 14.5278 18.1457 14.5141 18.0321 14.4842C17.9134 14.4535 17.7837 14.4796 17.6957 14.5519C17.6077 14.6243 17.5761 14.7309 17.6134 14.8285C17.6497 14.9222 17.6664 15.0009 17.6664 15.076C17.6664 15.5294 17.2177 15.8984 16.6664 15.8984C16.1151 15.8984 15.6664 15.5294 15.6664 15.076C15.6664 14.808 15.8271 14.556 16.0967 14.402C16.1778 14.3554 16.2294 14.2819 16.2384 14.2011C16.2471 14.1202 16.2117 14.0405 16.1421 13.9832L13.9021 12.1412C13.7717 12.034 13.5611 12.034 13.4308 12.1412C13.3004 12.2484 13.3004 12.4216 13.4308 12.5288L15.4221 14.1663C15.1531 14.4146 14.9998 14.7378 14.9998 15.0761C14.9998 15.8318 15.7474 16.4466 16.6664 16.4466C17.5855 16.4466 18.3331 15.8318 18.3331 15.0761C19.2521 15.0761 19.9998 14.4613 19.9998 13.7055C19.9998 12.9498 19.2521 12.335 18.3331 12.335Z" fill="#F89406" fill-opacity="0.5"/>
</g>
</g>
</g>
</g>
</svg>
