<svg width="136" height="21" viewBox="0 0 136 21" fill="none" xmlns="http://www.w3.org/2000/svg">
<g id="Group 103">
<g id="Group 24">
<g id="FanyLouiseLogo">
<path id="pt5" d="M88.399 16.7886C89.2832 16.7938 89.9957 17.5148 89.9903 18.399V18.399C89.985 19.2832 89.2638 19.9958 88.3796 19.9906L71.6522 19.8926C70.768 19.8874 70.0555 19.1664 70.0609 18.2822V18.2822C70.0662 17.398 70.7873 16.6854 71.6715 16.6906L88.399 16.7886Z" fill="#F89406" fill-opacity="0.5"/>
<path id="pt1" d="M70 1.71429C70 0.767512 70.7675 0 71.7143 0V0C72.6611 0 73.4286 0.767512 73.4286 1.71429V18C73.4286 18.9468 72.6611 19.7143 71.7143 19.7143V19.7143C70.7675 19.7143 70 18.9468 70 18V1.71429Z" fill="#F89406" fill-opacity="0.5"/>
<rect id="pt4" x="86.7266" y="0.195679" width="3.25385" height="19.6125" rx="1.62692" fill="#F89406" fill-opacity="0.5"/>
<path id="pt2" d="M88.361 0.181867C89.2451 0.190641 89.9546 0.914519 89.9455 1.79869V1.79869C89.9364 2.68287 89.2123 3.39252 88.3282 3.38375L71.6324 3.21807C70.7482 3.20929 70.0388 2.48541 70.0478 1.60124V1.60124C70.0569 0.717063 70.781 0.00741038 71.6652 0.0161846L88.361 0.181867Z" fill="#F89406" fill-opacity="0.5"/>
<rect id="pt3" width="3.20205" height="19.9565" rx="1.60102" transform="matrix(-0.0102467 0.999948 -0.999951 -0.00992311 89.9883 8.15503)" fill="#F89406" fill-opacity="0.5"/>
</g>
</g>
<path id="Vector 127" d="M21 3H1V19.4467H21V3ZM19.2915 11.2234L10.9497 4.9736L2.80905 11.2234L10.9497 17.3086L19.2915 11.2234ZM13.2613 8.09848C13.2613 8.09848 12.2563 7.19391 11.0503 7.19391C9.84422 7.19391 9.51209 7.45966 8.73869 8.09848C7.76806 8.90021 7.47663 9.96095 7.53266 11.0589C7.57603 12.4619 7.88834 13.071 8.53769 14.1015C9.34874 14.9992 9.89254 15.2297 10.9497 15.2528C11.9573 15.2055 12.4861 14.9904 13.3618 14.1838C14.2628 13.1589 14.3721 12.3902 14.4673 11.0589C14.4673 9.16751 13.2613 8.09848 13.2613 8.09848ZM14.2587 10.2365C11.2079 9.92726 10.0055 10.2765 7.76806 12.3467L7.56706 11.6066C9.83635 9.73888 10.9799 9.34768 13.9672 9.49645L14.1054 9.82538L14.2587 10.2365Z" stroke="#F89406" stroke-opacity="0.5"/>
<g id="Vector">
<mask id="path-7-inside-1_819_1403" fill="white">
<path d="M135.738 14.0953C135.389 13.8888 134.822 13.8888 134.473 14.0953L132.616 15.1935C131.464 15.3086 130.584 15.9006 130.584 16.6133C130.584 16.7588 130.622 16.8991 130.69 17.0316C130.48 17.0979 130.286 17.1828 130.113 17.2849C129.939 17.3881 129.797 17.5033 129.686 17.6258C129.462 17.5853 129.223 17.5631 128.977 17.5631C128.731 17.5631 128.493 17.5853 128.269 17.6255C128.157 17.5017 128.013 17.3869 127.84 17.2849C127.66 17.1784 127.456 17.0913 127.236 17.0239C127.845 16.3603 128.276 15.468 128.545 14.5906L129.59 15.2086C129.765 15.3118 129.994 15.3635 130.222 15.3635C130.451 15.3635 130.68 15.3118 130.855 15.2086C131.204 15.0021 131.204 14.6673 130.855 14.4608L128.835 13.2667C128.845 13.1866 128.854 13.108 128.862 13.031H129.841L131.629 14.0879C131.804 14.1911 132.033 14.2428 132.262 14.2428C132.49 14.2428 132.719 14.1912 132.894 14.0879C133.243 13.8814 133.243 13.5466 132.894 13.3401L130.844 12.1284C130.677 12.0292 130.449 11.9735 130.212 11.9735H128.858C128.843 11.8509 128.824 11.7332 128.799 11.621H131.421C131.834 11.621 132.193 11.454 132.29 11.2169L133.432 8.43486C133.955 8.03795 134.101 7.47282 133.829 6.85468C133.565 6.25726 132.938 5.64293 132.061 5.12497C130.879 4.42582 129.416 4.00522 128.148 4C127.718 4.00127 127.35 4.1759 127.265 4.42377C127.18 4.67165 127.404 4.92038 127.799 5.01724C128.122 5.0962 128.445 5.22811 128.733 5.39865C129.489 5.84555 129.557 6.26509 129.474 6.33058C129.474 6.33058 129.437 6.34497 129.33 6.34497C128.996 6.34497 128.424 6.20531 127.896 5.89334C127.608 5.72266 127.385 5.53182 127.251 5.34154C127.088 5.10776 126.667 4.97522 126.248 5.02549C125.828 5.07562 125.528 5.29438 125.53 5.54733C125.539 6.29639 126.25 7.16114 127.433 7.86064C128.624 8.5643 130.093 8.98476 131.365 8.98617L130.718 10.5635H128.341C128.03 10.132 127.608 9.8345 127.133 9.63357V8.28491C127.133 7.9929 126.733 7.75616 126.239 7.75616C125.745 7.75616 125.344 7.9929 125.344 8.28491V9.26888C125.221 9.26324 125.099 9.26042 124.979 9.26042C124.858 9.26042 124.736 9.26331 124.612 9.26895V8.28477C124.612 7.99276 124.212 7.75602 123.718 7.75602C123.224 7.75602 122.824 7.99276 122.824 8.28477V9.63393C122.349 9.83485 121.927 10.1323 121.616 10.5635H119.24L118.593 8.98617C119.865 8.98483 121.334 8.5643 122.525 7.86057C123.707 7.16114 124.419 6.29639 124.427 5.54733C124.43 5.29438 124.13 5.07562 123.71 5.02549C123.291 4.97522 122.87 5.10776 122.707 5.34154C122.573 5.53182 122.35 5.72259 122.062 5.89327C121.534 6.20524 120.961 6.3449 120.628 6.3449C120.522 6.3449 120.485 6.33101 120.485 6.33101C120.401 6.26502 120.469 5.84547 121.225 5.39844C121.513 5.22804 121.836 5.0962 122.158 5.01717C122.554 4.92031 122.778 4.67158 122.693 4.4237C122.608 4.1771 122.241 4 121.816 4C121.814 4 121.812 4 121.81 4C120.542 4.00522 119.079 4.42582 117.897 5.12497C116.037 6.22441 115.473 7.63786 116.526 8.4355L117.668 11.2171C117.765 11.4542 118.124 11.6211 118.537 11.6211H121.158C121.134 11.7333 121.115 11.851 121.1 11.9736H119.746C119.509 11.9736 119.281 12.0293 119.113 12.1285L116.992 13.3826C116.643 13.5891 116.643 13.9239 116.992 14.1303C117.167 14.2335 117.396 14.2852 117.624 14.2852C117.853 14.2852 118.082 14.2336 118.257 14.1303L120.116 13.0311H121.096C121.103 13.1081 121.112 13.1866 121.123 13.2668L119.103 14.4609C118.753 14.6674 118.753 15.0021 119.103 15.2086C119.277 15.3119 119.506 15.3635 119.735 15.3635C119.964 15.3635 120.193 15.3119 120.368 15.2086L121.413 14.5906C121.821 15.9216 122.601 17.2875 123.811 17.836C123.724 17.9847 123.677 18.142 123.677 18.3039C123.677 18.6893 123.931 19.0516 124.392 19.324C124.852 19.5961 125.465 19.7459 126.116 19.7459C126.36 19.7459 126.599 19.7248 126.827 19.684C127.238 20.1374 128.047 20.4467 128.976 20.4467C129.906 20.4467 130.715 20.1375 131.127 19.6841C131.354 19.7249 131.593 19.7459 131.838 19.7459C132.489 19.7459 133.101 19.5961 133.562 19.3241C134.023 19.0516 134.277 18.6893 134.277 18.3039C134.277 18.1595 134.241 18.0185 134.172 17.8842C134.939 17.6409 135.462 17.1627 135.462 16.6133C135.462 16.1738 135.126 15.7804 134.6 15.5157L135.738 14.843C136.087 14.6366 136.087 14.3018 135.738 14.0953ZM130.738 7.07859C131.114 6.85658 131.302 6.54751 131.284 6.19924C131.679 6.49943 131.965 6.82176 132.097 7.12138C132.234 7.43095 132.19 7.68961 131.981 7.81334C131.851 7.88997 131.646 7.92882 131.372 7.92882C130.752 7.92882 129.968 7.72937 129.252 7.40169C129.845 7.4129 130.364 7.3001 130.738 7.07859ZM118.674 6.19812C118.656 6.54688 118.844 6.85637 119.22 7.07852C119.578 7.29044 120.065 7.40246 120.628 7.40246H120.628C120.654 7.40246 120.68 7.40218 120.706 7.40176C119.99 7.72944 119.206 7.92889 118.586 7.92889C118.311 7.92889 118.106 7.88997 117.977 7.81341C117.606 7.59422 117.743 6.90311 118.674 6.19812ZM133.673 16.6133C133.673 16.8251 133.381 16.9975 133.023 16.9975C132.664 16.9975 132.373 16.8251 132.373 16.6133C132.373 16.4015 132.664 16.2292 133.023 16.2292C133.381 16.2292 133.673 16.4015 133.673 16.6133ZM122.943 13.4711C122.943 13.4358 122.938 13.4005 122.927 13.3657C122.882 13.0704 122.858 12.7796 122.858 12.5023C122.858 11.973 122.942 11.5728 123.08 11.269C123.094 11.2456 123.106 11.2219 123.114 11.1971C123.33 10.7692 123.658 10.5489 123.996 10.4364C124.064 10.4232 124.128 10.4052 124.188 10.3833C124.48 10.318 124.765 10.3178 124.979 10.3178C125.192 10.3178 125.477 10.318 125.768 10.3828C125.829 10.4052 125.894 10.4236 125.963 10.4369C126.301 10.5496 126.628 10.77 126.844 11.198C126.852 11.222 126.864 11.2452 126.878 11.2679C127.015 11.5719 127.1 11.9724 127.1 12.5023C127.1 12.7797 127.076 13.0704 127.031 13.3658C127.019 13.4005 127.014 13.4358 127.015 13.4711C126.894 14.1912 126.649 14.9336 126.31 15.5784C125.768 16.6107 125.223 16.9479 125.025 17.0156C125.012 17.0195 124.998 17.0227 124.985 17.0268C124.983 17.0272 124.981 17.0278 124.979 17.0281C124.837 17.0053 124.24 16.7076 123.647 15.5786C123.309 14.9338 123.064 14.1912 122.943 13.4711ZM125.656 18.576C125.533 18.5034 125.466 18.4068 125.466 18.3041C125.466 18.2017 125.533 18.1054 125.657 18.0326C125.779 17.9601 125.943 17.9201 126.116 17.9201C126.29 17.9201 126.453 17.9601 126.576 18.0328C126.698 18.1053 126.766 18.2017 126.766 18.3044C126.766 18.407 126.699 18.5036 126.576 18.5759C126.453 18.6485 126.29 18.6884 126.116 18.6884C125.942 18.6884 125.779 18.6485 125.656 18.576ZM128.977 19.3892C128.619 19.3892 128.327 19.2169 128.327 19.005C128.327 18.7931 128.619 18.6207 128.977 18.6207C129.335 18.6207 129.627 18.7931 129.627 19.005C129.627 19.2169 129.335 19.3892 128.977 19.3892ZM132.297 18.5761C132.175 18.6485 132.011 18.6884 131.838 18.6884C131.664 18.6884 131.5 18.6485 131.378 18.5763C131.124 18.4263 131.124 18.1825 131.378 18.0327C131.501 17.9601 131.664 17.9201 131.837 17.9201C132.011 17.9201 132.174 17.9601 132.298 18.0331C132.42 18.1054 132.488 18.2017 132.488 18.3041C132.488 18.4069 132.42 18.5034 132.297 18.5761Z"/>
</mask>
<path d="M135.738 14.0953C135.389 13.8888 134.822 13.8888 134.473 14.0953L132.616 15.1935C131.464 15.3086 130.584 15.9006 130.584 16.6133C130.584 16.7588 130.622 16.8991 130.69 17.0316C130.48 17.0979 130.286 17.1828 130.113 17.2849C129.939 17.3881 129.797 17.5033 129.686 17.6258C129.462 17.5853 129.223 17.5631 128.977 17.5631C128.731 17.5631 128.493 17.5853 128.269 17.6255C128.157 17.5017 128.013 17.3869 127.84 17.2849C127.66 17.1784 127.456 17.0913 127.236 17.0239C127.845 16.3603 128.276 15.468 128.545 14.5906L129.59 15.2086C129.765 15.3118 129.994 15.3635 130.222 15.3635C130.451 15.3635 130.68 15.3118 130.855 15.2086C131.204 15.0021 131.204 14.6673 130.855 14.4608L128.835 13.2667C128.845 13.1866 128.854 13.108 128.862 13.031H129.841L131.629 14.0879C131.804 14.1911 132.033 14.2428 132.262 14.2428C132.49 14.2428 132.719 14.1912 132.894 14.0879C133.243 13.8814 133.243 13.5466 132.894 13.3401L130.844 12.1284C130.677 12.0292 130.449 11.9735 130.212 11.9735H128.858C128.843 11.8509 128.824 11.7332 128.799 11.621H131.421C131.834 11.621 132.193 11.454 132.29 11.2169L133.432 8.43486C133.955 8.03795 134.101 7.47282 133.829 6.85468C133.565 6.25726 132.938 5.64293 132.061 5.12497C130.879 4.42582 129.416 4.00522 128.148 4C127.718 4.00127 127.35 4.1759 127.265 4.42377C127.18 4.67165 127.404 4.92038 127.799 5.01724C128.122 5.0962 128.445 5.22811 128.733 5.39865C129.489 5.84555 129.557 6.26509 129.474 6.33058C129.474 6.33058 129.437 6.34497 129.33 6.34497C128.996 6.34497 128.424 6.20531 127.896 5.89334C127.608 5.72266 127.385 5.53182 127.251 5.34154C127.088 5.10776 126.667 4.97522 126.248 5.02549C125.828 5.07562 125.528 5.29438 125.53 5.54733C125.539 6.29639 126.25 7.16114 127.433 7.86064C128.624 8.5643 130.093 8.98476 131.365 8.98617L130.718 10.5635H128.341C128.03 10.132 127.608 9.8345 127.133 9.63357V8.28491C127.133 7.9929 126.733 7.75616 126.239 7.75616C125.745 7.75616 125.344 7.9929 125.344 8.28491V9.26888C125.221 9.26324 125.099 9.26042 124.979 9.26042C124.858 9.26042 124.736 9.26331 124.612 9.26895V8.28477C124.612 7.99276 124.212 7.75602 123.718 7.75602C123.224 7.75602 122.824 7.99276 122.824 8.28477V9.63393C122.349 9.83485 121.927 10.1323 121.616 10.5635H119.24L118.593 8.98617C119.865 8.98483 121.334 8.5643 122.525 7.86057C123.707 7.16114 124.419 6.29639 124.427 5.54733C124.43 5.29438 124.13 5.07562 123.71 5.02549C123.291 4.97522 122.87 5.10776 122.707 5.34154C122.573 5.53182 122.35 5.72259 122.062 5.89327C121.534 6.20524 120.961 6.3449 120.628 6.3449C120.522 6.3449 120.485 6.33101 120.485 6.33101C120.401 6.26502 120.469 5.84547 121.225 5.39844C121.513 5.22804 121.836 5.0962 122.158 5.01717C122.554 4.92031 122.778 4.67158 122.693 4.4237C122.608 4.1771 122.241 4 121.816 4C121.814 4 121.812 4 121.81 4C120.542 4.00522 119.079 4.42582 117.897 5.12497C116.037 6.22441 115.473 7.63786 116.526 8.4355L117.668 11.2171C117.765 11.4542 118.124 11.6211 118.537 11.6211H121.158C121.134 11.7333 121.115 11.851 121.1 11.9736H119.746C119.509 11.9736 119.281 12.0293 119.113 12.1285L116.992 13.3826C116.643 13.5891 116.643 13.9239 116.992 14.1303C117.167 14.2335 117.396 14.2852 117.624 14.2852C117.853 14.2852 118.082 14.2336 118.257 14.1303L120.116 13.0311H121.096C121.103 13.1081 121.112 13.1866 121.123 13.2668L119.103 14.4609C118.753 14.6674 118.753 15.0021 119.103 15.2086C119.277 15.3119 119.506 15.3635 119.735 15.3635C119.964 15.3635 120.193 15.3119 120.368 15.2086L121.413 14.5906C121.821 15.9216 122.601 17.2875 123.811 17.836C123.724 17.9847 123.677 18.142 123.677 18.3039C123.677 18.6893 123.931 19.0516 124.392 19.324C124.852 19.5961 125.465 19.7459 126.116 19.7459C126.36 19.7459 126.599 19.7248 126.827 19.684C127.238 20.1374 128.047 20.4467 128.976 20.4467C129.906 20.4467 130.715 20.1375 131.127 19.6841C131.354 19.7249 131.593 19.7459 131.838 19.7459C132.489 19.7459 133.101 19.5961 133.562 19.3241C134.023 19.0516 134.277 18.6893 134.277 18.3039C134.277 18.1595 134.241 18.0185 134.172 17.8842C134.939 17.6409 135.462 17.1627 135.462 16.6133C135.462 16.1738 135.126 15.7804 134.6 15.5157L135.738 14.843C136.087 14.6366 136.087 14.3018 135.738 14.0953ZM130.738 7.07859C131.114 6.85658 131.302 6.54751 131.284 6.19924C131.679 6.49943 131.965 6.82176 132.097 7.12138C132.234 7.43095 132.19 7.68961 131.981 7.81334C131.851 7.88997 131.646 7.92882 131.372 7.92882C130.752 7.92882 129.968 7.72937 129.252 7.40169C129.845 7.4129 130.364 7.3001 130.738 7.07859ZM118.674 6.19812C118.656 6.54688 118.844 6.85637 119.22 7.07852C119.578 7.29044 120.065 7.40246 120.628 7.40246H120.628C120.654 7.40246 120.68 7.40218 120.706 7.40176C119.99 7.72944 119.206 7.92889 118.586 7.92889C118.311 7.92889 118.106 7.88997 117.977 7.81341C117.606 7.59422 117.743 6.90311 118.674 6.19812ZM133.673 16.6133C133.673 16.8251 133.381 16.9975 133.023 16.9975C132.664 16.9975 132.373 16.8251 132.373 16.6133C132.373 16.4015 132.664 16.2292 133.023 16.2292C133.381 16.2292 133.673 16.4015 133.673 16.6133ZM122.943 13.4711C122.943 13.4358 122.938 13.4005 122.927 13.3657C122.882 13.0704 122.858 12.7796 122.858 12.5023C122.858 11.973 122.942 11.5728 123.08 11.269C123.094 11.2456 123.106 11.2219 123.114 11.1971C123.33 10.7692 123.658 10.5489 123.996 10.4364C124.064 10.4232 124.128 10.4052 124.188 10.3833C124.48 10.318 124.765 10.3178 124.979 10.3178C125.192 10.3178 125.477 10.318 125.768 10.3828C125.829 10.4052 125.894 10.4236 125.963 10.4369C126.301 10.5496 126.628 10.77 126.844 11.198C126.852 11.222 126.864 11.2452 126.878 11.2679C127.015 11.5719 127.1 11.9724 127.1 12.5023C127.1 12.7797 127.076 13.0704 127.031 13.3658C127.019 13.4005 127.014 13.4358 127.015 13.4711C126.894 14.1912 126.649 14.9336 126.31 15.5784C125.768 16.6107 125.223 16.9479 125.025 17.0156C125.012 17.0195 124.998 17.0227 124.985 17.0268C124.983 17.0272 124.981 17.0278 124.979 17.0281C124.837 17.0053 124.24 16.7076 123.647 15.5786C123.309 14.9338 123.064 14.1912 122.943 13.4711ZM125.656 18.576C125.533 18.5034 125.466 18.4068 125.466 18.3041C125.466 18.2017 125.533 18.1054 125.657 18.0326C125.779 17.9601 125.943 17.9201 126.116 17.9201C126.29 17.9201 126.453 17.9601 126.576 18.0328C126.698 18.1053 126.766 18.2017 126.766 18.3044C126.766 18.407 126.699 18.5036 126.576 18.5759C126.453 18.6485 126.29 18.6884 126.116 18.6884C125.942 18.6884 125.779 18.6485 125.656 18.576ZM128.977 19.3892C128.619 19.3892 128.327 19.2169 128.327 19.005C128.327 18.7931 128.619 18.6207 128.977 18.6207C129.335 18.6207 129.627 18.7931 129.627 19.005C129.627 19.2169 129.335 19.3892 128.977 19.3892ZM132.297 18.5761C132.175 18.6485 132.011 18.6884 131.838 18.6884C131.664 18.6884 131.5 18.6485 131.378 18.5763C131.124 18.4263 131.124 18.1825 131.378 18.0327C131.501 17.9601 131.664 17.9201 131.837 17.9201C132.011 17.9201 132.174 17.9601 132.298 18.0331C132.42 18.1054 132.488 18.2017 132.488 18.3041C132.488 18.4069 132.42 18.5034 132.297 18.5761Z" stroke="#F89406" stroke-opacity="0.5" stroke-width="2" mask="url(#path-7-inside-1_819_1403)"/>
</g>
<path id="Vector 128" d="M113 4.73915C113 4.73915 113 3.66009 113 2.91305C113 2.16601 112.866 2 112.128 2C111.389 2 94.2081 2 93.6711 2C93.1342 2 93 2 93 2.91305C93 3.8261 93 4.73915 93 4.73915M113 4.73915H93M113 4.73915V7.5613M93 4.73915V7.5613M113 7.5613H93M113 7.5613V10.3005M93 7.5613V10.3005M113 10.3005H93M113 10.3005V13.0396M93 10.3005V13.0396M113 13.0396H93M113 13.0396V15.7788M93 13.0396V15.7788M113 15.7788C113 15.7788 113 16.7748 113 17.6879C113 18.6009 112.933 18.4349 112.128 18.4349C111.322 18.4349 94.2081 18.4349 93.6711 18.4349C93.1342 18.4349 93 18.3519 93 17.6879C93 17.0238 93 15.7788 93 15.7788M113 15.7788H93" stroke="#F89406" stroke-opacity="0.5"/>
<g id="Group">
<path id="Vector_2" d="M57.3783 2.05834C57.8665 2.21349 58.1869 2.59641 58.4212 3.3136C58.5267 3.64119 58.64 4.24125 58.64 4.48956V4.64471L58.9994 4.66543C59.1986 4.67913 60.5266 4.7413 61.9483 4.80689L64.5301 4.92762L64.7215 4.84149C65.1589 4.63804 65.7606 4.59318 66.2371 4.72418C66.452 4.78274 66.5418 4.83104 66.7098 4.97591C67.0184 5.2518 67.0808 5.5311 66.8973 5.85528C66.831 5.97259 66.7294 6.07602 66.6122 6.15188C66.3271 6.33803 66.1122 6.38289 65.456 6.40362L64.8701 6.42092L64.7138 6.59679C64.5262 6.80366 63.9598 7.19 63.6045 7.35542C63.081 7.59688 62.1436 7.79006 61.2571 7.8452L60.886 7.86934L60.6829 8.03837C60.4721 8.21082 60.1674 8.35912 59.937 8.39696C59.8707 8.40723 59.8119 8.43498 59.8119 8.45895C59.8119 8.47967 59.8743 9.48319 59.9525 10.6867C60.0345 11.8903 60.0854 12.9181 60.0735 12.9698C60.0578 13.025 59.9992 13.0871 59.9368 13.1147C59.8351 13.1596 55.5698 14.2941 55.359 14.3321C55.2027 14.3597 55.0076 14.1977 55.0076 14.0458C55.0076 13.8182 55.0233 13.8148 57.2536 13.2284C58.3902 12.9284 59.3472 12.6766 59.3784 12.6662C59.4174 12.6559 59.4253 12.6076 59.4096 12.4696C59.398 12.373 59.3549 11.7971 59.3198 11.1936C59.2808 10.5936 59.2378 10.1004 59.2261 10.1004C59.2145 10.1004 59.1676 10.1521 59.1206 10.2177C58.9371 10.466 58.4294 10.9729 58.144 11.1902C57.5348 11.6488 56.8003 12.0247 56.5933 11.9764C56.3903 11.9315 56.277 11.711 56.3746 11.5488C56.398 11.5108 56.5582 11.4178 56.734 11.3383C57.6636 10.9107 58.5073 10.1278 59.0267 9.21397C59.1751 8.95197 59.1751 8.95881 59.0698 7.46894C59.0267 6.82402 59.0073 6.34127 59.0267 6.2964C59.1204 6.07908 59.4721 6.04809 59.6088 6.24126C59.64 6.28613 59.6792 6.58616 59.7104 7.05179C59.7378 7.45867 59.7729 7.80015 59.7847 7.81402C59.8394 7.85889 60.187 7.65887 60.316 7.51057C60.3864 7.42786 60.484 7.34154 60.5309 7.32082C60.5738 7.3001 60.8317 7.27253 61.1011 7.25883C62.2416 7.21054 63.0698 7.0071 63.6674 6.63121C63.9641 6.44506 64.3431 6.12089 64.3431 6.05187C64.3431 6.0243 64.3782 5.96916 64.4174 5.92429C64.4917 5.84501 64.515 5.84158 65.2299 5.82428C65.8744 5.80698 65.9838 5.79671 66.1206 5.73455C66.3314 5.63796 66.3822 5.51038 66.2573 5.39307C66.144 5.28621 65.9565 5.23792 65.652 5.23792C65.3511 5.23792 65.1911 5.27937 64.9489 5.41379L64.7536 5.52407L61.5507 5.3792C59.7892 5.29991 58.3087 5.22747 58.2618 5.21702C58.1524 5.19972 58.0157 5.07214 58.0157 4.98943C58.0157 4.91014 58.0079 4.91014 57.8399 5.01015C57.6173 5.14458 57.3244 5.21702 57.0001 5.21702C56.6758 5.21702 56.3829 5.14458 56.1603 5.01015C56.0821 4.96528 56.0158 4.92744 56.008 4.92744C56.0003 4.92744 55.9845 4.97573 55.969 5.03087C55.9533 5.10674 55.9105 5.14818 55.8207 5.18602C55.7231 5.22044 54.8988 5.26873 52.4693 5.3792L49.2468 5.52407L49.0515 5.41379C48.8134 5.27937 48.6493 5.23792 48.3484 5.23792C48.0437 5.23792 47.8564 5.28621 47.7429 5.39307C47.618 5.51038 47.6686 5.63796 47.8796 5.73455C48.0164 5.79671 48.1258 5.80698 48.7703 5.82428C49.485 5.84158 49.5085 5.84501 49.5828 5.92429C49.6218 5.96916 49.6571 6.0243 49.6571 6.05187C49.6571 6.12089 50.0359 6.44506 50.3328 6.63121C50.9304 7.0071 51.739 7.20369 52.9499 7.26568C53.5436 7.29668 53.6179 7.32425 53.6646 7.53472C53.6842 7.61743 53.6646 7.6623 53.5787 7.75546L53.4693 7.86934L52.9187 7.84862C51.95 7.8106 50.9773 7.62103 50.3955 7.35542C50.0399 7.18982 49.4736 6.80366 49.2862 6.59679L49.1299 6.42092L48.544 6.40362C47.8878 6.38289 47.6729 6.33803 47.3878 6.15188C47.2706 6.07602 47.169 5.97259 47.1027 5.85528C46.9192 5.5311 46.9816 5.2518 47.2902 4.97591C47.5519 4.74833 47.8643 4.65174 48.3448 4.65174C48.7315 4.65516 48.9423 4.69318 49.2432 4.82761L49.4736 4.92762L52.0554 4.80689C53.4771 4.7413 54.8012 4.67931 54.9965 4.66543L55.3598 4.64471V4.48956C55.3598 4.02051 55.5786 3.18944 55.809 2.76868C56.148 2.1515 56.7768 1.86859 57.3783 2.05834ZM56.7768 2.6411C56.5191 2.74796 56.2535 3.22386 56.1362 3.79292C56.0892 4.01366 56.0931 4.02393 56.2025 4.20323C56.3354 4.41712 56.4954 4.53425 56.7532 4.60327C57.093 4.69643 57.472 4.59642 57.6985 4.35153C57.8899 4.14466 57.9212 4.01708 57.8391 3.69976C57.6205 2.824 57.2417 2.4445 56.7768 2.6411Z" fill="#F89406" fill-opacity="0.5"/>
<path id="Vector_3" d="M54.7999 6.1345C54.8468 6.1518 54.9132 6.20351 54.9444 6.24838C54.9991 6.32082 54.9795 6.73816 54.6944 11.0007C54.5264 13.57 54.378 15.7668 54.3662 15.8841L54.3466 16.1014H54.8309H55.3193V15.4875C55.3193 14.946 55.3271 14.8633 55.3936 14.7667C55.4873 14.6322 55.6552 14.5908 55.8193 14.6667C55.8818 14.6942 55.9444 14.7459 55.9599 14.7735C55.9716 14.8045 55.9834 15.1184 55.9834 15.4667V16.1014H56.3116H56.6437L56.6553 15.3116C56.6669 14.5288 56.6669 14.5184 56.7608 14.4322C56.8935 14.3081 57.1045 14.3081 57.2374 14.4322C57.331 14.5185 57.331 14.5288 57.3429 15.3116L57.3545 16.1048L57.6747 16.0945L57.9949 16.0843L58.0145 15.1256C58.0341 14.2151 58.038 14.1634 58.1121 14.1151C58.2331 14.0358 58.3503 14.0219 58.4676 14.0738C58.6668 14.1565 58.6785 14.2153 58.6785 15.1946V16.1016H59.1666H59.6548L59.6352 15.9223C59.6001 15.6222 59.4985 14.1565 59.4985 13.967C59.4985 13.8221 59.5181 13.7704 59.596 13.7049C59.7757 13.5428 60.1 13.6394 60.1428 13.8705C60.1506 13.9327 60.1898 14.3774 60.221 14.8604C60.2522 15.3431 60.2912 15.8226 60.303 15.919L60.3226 16.1017H60.8851C61.4125 16.1017 61.4515 16.1052 61.5451 16.1776C61.6155 16.2362 61.717 16.4672 61.9396 17.057L62.2405 17.8605H64.479C66.0413 17.8605 66.7483 17.8707 66.8148 17.8983C67.0179 17.981 67.0491 18.1983 66.8852 18.3466L66.7719 18.4467H56.999H47.2262L47.113 18.3466C46.9489 18.1983 46.9801 17.981 47.1832 17.8983C47.2495 17.8707 47.9565 17.8605 49.519 17.8605H51.7571L52.0579 17.0566C52.2806 16.4668 52.382 16.2358 52.4524 16.1773C52.5461 16.1048 52.5853 16.1014 53.1125 16.1014H53.6711L53.6945 15.8875C53.71 15.7668 53.8586 13.5597 54.0305 10.98L54.339 6.28983L54.4601 6.19324C54.585 6.09666 54.6554 6.08278 54.7999 6.1345ZM52.6986 17.2291C52.5892 17.5291 52.4875 17.7947 52.4759 17.8154C52.4643 17.8498 53.3859 17.8603 56.999 17.8603C60.612 17.8603 61.5339 17.85 61.5221 17.8154C61.5104 17.7947 61.4088 17.5293 61.2994 17.2291L61.0925 16.6876H56.999H52.9055L52.6986 17.2291Z" fill="#F89406" fill-opacity="0.5"/>
</g>
<g id="SKULL" clip-path="url(#clip0_819_1403)">
<g id="Group_2">
<g id="Group_3">
<g id="Group_4">
<path id="Vector_4" d="M30.0977 15.1412L27.8577 16.9832C27.788 17.0405 27.7527 17.1203 27.7613 17.2011C27.77 17.282 27.822 17.3554 27.903 17.4021C28.1727 17.5561 28.3334 17.808 28.3334 18.0761C28.3334 18.5295 27.8847 18.8984 27.3334 18.8984C26.782 18.8984 26.3334 18.5295 26.3334 18.0761C26.3334 18.0007 26.35 17.922 26.386 17.8285C26.4237 17.731 26.392 17.6243 26.304 17.5517C26.216 17.4796 26.0867 17.4535 25.9673 17.4845C25.854 17.5141 25.7587 17.5278 25.6667 17.5278C25.1154 17.5278 24.6667 17.1589 24.6667 16.7055C24.6667 16.2521 25.1154 15.8831 25.6667 15.8831C25.9923 15.8831 26.2987 16.0156 26.4863 16.237C26.543 16.3037 26.6323 16.3464 26.7307 16.3535C26.829 16.3598 26.926 16.3316 26.9957 16.2743L28.569 14.9805C28.6993 14.8733 28.6993 14.7001 28.569 14.5929C28.4386 14.4858 28.228 14.4858 28.0977 14.5929L26.773 15.6822C26.471 15.4611 26.078 15.335 25.6667 15.335C24.7477 15.335 24 15.9498 24 16.7055C24 17.4613 24.7477 18.0761 25.6667 18.0761C25.6667 18.8318 26.4143 19.4467 27.3334 19.4467C28.2523 19.4466 29 18.8318 29 18.0761C29 17.7378 28.8467 17.4146 28.5777 17.1663L30.569 15.5288C30.6993 15.4216 30.6993 15.2483 30.569 15.1412C30.4387 15.034 30.228 15.034 30.0977 15.1412Z" fill="#F89406" fill-opacity="0.5"/>
<path id="Vector_5" d="M38.4021 6.8943L40.1421 5.46344C40.2118 5.40613 40.2471 5.32637 40.2384 5.24552C40.2294 5.16467 40.1777 5.0912 40.0967 5.04459C39.827 4.89054 39.6664 4.63863 39.6664 4.37057C39.6664 3.91719 40.115 3.54823 40.6664 3.54823C41.2177 3.54823 41.6664 3.91719 41.6664 4.37057C41.6664 4.44567 41.6497 4.52463 41.6134 4.6181C41.576 4.71595 41.6077 4.82231 41.6957 4.89497C41.784 4.96734 41.9137 4.99365 42.0324 4.96214C42.1454 4.93252 42.2411 4.91884 42.333 4.91884C42.8844 4.91884 43.333 5.28779 43.333 5.74117C43.333 6.19455 42.8844 6.56351 42.333 6.56351C42.0074 6.56351 41.7011 6.4311 41.5134 6.20961C41.4567 6.14299 41.3674 6.10052 41.2691 6.0931C41.1691 6.08626 41.0737 6.11504 41.0041 6.17232L39.2641 7.60315C39.1337 7.71031 39.1337 7.88358 39.2641 7.99074C39.3291 8.04419 39.4144 8.07104 39.4997 8.07104C39.5851 8.07104 39.6704 8.04419 39.7354 7.99074L41.2267 6.76437C41.5287 6.98556 41.9217 7.11168 42.333 7.11168C43.2521 7.11168 43.9997 6.49685 43.9997 5.74111C43.9997 4.98539 43.2521 4.37054 42.333 4.37054C42.333 3.61482 41.5854 3 40.6664 3C39.7474 3 38.9997 3.61482 38.9997 4.37057C38.9997 4.70882 39.153 5.032 39.4221 5.28034L37.9307 6.50671C37.8004 6.61391 37.8004 6.78714 37.9307 6.8943C38.0611 7.0015 38.2717 7.0015 38.4021 6.8943Z" fill="#F89406" fill-opacity="0.5"/>
<path id="Vector_6" d="M25.6667 7.11168C26.078 7.11168 26.471 6.98559 26.773 6.76437L28.2643 7.99074C28.3293 8.04419 28.4147 8.07104 28.5 8.07104C28.5853 8.07104 28.6707 8.04419 28.7357 7.99074C28.866 7.88355 28.866 7.71031 28.7357 7.60315L26.9957 6.17229C26.926 6.11498 26.8277 6.08649 26.7307 6.09307C26.6323 6.10046 26.543 6.14296 26.4863 6.20958C26.299 6.43132 25.9927 6.56347 25.6667 6.56347C25.1154 6.56347 24.6667 6.19451 24.6667 5.74114C24.6667 5.28776 25.1154 4.9188 25.6667 4.9188C25.758 4.9188 25.854 4.93252 25.9677 4.96239C26.086 4.9931 26.2157 4.96734 26.304 4.89468C26.392 4.82231 26.4237 4.71569 26.3864 4.6181C26.35 4.52463 26.3334 4.4457 26.3334 4.37057C26.3334 3.91719 26.782 3.54823 27.3334 3.54823C27.8847 3.54823 28.3334 3.91719 28.3334 4.37057C28.3334 4.63866 28.1727 4.89057 27.903 5.04459C27.822 5.0912 27.77 5.16467 27.7613 5.24552C27.7527 5.32637 27.788 5.40613 27.8577 5.46344L29.5977 6.8943C29.728 7.00146 29.9387 7.00146 30.069 6.8943C30.1993 6.78711 30.1993 6.61387 30.069 6.50671L28.5777 5.28034C28.8467 5.032 29 4.70882 29 4.37057C29 3.61482 28.2523 3 27.3333 3C26.4143 3 25.6667 3.61482 25.6667 4.37057C24.7477 4.37057 24 4.98539 24 5.74111C24 6.49685 24.7477 7.11168 25.6667 7.11168Z" fill="#F89406" fill-opacity="0.5"/>
<path id="Vector_7" d="M36.0003 12.3198C36.7357 12.3198 37.3336 11.8281 37.3336 11.2234C37.3336 10.6187 36.7356 10.127 36.0003 10.127C35.265 10.127 34.667 10.6187 34.667 11.2234C34.667 11.8281 35.265 12.3198 36.0003 12.3198ZM36.0003 10.6752C36.368 10.6752 36.667 10.921 36.667 11.2234C36.667 11.5257 36.368 11.7716 36.0003 11.7716C35.6326 11.7716 35.3336 11.5258 35.3336 11.2234C35.3336 10.9211 35.6327 10.6752 36.0003 10.6752Z" fill="#F89406" fill-opacity="0.5"/>
<g id="Vector_8">
<mask id="path-15-inside-2_819_1403" fill="white">
<path d="M38.6667 14.5127C38.8297 14.5127 38.9687 14.4156 38.9954 14.2838L39.312 12.7227C39.7746 12.3129 40 11.8214 40 11.2233C40 8.50277 37.3083 6.28931 34 6.28931C30.6917 6.28931 28 8.50277 28 11.2233C28 11.8127 28.2313 12.3165 28.6883 12.7227L29.0046 14.2838C29.0313 14.4156 29.1703 14.5126 29.3333 14.5126H30.6666C30.9356 14.5126 30.9913 14.7462 31.0046 14.832L31.338 16.4766C31.3646 16.6087 31.5036 16.7055 31.6666 16.7055H33.6666C33.8506 16.7055 34 16.5827 34 16.4314C34 16.2801 33.8506 16.1573 33.6666 16.1573H33.3333V15.335C33.3333 15.1837 33.184 15.0609 33 15.0609C32.816 15.0609 32.6667 15.1837 32.6667 15.335V16.1573H31.949L31.665 14.7585C31.6304 14.4839 31.3767 13.9644 30.6667 13.9644H29.6157L29.3287 12.5486C29.3174 12.4924 29.285 12.4403 29.2357 12.3998C28.8527 12.0854 28.6667 11.7005 28.6667 11.2233C28.6667 8.80507 31.0594 6.83751 34 6.83751C36.9407 6.83751 39.3333 8.80511 39.3333 11.2233C39.3333 11.8587 39.0087 12.1994 38.7643 12.3998C38.7154 12.4404 38.6827 12.4924 38.6713 12.5487L38.3843 13.9645H37.3333C36.6627 13.9645 36.3887 14.4746 36.338 14.7416L36.051 16.1574H35.3333V15.335C35.3333 15.1837 35.184 15.0609 35 15.0609C34.816 15.0609 34.6667 15.1837 34.6667 15.335V16.4314C34.6667 16.5827 34.816 16.7055 35 16.7055H36.3333C36.4963 16.7055 36.6353 16.6088 36.662 16.4767L36.9957 14.8312C37.0023 14.7985 37.07 14.5126 37.3333 14.5126H38.6667V14.5127Z"/>
</mask>
<path d="M38.6667 14.5127C38.8297 14.5127 38.9687 14.4156 38.9954 14.2838L39.312 12.7227C39.7746 12.3129 40 11.8214 40 11.2233C40 8.50277 37.3083 6.28931 34 6.28931C30.6917 6.28931 28 8.50277 28 11.2233C28 11.8127 28.2313 12.3165 28.6883 12.7227L29.0046 14.2838C29.0313 14.4156 29.1703 14.5126 29.3333 14.5126H30.6666C30.9356 14.5126 30.9913 14.7462 31.0046 14.832L31.338 16.4766C31.3646 16.6087 31.5036 16.7055 31.6666 16.7055H33.6666C33.8506 16.7055 34 16.5827 34 16.4314C34 16.2801 33.8506 16.1573 33.6666 16.1573H33.3333V15.335C33.3333 15.1837 33.184 15.0609 33 15.0609C32.816 15.0609 32.6667 15.1837 32.6667 15.335V16.1573H31.949L31.665 14.7585C31.6304 14.4839 31.3767 13.9644 30.6667 13.9644H29.6157L29.3287 12.5486C29.3174 12.4924 29.285 12.4403 29.2357 12.3998C28.8527 12.0854 28.6667 11.7005 28.6667 11.2233C28.6667 8.80507 31.0594 6.83751 34 6.83751C36.9407 6.83751 39.3333 8.80511 39.3333 11.2233C39.3333 11.8587 39.0087 12.1994 38.7643 12.3998C38.7154 12.4404 38.6827 12.4924 38.6713 12.5487L38.3843 13.9645H37.3333C36.6627 13.9645 36.3887 14.4746 36.338 14.7416L36.051 16.1574H35.3333V15.335C35.3333 15.1837 35.184 15.0609 35 15.0609C34.816 15.0609 34.6667 15.1837 34.6667 15.335V16.4314C34.6667 16.5827 34.816 16.7055 35 16.7055H36.3333C36.4963 16.7055 36.6353 16.6088 36.662 16.4767L36.9957 14.8312C37.0023 14.7985 37.07 14.5126 37.3333 14.5126H38.6667V14.5127Z" fill="#F89406" fill-opacity="0.5"/>
<path d="M38.6667 14.5127H36.6667V16.5127H38.6667V14.5127ZM38.9954 14.2838L37.0353 13.8862L37.0351 13.8871L38.9954 14.2838ZM39.312 12.7227L37.9858 11.2257L37.485 11.6694L37.352 12.3251L39.312 12.7227ZM28.6883 12.7227L30.6485 12.3255L30.5159 11.6713L30.0171 11.2279L28.6883 12.7227ZM29.0046 14.2838L30.9649 13.887L30.9648 13.8866L29.0046 14.2838ZM31.0046 14.832L29.0285 15.1397L29.0355 15.1846L29.0445 15.2292L31.0046 14.832ZM31.338 16.4766L33.2984 16.0807L33.2981 16.0794L31.338 16.4766ZM33.3333 16.1573H31.3333V18.1573H33.3333V16.1573ZM32.6667 16.1573V18.1573H34.6667V16.1573H32.6667ZM31.949 16.1573L29.989 16.5552L30.3143 18.1573H31.949V16.1573ZM31.665 14.7585L29.6808 15.0089L29.6901 15.0831L29.705 15.1564L31.665 14.7585ZM29.6157 13.9644L27.6556 14.3618L27.9804 15.9644H29.6157V13.9644ZM29.3287 12.5486L27.3682 12.9439L27.3686 12.946L29.3287 12.5486ZM29.2357 12.3998L30.506 10.855L30.5047 10.8539L29.2357 12.3998ZM38.7643 12.3998L37.4961 10.8533L37.4886 10.8595L38.7643 12.3998ZM38.6713 12.5487L40.6315 12.946L40.6319 12.9437L38.6713 12.5487ZM38.3843 13.9645V15.9645H40.0196L40.3445 14.3618L38.3843 13.9645ZM36.338 14.7416L38.2981 15.1389L38.3006 15.1268L38.3029 15.1147L36.338 14.7416ZM36.051 16.1574V18.1574H37.6862L38.0111 16.5547L36.051 16.1574ZM35.3333 16.1574H33.3333V18.1574H35.3333V16.1574ZM36.662 16.4767L34.7019 16.0792L34.7016 16.0808L36.662 16.4767ZM36.9957 14.8312L35.0364 14.4297L35.0356 14.4337L36.9957 14.8312ZM38.6667 14.5126H40.6667V12.5126H38.6667V14.5126ZM38.6667 16.5127C39.5042 16.5127 40.6901 15.9923 40.9556 14.6805L37.0351 13.8871C37.2472 12.8389 38.1552 12.5127 38.6667 12.5127V16.5127ZM40.9554 14.6814L41.2721 13.1204L37.352 12.3251L37.0353 13.8862L40.9554 14.6814ZM40.6382 14.2198C41.5135 13.4444 42 12.4147 42 11.2233H38C38 11.2467 37.9979 11.2528 37.9993 11.2458C38 11.2426 38.0013 11.2373 38.0035 11.2306C38.0057 11.2238 38.0084 11.2167 38.0117 11.2097C38.0149 11.2027 38.018 11.197 38.0206 11.1927C38.0231 11.1884 38.0246 11.1866 38.0242 11.1872C38.0234 11.1881 38.0131 11.2015 37.9858 11.2257L40.6382 14.2198ZM42 11.2233C42 7.05006 38.0292 4.28931 34 4.28931V8.28931C36.5875 8.28931 38 9.95548 38 11.2233H42ZM34 4.28931C29.9708 4.28931 26 7.05006 26 11.2233H30C30 9.95548 31.4125 8.28931 34 8.28931V4.28931ZM26 11.2233C26 12.408 26.494 13.4481 27.3596 14.2175L30.0171 11.2279C29.9938 11.2072 29.9843 11.195 29.9827 11.1929C29.9819 11.1918 29.9825 11.1926 29.9842 11.1953C29.9858 11.1981 29.988 11.2021 29.9904 11.2072C29.9927 11.2124 29.9949 11.2177 29.9966 11.223C29.9984 11.2283 29.9995 11.2327 30.0001 11.2357C30.0015 11.2423 30 11.2392 30 11.2233H26ZM26.7282 13.1199L27.0445 14.681L30.9648 13.8866L30.6485 12.3255L26.7282 13.1199ZM27.0444 14.6805C27.3099 15.9923 28.4958 16.5126 29.3333 16.5126V12.5126C29.8448 12.5126 30.7528 12.8389 30.9649 13.887L27.0444 14.6805ZM29.3333 16.5126H30.6666V12.5126H29.3333V16.5126ZM30.6666 16.5126C30.4339 16.5126 30.158 16.4592 29.8846 16.3123C29.6159 16.168 29.4268 15.975 29.3023 15.8002C29.0817 15.4903 29.0383 15.2026 29.0285 15.1397L32.9808 14.5243C32.9577 14.3755 32.8797 13.9281 32.5607 13.48C32.1662 12.926 31.498 12.5126 30.6666 12.5126V16.5126ZM29.0445 15.2292L29.3778 16.8739L33.2981 16.0794L32.9648 14.4347L29.0445 15.2292ZM29.3775 16.8725C29.643 18.187 30.8312 18.7055 31.6666 18.7055V14.7055C32.176 14.7055 33.0863 15.0305 33.2984 16.0807L29.3775 16.8725ZM31.6666 18.7055H33.6666V14.7055H31.6666V18.7055ZM33.6666 18.7055C34.5715 18.7055 36 18.0354 36 16.4314H32C32 15.8122 32.3106 15.3447 32.632 15.0804C32.9494 14.8194 33.3216 14.7055 33.6666 14.7055V18.7055ZM36 16.4314C36 14.8274 34.5715 14.1573 33.6666 14.1573V18.1573C33.3216 18.1573 32.9494 18.0434 32.632 17.7824C32.3106 17.5181 32 17.0505 32 16.4314H36ZM33.6666 14.1573H33.3333V18.1573H33.6666V14.1573ZM35.3333 16.1573V15.335H31.3333V16.1573H35.3333ZM35.3333 15.335C35.3333 13.731 33.9048 13.0609 33 13.0609V17.0609C32.655 17.0609 32.2828 16.947 31.9653 16.686C31.6439 16.4217 31.3333 15.9541 31.3333 15.335H35.3333ZM33 13.0609C32.0952 13.0609 30.6667 13.731 30.6667 15.335H34.6667C34.6667 15.9541 34.3561 16.4217 34.0347 16.686C33.7172 16.947 33.345 17.0609 33 17.0609V13.0609ZM30.6667 15.335V16.1573H34.6667V15.335H30.6667ZM32.6667 14.1573H31.949V18.1573H32.6667V14.1573ZM33.909 15.7594L33.6251 14.3606L29.705 15.1564L29.989 16.5552L33.909 15.7594ZM33.6493 14.5082C33.5843 13.9932 33.3491 13.3846 32.8669 12.8786C32.3303 12.3156 31.5649 11.9644 30.6667 11.9644V15.9644C30.5952 15.9644 30.4748 15.9502 30.3323 15.8894C30.1905 15.8288 30.068 15.7397 29.9714 15.6384C29.8022 15.4608 29.7111 15.2492 29.6808 15.0089L33.6493 14.5082ZM30.6667 11.9644H29.6157V15.9644H30.6667V11.9644ZM31.5758 13.5671L31.2888 12.1513L27.3686 12.946L27.6556 14.3618L31.5758 13.5671ZM31.2893 12.1533C31.1777 11.6001 30.8729 11.1567 30.506 10.855L27.9654 13.9445C27.6972 13.724 27.4571 13.3848 27.3682 12.9439L31.2893 12.1533ZM30.5047 10.8539C30.5036 10.853 30.5587 10.8997 30.6081 11.0019C30.6588 11.1067 30.6667 11.1936 30.6667 11.2233H26.6667C26.6667 12.3246 27.1409 13.2677 27.9667 13.9456L30.5047 10.8539ZM30.6667 11.2233C30.6667 10.2578 31.7802 8.83751 34 8.83751V4.83751C30.3385 4.83751 26.6667 7.35237 26.6667 11.2233H30.6667ZM34 8.83751C36.2198 8.83751 37.3333 10.2578 37.3333 11.2233H41.3333C41.3333 7.35243 37.6616 4.83751 34 4.83751V8.83751ZM37.3333 11.2233C37.3333 11.2094 37.3354 11.1709 37.3505 11.1162C37.3656 11.0613 37.3889 11.0077 37.4172 10.9597C37.4717 10.867 37.5255 10.8292 37.4961 10.8533L40.0326 13.9463C40.5147 13.5509 41.3333 12.6985 41.3333 11.2233H37.3333ZM37.4886 10.8595C37.132 11.1549 36.8234 11.5944 36.7107 12.1536L40.6319 12.9437C40.5419 13.3905 40.2987 13.7259 40.0401 13.9401L37.4886 10.8595ZM36.7112 12.1513L36.4242 13.5671L40.3445 14.3618L40.6315 12.946L36.7112 12.1513ZM38.3843 11.9645H37.3333V15.9645H38.3843V11.9645ZM37.3333 11.9645C35.3747 11.9645 34.534 13.5208 34.3731 14.3684L38.3029 15.1147C38.2615 15.3326 38.1733 15.5091 38.0272 15.6572C37.942 15.7436 37.8299 15.8263 37.6927 15.8854C37.5531 15.9455 37.4257 15.9645 37.3333 15.9645V11.9645ZM34.3778 14.3442L34.0908 15.76L38.0111 16.5547L38.2981 15.1389L34.3778 14.3442ZM36.051 14.1574H35.3333V18.1574H36.051V14.1574ZM37.3333 16.1574V15.335H33.3333V16.1574H37.3333ZM37.3333 15.335C37.3333 13.731 35.9048 13.0609 35 13.0609V17.0609C34.655 17.0609 34.2828 16.947 33.9653 16.686C33.6439 16.4217 33.3333 15.9541 33.3333 15.335H37.3333ZM35 13.0609C34.0952 13.0609 32.6667 13.731 32.6667 15.335H36.6667C36.6667 15.9541 36.3561 16.4217 36.0347 16.686C35.7172 16.947 35.345 17.0609 35 17.0609V13.0609ZM32.6667 15.335V16.4314H36.6667V15.335H32.6667ZM32.6667 16.4314C32.6667 18.0354 34.0952 18.7055 35 18.7055V14.7055C35.345 14.7055 35.7172 14.8194 36.0347 15.0804C36.3561 15.3447 36.6667 15.8123 36.6667 16.4314H32.6667ZM35 18.7055H36.3333V14.7055H35V18.7055ZM36.3333 18.7055C37.1687 18.7055 38.357 18.187 38.6224 16.8725L34.7016 16.0808C34.9136 15.0306 35.8239 14.7055 36.3333 14.7055V18.7055ZM38.6221 16.8741L38.9558 15.2286L35.0356 14.4337L34.7019 16.0792L38.6221 16.8741ZM38.955 15.2326C38.9356 15.3271 38.8874 15.5379 38.7294 15.7735C38.6407 15.9058 38.4851 16.0938 38.2344 16.2513C37.966 16.4199 37.652 16.5126 37.3333 16.5126V12.5126C36.335 12.5126 35.702 13.106 35.4071 13.5458C35.1478 13.9325 35.0624 14.3026 35.0364 14.4297L38.955 15.2326ZM37.3333 16.5126H38.6667V12.5126H37.3333V16.5126ZM36.6667 14.5126V14.5127H40.6667V14.5126H36.6667Z" fill="#F89406" fill-opacity="0.5" mask="url(#path-15-inside-2_819_1403)"/>
</g>
<path id="Vector_9" d="M33.3333 13.9644H34.6666C34.669 13.9641 34.671 13.9644 34.6733 13.9644C34.8573 13.9644 35.0066 13.8416 35.0066 13.6903C35.0066 13.6692 35.0036 13.6486 34.9983 13.6289C34.977 13.2389 34.75 12.5939 34 12.5939C33.209 12.5939 33 13.3112 33 13.6903C33 13.8416 33.1493 13.9644 33.3333 13.9644ZM34 13.1421C34.158 13.1421 34.2413 13.2791 34.285 13.4162H33.715C33.7587 13.2791 33.842 13.1421 34 13.1421Z" fill="#F89406" fill-opacity="0.5"/>
<path id="Vector_10" d="M32.0003 10.127C31.265 10.127 30.667 10.6187 30.667 11.2234C30.667 11.8281 31.265 12.3198 32.0003 12.3198C32.7356 12.3198 33.3336 11.8281 33.3336 11.2234C33.3336 10.6187 32.7357 10.127 32.0003 10.127ZM32.0003 11.7716C31.6327 11.7716 31.3336 11.5258 31.3336 11.2234C31.3336 10.9211 31.6326 10.6752 32.0003 10.6752C32.368 10.6752 32.667 10.921 32.667 11.2234C32.667 11.5257 32.368 11.7716 32.0003 11.7716Z" fill="#F89406" fill-opacity="0.5"/>
<path id="Vector_11" d="M42.3331 15.335C41.9217 15.335 41.5287 15.4611 41.2267 15.6823L39.9021 14.5929C39.7718 14.4858 39.5611 14.4858 39.4308 14.5929C39.3004 14.7001 39.3004 14.8734 39.4308 14.9805L41.0041 16.2743C41.0737 16.3316 41.1711 16.3598 41.2691 16.3535C41.3674 16.3464 41.4567 16.3037 41.5134 16.237C41.7008 16.0153 42.0071 15.8831 42.3331 15.8831C42.8844 15.8831 43.3331 16.2521 43.3331 16.7055C43.3331 17.1589 42.8844 17.5278 42.3331 17.5278C42.2417 17.5278 42.1457 17.5141 42.0321 17.4842C41.9134 17.4535 41.7837 17.4796 41.6957 17.5519C41.6077 17.6243 41.5761 17.7309 41.6134 17.8285C41.6497 17.9222 41.6664 18.0009 41.6664 18.076C41.6664 18.5294 41.2177 18.8984 40.6664 18.8984C40.1151 18.8984 39.6664 18.5294 39.6664 18.076C39.6664 17.808 39.8271 17.556 40.0967 17.402C40.1778 17.3554 40.2294 17.2819 40.2384 17.2011C40.2471 17.1202 40.2117 17.0405 40.1421 16.9832L37.9021 15.1412C37.7717 15.034 37.5611 15.034 37.4308 15.1412C37.3004 15.2484 37.3004 15.4216 37.4308 15.5288L39.4221 17.1663C39.1531 17.4146 38.9998 17.7378 38.9998 18.0761C38.9998 18.8318 39.7474 19.4466 40.6664 19.4466C41.5855 19.4466 42.3331 18.8318 42.3331 18.0761C43.2521 18.0761 43.9998 17.4613 43.9998 16.7055C43.9998 15.9498 43.2521 15.335 42.3331 15.335Z" fill="#F89406" fill-opacity="0.5"/>
</g>
</g>
</g>
<g id="Group_5">
<g id="Group_6">
<g id="Group_7">
<path id="Vector_12" d="M30.0977 15.1412L27.8577 16.9832C27.788 17.0405 27.7527 17.1203 27.7613 17.2011C27.77 17.282 27.822 17.3554 27.903 17.4021C28.1727 17.5561 28.3334 17.808 28.3334 18.0761C28.3334 18.5295 27.8847 18.8984 27.3334 18.8984C26.782 18.8984 26.3334 18.5295 26.3334 18.0761C26.3334 18.0007 26.35 17.922 26.386 17.8285C26.4237 17.731 26.392 17.6243 26.304 17.5517C26.216 17.4796 26.0867 17.4535 25.9673 17.4845C25.854 17.5141 25.7587 17.5278 25.6667 17.5278C25.1154 17.5278 24.6667 17.1589 24.6667 16.7055C24.6667 16.2521 25.1154 15.8831 25.6667 15.8831C25.9923 15.8831 26.2987 16.0156 26.4863 16.237C26.543 16.3037 26.6323 16.3464 26.7307 16.3535C26.829 16.3598 26.926 16.3316 26.9957 16.2743L28.569 14.9805C28.6993 14.8733 28.6993 14.7001 28.569 14.5929C28.4386 14.4858 28.228 14.4858 28.0977 14.5929L26.773 15.6822C26.471 15.4611 26.078 15.335 25.6667 15.335C24.7477 15.335 24 15.9498 24 16.7055C24 17.4613 24.7477 18.0761 25.6667 18.0761C25.6667 18.8318 26.4143 19.4467 27.3334 19.4467C28.2523 19.4466 29 18.8318 29 18.0761C29 17.7378 28.8467 17.4146 28.5777 17.1663L30.569 15.5288C30.6993 15.4216 30.6993 15.2483 30.569 15.1412C30.4387 15.034 30.228 15.034 30.0977 15.1412Z" fill="#F89406" fill-opacity="0.5"/>
<path id="Vector_13" d="M38.4021 6.8943L40.1421 5.46344C40.2118 5.40613 40.2471 5.32637 40.2384 5.24552C40.2294 5.16467 40.1777 5.0912 40.0967 5.04459C39.827 4.89054 39.6664 4.63863 39.6664 4.37057C39.6664 3.91719 40.115 3.54823 40.6664 3.54823C41.2177 3.54823 41.6664 3.91719 41.6664 4.37057C41.6664 4.44567 41.6497 4.52463 41.6134 4.6181C41.576 4.71595 41.6077 4.82231 41.6957 4.89497C41.784 4.96734 41.9137 4.99365 42.0324 4.96214C42.1454 4.93252 42.2411 4.91884 42.333 4.91884C42.8844 4.91884 43.333 5.28779 43.333 5.74117C43.333 6.19455 42.8844 6.56351 42.333 6.56351C42.0074 6.56351 41.7011 6.4311 41.5134 6.20961C41.4567 6.14299 41.3674 6.10052 41.2691 6.0931C41.1691 6.08626 41.0737 6.11504 41.0041 6.17232L39.2641 7.60315C39.1337 7.71031 39.1337 7.88358 39.2641 7.99074C39.3291 8.04419 39.4144 8.07104 39.4997 8.07104C39.5851 8.07104 39.6704 8.04419 39.7354 7.99074L41.2267 6.76437C41.5287 6.98556 41.9217 7.11168 42.333 7.11168C43.2521 7.11168 43.9997 6.49685 43.9997 5.74111C43.9997 4.98539 43.2521 4.37054 42.333 4.37054C42.333 3.61482 41.5854 3 40.6664 3C39.7474 3 38.9997 3.61482 38.9997 4.37057C38.9997 4.70882 39.153 5.032 39.4221 5.28034L37.9307 6.50671C37.8004 6.61391 37.8004 6.78714 37.9307 6.8943C38.0611 7.0015 38.2717 7.0015 38.4021 6.8943Z" fill="#F89406" fill-opacity="0.5"/>
<path id="Vector_14" d="M25.6667 7.11168C26.078 7.11168 26.471 6.98559 26.773 6.76437L28.2643 7.99074C28.3293 8.04419 28.4147 8.07104 28.5 8.07104C28.5853 8.07104 28.6707 8.04419 28.7357 7.99074C28.866 7.88355 28.866 7.71031 28.7357 7.60315L26.9957 6.17229C26.926 6.11498 26.8277 6.08649 26.7307 6.09307C26.6323 6.10046 26.543 6.14296 26.4863 6.20958C26.299 6.43132 25.9927 6.56347 25.6667 6.56347C25.1154 6.56347 24.6667 6.19451 24.6667 5.74114C24.6667 5.28776 25.1154 4.9188 25.6667 4.9188C25.758 4.9188 25.854 4.93252 25.9677 4.96239C26.086 4.9931 26.2157 4.96734 26.304 4.89468C26.392 4.82231 26.4237 4.71569 26.3864 4.6181C26.35 4.52463 26.3334 4.4457 26.3334 4.37057C26.3334 3.91719 26.782 3.54823 27.3334 3.54823C27.8847 3.54823 28.3334 3.91719 28.3334 4.37057C28.3334 4.63866 28.1727 4.89057 27.903 5.04459C27.822 5.0912 27.77 5.16467 27.7613 5.24552C27.7527 5.32637 27.788 5.40613 27.8577 5.46344L29.5977 6.8943C29.728 7.00146 29.9387 7.00146 30.069 6.8943C30.1993 6.78711 30.1993 6.61387 30.069 6.50671L28.5777 5.28034C28.8467 5.032 29 4.70882 29 4.37057C29 3.61482 28.2523 3 27.3333 3C26.4143 3 25.6667 3.61482 25.6667 4.37057C24.7477 4.37057 24 4.98539 24 5.74111C24 6.49685 24.7477 7.11168 25.6667 7.11168Z" fill="#F89406" fill-opacity="0.5"/>
<path id="Vector_15" d="M36.0003 12.3198C36.7357 12.3198 37.3336 11.8281 37.3336 11.2234C37.3336 10.6187 36.7356 10.127 36.0003 10.127C35.265 10.127 34.667 10.6187 34.667 11.2234C34.667 11.8281 35.265 12.3198 36.0003 12.3198ZM36.0003 10.6752C36.368 10.6752 36.667 10.921 36.667 11.2234C36.667 11.5257 36.368 11.7716 36.0003 11.7716C35.6326 11.7716 35.3336 11.5258 35.3336 11.2234C35.3336 10.9211 35.6327 10.6752 36.0003 10.6752Z" fill="#F89406" fill-opacity="0.5"/>
<g id="Vector_16">
<mask id="path-24-inside-3_819_1403" fill="white">
<path d="M38.6667 14.5127C38.8297 14.5127 38.9687 14.4156 38.9954 14.2838L39.312 12.7227C39.7746 12.3129 40 11.8214 40 11.2233C40 8.50277 37.3083 6.28931 34 6.28931C30.6917 6.28931 28 8.50277 28 11.2233C28 11.8127 28.2313 12.3165 28.6883 12.7227L29.0046 14.2838C29.0313 14.4156 29.1703 14.5126 29.3333 14.5126H30.6666C30.9356 14.5126 30.9913 14.7462 31.0046 14.832L31.338 16.4766C31.3646 16.6087 31.5036 16.7055 31.6666 16.7055H33.6666C33.8506 16.7055 34 16.5827 34 16.4314C34 16.2801 33.8506 16.1573 33.6666 16.1573H33.3333V15.335C33.3333 15.1837 33.184 15.0609 33 15.0609C32.816 15.0609 32.6667 15.1837 32.6667 15.335V16.1573H31.949L31.665 14.7585C31.6304 14.4839 31.3767 13.9644 30.6667 13.9644H29.6157L29.3287 12.5486C29.3174 12.4924 29.285 12.4403 29.2357 12.3998C28.8527 12.0854 28.6667 11.7005 28.6667 11.2233C28.6667 8.80507 31.0594 6.83751 34 6.83751C36.9407 6.83751 39.3333 8.80511 39.3333 11.2233C39.3333 11.8587 39.0087 12.1994 38.7643 12.3998C38.7154 12.4404 38.6827 12.4924 38.6713 12.5487L38.3843 13.9645H37.3333C36.6627 13.9645 36.3887 14.4746 36.338 14.7416L36.051 16.1574H35.3333V15.335C35.3333 15.1837 35.184 15.0609 35 15.0609C34.816 15.0609 34.6667 15.1837 34.6667 15.335V16.4314C34.6667 16.5827 34.816 16.7055 35 16.7055H36.3333C36.4963 16.7055 36.6353 16.6088 36.662 16.4767L36.9957 14.8312C37.0023 14.7985 37.07 14.5126 37.3333 14.5126H38.6667V14.5127Z"/>
</mask>
<path d="M38.6667 14.5127C38.8297 14.5127 38.9687 14.4156 38.9954 14.2838L39.312 12.7227C39.7746 12.3129 40 11.8214 40 11.2233C40 8.50277 37.3083 6.28931 34 6.28931C30.6917 6.28931 28 8.50277 28 11.2233C28 11.8127 28.2313 12.3165 28.6883 12.7227L29.0046 14.2838C29.0313 14.4156 29.1703 14.5126 29.3333 14.5126H30.6666C30.9356 14.5126 30.9913 14.7462 31.0046 14.832L31.338 16.4766C31.3646 16.6087 31.5036 16.7055 31.6666 16.7055H33.6666C33.8506 16.7055 34 16.5827 34 16.4314C34 16.2801 33.8506 16.1573 33.6666 16.1573H33.3333V15.335C33.3333 15.1837 33.184 15.0609 33 15.0609C32.816 15.0609 32.6667 15.1837 32.6667 15.335V16.1573H31.949L31.665 14.7585C31.6304 14.4839 31.3767 13.9644 30.6667 13.9644H29.6157L29.3287 12.5486C29.3174 12.4924 29.285 12.4403 29.2357 12.3998C28.8527 12.0854 28.6667 11.7005 28.6667 11.2233C28.6667 8.80507 31.0594 6.83751 34 6.83751C36.9407 6.83751 39.3333 8.80511 39.3333 11.2233C39.3333 11.8587 39.0087 12.1994 38.7643 12.3998C38.7154 12.4404 38.6827 12.4924 38.6713 12.5487L38.3843 13.9645H37.3333C36.6627 13.9645 36.3887 14.4746 36.338 14.7416L36.051 16.1574H35.3333V15.335C35.3333 15.1837 35.184 15.0609 35 15.0609C34.816 15.0609 34.6667 15.1837 34.6667 15.335V16.4314C34.6667 16.5827 34.816 16.7055 35 16.7055H36.3333C36.4963 16.7055 36.6353 16.6088 36.662 16.4767L36.9957 14.8312C37.0023 14.7985 37.07 14.5126 37.3333 14.5126H38.6667V14.5127Z" fill="#F89406" fill-opacity="0.5"/>
<path d="M38.6667 14.5127H36.6667V16.5127H38.6667V14.5127ZM38.9954 14.2838L37.0353 13.8862L37.0351 13.8871L38.9954 14.2838ZM39.312 12.7227L37.9858 11.2257L37.485 11.6694L37.352 12.3251L39.312 12.7227ZM28.6883 12.7227L30.6485 12.3255L30.5159 11.6713L30.0171 11.2279L28.6883 12.7227ZM29.0046 14.2838L30.9649 13.887L30.9648 13.8866L29.0046 14.2838ZM31.0046 14.832L29.0285 15.1397L29.0355 15.1846L29.0445 15.2292L31.0046 14.832ZM31.338 16.4766L33.2984 16.0807L33.2981 16.0794L31.338 16.4766ZM33.3333 16.1573H31.3333V18.1573H33.3333V16.1573ZM32.6667 16.1573V18.1573H34.6667V16.1573H32.6667ZM31.949 16.1573L29.989 16.5552L30.3143 18.1573H31.949V16.1573ZM31.665 14.7585L29.6808 15.0089L29.6901 15.0831L29.705 15.1564L31.665 14.7585ZM29.6157 13.9644L27.6556 14.3618L27.9804 15.9644H29.6157V13.9644ZM29.3287 12.5486L27.3682 12.9439L27.3686 12.946L29.3287 12.5486ZM29.2357 12.3998L30.506 10.855L30.5047 10.8539L29.2357 12.3998ZM38.7643 12.3998L37.4961 10.8533L37.4886 10.8595L38.7643 12.3998ZM38.6713 12.5487L40.6315 12.946L40.6319 12.9437L38.6713 12.5487ZM38.3843 13.9645V15.9645H40.0196L40.3445 14.3618L38.3843 13.9645ZM36.338 14.7416L38.2981 15.1389L38.3006 15.1268L38.3029 15.1147L36.338 14.7416ZM36.051 16.1574V18.1574H37.6862L38.0111 16.5547L36.051 16.1574ZM35.3333 16.1574H33.3333V18.1574H35.3333V16.1574ZM36.662 16.4767L34.7019 16.0792L34.7016 16.0808L36.662 16.4767ZM36.9957 14.8312L35.0364 14.4297L35.0356 14.4337L36.9957 14.8312ZM38.6667 14.5126H40.6667V12.5126H38.6667V14.5126ZM38.6667 16.5127C39.5042 16.5127 40.6901 15.9923 40.9556 14.6805L37.0351 13.8871C37.2472 12.8389 38.1552 12.5127 38.6667 12.5127V16.5127ZM40.9554 14.6814L41.2721 13.1204L37.352 12.3251L37.0353 13.8862L40.9554 14.6814ZM40.6382 14.2198C41.5135 13.4444 42 12.4147 42 11.2233H38C38 11.2467 37.9979 11.2528 37.9993 11.2458C38 11.2426 38.0013 11.2373 38.0035 11.2306C38.0057 11.2238 38.0084 11.2167 38.0117 11.2097C38.0149 11.2027 38.018 11.197 38.0206 11.1927C38.0231 11.1884 38.0246 11.1866 38.0242 11.1872C38.0234 11.1881 38.0131 11.2015 37.9858 11.2257L40.6382 14.2198ZM42 11.2233C42 7.05006 38.0292 4.28931 34 4.28931V8.28931C36.5875 8.28931 38 9.95548 38 11.2233H42ZM34 4.28931C29.9708 4.28931 26 7.05006 26 11.2233H30C30 9.95548 31.4125 8.28931 34 8.28931V4.28931ZM26 11.2233C26 12.408 26.494 13.4481 27.3596 14.2175L30.0171 11.2279C29.9938 11.2072 29.9843 11.195 29.9827 11.1929C29.9819 11.1918 29.9825 11.1926 29.9842 11.1953C29.9858 11.1981 29.988 11.2021 29.9904 11.2072C29.9927 11.2124 29.9949 11.2177 29.9966 11.223C29.9984 11.2283 29.9995 11.2327 30.0001 11.2357C30.0015 11.2423 30 11.2392 30 11.2233H26ZM26.7282 13.1199L27.0445 14.681L30.9648 13.8866L30.6485 12.3255L26.7282 13.1199ZM27.0444 14.6805C27.3099 15.9923 28.4958 16.5126 29.3333 16.5126V12.5126C29.8448 12.5126 30.7528 12.8389 30.9649 13.887L27.0444 14.6805ZM29.3333 16.5126H30.6666V12.5126H29.3333V16.5126ZM30.6666 16.5126C30.4339 16.5126 30.158 16.4592 29.8846 16.3123C29.6159 16.168 29.4268 15.975 29.3023 15.8002C29.0817 15.4903 29.0383 15.2026 29.0285 15.1397L32.9808 14.5243C32.9577 14.3755 32.8797 13.9281 32.5607 13.48C32.1662 12.926 31.498 12.5126 30.6666 12.5126V16.5126ZM29.0445 15.2292L29.3778 16.8739L33.2981 16.0794L32.9648 14.4347L29.0445 15.2292ZM29.3775 16.8725C29.643 18.187 30.8312 18.7055 31.6666 18.7055V14.7055C32.176 14.7055 33.0863 15.0305 33.2984 16.0807L29.3775 16.8725ZM31.6666 18.7055H33.6666V14.7055H31.6666V18.7055ZM33.6666 18.7055C34.5715 18.7055 36 18.0354 36 16.4314H32C32 15.8122 32.3106 15.3447 32.632 15.0804C32.9494 14.8194 33.3216 14.7055 33.6666 14.7055V18.7055ZM36 16.4314C36 14.8274 34.5715 14.1573 33.6666 14.1573V18.1573C33.3216 18.1573 32.9494 18.0434 32.632 17.7824C32.3106 17.5181 32 17.0505 32 16.4314H36ZM33.6666 14.1573H33.3333V18.1573H33.6666V14.1573ZM35.3333 16.1573V15.335H31.3333V16.1573H35.3333ZM35.3333 15.335C35.3333 13.731 33.9048 13.0609 33 13.0609V17.0609C32.655 17.0609 32.2828 16.947 31.9653 16.686C31.6439 16.4217 31.3333 15.9541 31.3333 15.335H35.3333ZM33 13.0609C32.0952 13.0609 30.6667 13.731 30.6667 15.335H34.6667C34.6667 15.9541 34.3561 16.4217 34.0347 16.686C33.7172 16.947 33.345 17.0609 33 17.0609V13.0609ZM30.6667 15.335V16.1573H34.6667V15.335H30.6667ZM32.6667 14.1573H31.949V18.1573H32.6667V14.1573ZM33.909 15.7594L33.6251 14.3606L29.705 15.1564L29.989 16.5552L33.909 15.7594ZM33.6493 14.5082C33.5843 13.9932 33.3491 13.3846 32.8669 12.8786C32.3303 12.3156 31.5649 11.9644 30.6667 11.9644V15.9644C30.5952 15.9644 30.4748 15.9502 30.3323 15.8894C30.1905 15.8288 30.068 15.7397 29.9714 15.6384C29.8022 15.4608 29.7111 15.2492 29.6808 15.0089L33.6493 14.5082ZM30.6667 11.9644H29.6157V15.9644H30.6667V11.9644ZM31.5758 13.5671L31.2888 12.1513L27.3686 12.946L27.6556 14.3618L31.5758 13.5671ZM31.2893 12.1533C31.1777 11.6001 30.8729 11.1567 30.506 10.855L27.9654 13.9445C27.6972 13.724 27.4571 13.3848 27.3682 12.9439L31.2893 12.1533ZM30.5047 10.8539C30.5036 10.853 30.5587 10.8997 30.6081 11.0019C30.6588 11.1067 30.6667 11.1936 30.6667 11.2233H26.6667C26.6667 12.3246 27.1409 13.2677 27.9667 13.9456L30.5047 10.8539ZM30.6667 11.2233C30.6667 10.2578 31.7802 8.83751 34 8.83751V4.83751C30.3385 4.83751 26.6667 7.35237 26.6667 11.2233H30.6667ZM34 8.83751C36.2198 8.83751 37.3333 10.2578 37.3333 11.2233H41.3333C41.3333 7.35243 37.6616 4.83751 34 4.83751V8.83751ZM37.3333 11.2233C37.3333 11.2094 37.3354 11.1709 37.3505 11.1162C37.3656 11.0613 37.3889 11.0077 37.4172 10.9597C37.4717 10.867 37.5255 10.8292 37.4961 10.8533L40.0326 13.9463C40.5147 13.5509 41.3333 12.6985 41.3333 11.2233H37.3333ZM37.4886 10.8595C37.132 11.1549 36.8234 11.5944 36.7107 12.1536L40.6319 12.9437C40.5419 13.3905 40.2987 13.7259 40.0401 13.9401L37.4886 10.8595ZM36.7112 12.1513L36.4242 13.5671L40.3445 14.3618L40.6315 12.946L36.7112 12.1513ZM38.3843 11.9645H37.3333V15.9645H38.3843V11.9645ZM37.3333 11.9645C35.3747 11.9645 34.534 13.5208 34.3731 14.3684L38.3029 15.1147C38.2615 15.3326 38.1733 15.5091 38.0272 15.6572C37.942 15.7436 37.8299 15.8263 37.6927 15.8854C37.5531 15.9455 37.4257 15.9645 37.3333 15.9645V11.9645ZM34.3778 14.3442L34.0908 15.76L38.0111 16.5547L38.2981 15.1389L34.3778 14.3442ZM36.051 14.1574H35.3333V18.1574H36.051V14.1574ZM37.3333 16.1574V15.335H33.3333V16.1574H37.3333ZM37.3333 15.335C37.3333 13.731 35.9048 13.0609 35 13.0609V17.0609C34.655 17.0609 34.2828 16.947 33.9653 16.686C33.6439 16.4217 33.3333 15.9541 33.3333 15.335H37.3333ZM35 13.0609C34.0952 13.0609 32.6667 13.731 32.6667 15.335H36.6667C36.6667 15.9541 36.3561 16.4217 36.0347 16.686C35.7172 16.947 35.345 17.0609 35 17.0609V13.0609ZM32.6667 15.335V16.4314H36.6667V15.335H32.6667ZM32.6667 16.4314C32.6667 18.0354 34.0952 18.7055 35 18.7055V14.7055C35.345 14.7055 35.7172 14.8194 36.0347 15.0804C36.3561 15.3447 36.6667 15.8123 36.6667 16.4314H32.6667ZM35 18.7055H36.3333V14.7055H35V18.7055ZM36.3333 18.7055C37.1687 18.7055 38.357 18.187 38.6224 16.8725L34.7016 16.0808C34.9136 15.0306 35.8239 14.7055 36.3333 14.7055V18.7055ZM38.6221 16.8741L38.9558 15.2286L35.0356 14.4337L34.7019 16.0792L38.6221 16.8741ZM38.955 15.2326C38.9356 15.3271 38.8874 15.5379 38.7294 15.7735C38.6407 15.9058 38.4851 16.0938 38.2344 16.2513C37.966 16.4199 37.652 16.5126 37.3333 16.5126V12.5126C36.335 12.5126 35.702 13.106 35.4071 13.5458C35.1478 13.9325 35.0624 14.3026 35.0364 14.4297L38.955 15.2326ZM37.3333 16.5126H38.6667V12.5126H37.3333V16.5126ZM36.6667 14.5126V14.5127H40.6667V14.5126H36.6667Z" fill="#F89406" fill-opacity="0.5" mask="url(#path-24-inside-3_819_1403)"/>
</g>
<path id="Vector_17" d="M33.3333 13.9644H34.6666C34.669 13.9641 34.671 13.9644 34.6733 13.9644C34.8573 13.9644 35.0066 13.8416 35.0066 13.6903C35.0066 13.6692 35.0036 13.6486 34.9983 13.6289C34.977 13.2389 34.75 12.5939 34 12.5939C33.209 12.5939 33 13.3112 33 13.6903C33 13.8416 33.1493 13.9644 33.3333 13.9644ZM34 13.1421C34.158 13.1421 34.2413 13.2791 34.285 13.4162H33.715C33.7587 13.2791 33.842 13.1421 34 13.1421Z" fill="#F89406" fill-opacity="0.5"/>
<path id="Vector_18" d="M32.0003 10.127C31.265 10.127 30.667 10.6187 30.667 11.2234C30.667 11.8281 31.265 12.3198 32.0003 12.3198C32.7356 12.3198 33.3336 11.8281 33.3336 11.2234C33.3336 10.6187 32.7357 10.127 32.0003 10.127ZM32.0003 11.7716C31.6327 11.7716 31.3336 11.5258 31.3336 11.2234C31.3336 10.9211 31.6326 10.6752 32.0003 10.6752C32.368 10.6752 32.667 10.921 32.667 11.2234C32.667 11.5257 32.368 11.7716 32.0003 11.7716Z" fill="#F89406" fill-opacity="0.5"/>
<path id="Vector_19" d="M42.3331 15.335C41.9217 15.335 41.5287 15.4611 41.2267 15.6823L39.9021 14.5929C39.7718 14.4858 39.5611 14.4858 39.4308 14.5929C39.3004 14.7001 39.3004 14.8734 39.4308 14.9805L41.0041 16.2743C41.0737 16.3316 41.1711 16.3598 41.2691 16.3535C41.3674 16.3464 41.4567 16.3037 41.5134 16.237C41.7008 16.0153 42.0071 15.8831 42.3331 15.8831C42.8844 15.8831 43.3331 16.2521 43.3331 16.7055C43.3331 17.1589 42.8844 17.5278 42.3331 17.5278C42.2417 17.5278 42.1457 17.5141 42.0321 17.4842C41.9134 17.4535 41.7837 17.4796 41.6957 17.5519C41.6077 17.6243 41.5761 17.7309 41.6134 17.8285C41.6497 17.9222 41.6664 18.0009 41.6664 18.076C41.6664 18.5294 41.2177 18.8984 40.6664 18.8984C40.1151 18.8984 39.6664 18.5294 39.6664 18.076C39.6664 17.808 39.8271 17.556 40.0967 17.402C40.1778 17.3554 40.2294 17.2819 40.2384 17.2011C40.2471 17.1202 40.2117 17.0405 40.1421 16.9832L37.9021 15.1412C37.7717 15.034 37.5611 15.034 37.4308 15.1412C37.3004 15.2484 37.3004 15.4216 37.4308 15.5288L39.4221 17.1663C39.1531 17.4146 38.9998 17.7378 38.9998 18.0761C38.9998 18.8318 39.7474 19.4466 40.6664 19.4466C41.5855 19.4466 42.3331 18.8318 42.3331 18.0761C43.2521 18.0761 43.9998 17.4613 43.9998 16.7055C43.9998 15.9498 43.2521 15.335 42.3331 15.335Z" fill="#F89406" fill-opacity="0.5"/>
</g>
</g>
</g>
</g>
</g>
<defs>
<clipPath id="clip0_819_1403">
<rect width="20" height="16.4467" fill="white" transform="translate(24 3)"/>
</clipPath>
</defs>
</svg>
