<svg width="257" height="76" viewBox="0 0 257 76" fill="none" xmlns="http://www.w3.org/2000/svg">
<path d="M0.875 2.5C0.875 2 1.02083 1.64583 1.3125 1.4375C1.60417 1.22917 1.95833 1.08333 2.375 1C2.79167 0.916667 3.22917 0.875 3.6875 0.875C4.14583 0.875 4.54167 0.854167 4.875 0.8125V7.4375C7.91667 6.52083 10.4375 5.70833 12.4375 5C14.4375 4.25 16.25 3.60417 17.875 3.0625C19.5 2.47917 21.0833 1.95833 22.625 1.5C24.1667 1 26 0.520833 28.125 0.0625C28.4583 0.0625 28.6875 0.229167 28.8125 0.5625C28.9375 0.895833 29 1.1875 29 1.4375C29 1.97917 28.7083 2.41667 28.125 2.75L5.125 11.1875L6.1875 31.4375C9.60417 29.5208 12.4792 27.8958 14.8125 26.5625C17.1875 25.2292 19.1458 24.125 20.6875 23.25C22.2292 22.375 23.4167 21.7083 24.25 21.25C25.125 20.7917 25.7708 20.4583 26.1875 20.25C26.6042 20.0417 26.8542 19.9167 26.9375 19.875C27.0208 19.8333 27.0833 19.8125 27.125 19.8125C27.5 19.6875 27.75 19.7083 27.875 19.875C28 20 28.0625 20.2083 28.0625 20.5C28.0625 20.7917 28 21.125 27.875 21.5C27.7917 21.875 27.6875 22.2292 27.5625 22.5625C27.3542 22.8542 26.6667 23.3542 25.5 24.0625C24.375 24.7708 23.0208 25.5833 21.4375 26.5C19.8542 27.4167 18.1667 28.3958 16.375 29.4375C14.625 30.4375 12.9792 31.375 11.4375 32.25C9.9375 33.125 8.6875 33.8958 7.6875 34.5625C6.6875 35.2292 6.1875 35.6667 6.1875 35.875L6.375 52.1875C6.375 52.7708 6.27083 53.2292 6.0625 53.5625C5.85417 53.8958 5.52083 54.0625 5.0625 54.0625C4.5625 54.0625 4.10417 53.4167 3.6875 52.125C3.3125 50.7917 2.97917 49.0417 2.6875 46.875C2.39583 44.6667 2.14583 42.1458 1.9375 39.3125C1.72917 36.4375 1.5625 33.4792 1.4375 30.4375C1.3125 27.3958 1.20833 24.375 1.125 21.375C1.04167 18.3333 0.979167 15.5417 0.9375 13C0.895833 10.4583 0.875 8.25 0.875 6.375C0.875 4.5 0.875 3.20833 0.875 2.5ZM47.25 53.375C46.6667 52.5 46.2917 51.3542 46.125 49.9375C46 48.5208 45.9167 47.0417 45.875 45.5C45.875 43.9167 45.875 42.375 45.875 40.875C45.9167 39.3333 45.8125 38.0208 45.5625 36.9375C43.6042 41.2292 41.75 44.5833 40 47C38.2917 49.375 36.7083 51.0833 35.25 52.125C33.8333 53.125 32.5417 53.5833 31.375 53.5C30.2083 53.375 29.2083 52.9583 28.375 52.25C27.5833 51.5 26.9583 50.6042 26.5 49.5625C26.0417 48.4792 25.7917 47.4583 25.75 46.5C25.4583 44.9167 25.4375 43.0208 25.6875 40.8125C25.9792 38.5625 26.4583 36.25 27.125 33.875C27.8333 31.5 28.7083 29.1875 29.75 26.9375C30.8333 24.6458 32.0417 22.6667 33.375 21C34.75 19.3333 36.2083 18.1042 37.75 17.3125C39.2917 16.4792 40.8958 16.3333 42.5625 16.875C43.3958 16.7917 44.0833 16.8333 44.625 17C45.2083 17.125 45.6875 17.4167 46.0625 17.875C46.4375 18.3333 46.7083 18.9792 46.875 19.8125C47.0417 20.6042 47.1667 21.625 47.25 22.875C47.1667 26.9167 47.2708 30.3542 47.5625 33.1875C47.8958 36.0208 48.2708 38.5208 48.6875 40.6875C49.1042 42.8542 49.5 44.8125 49.875 46.5625C50.2917 48.3125 50.5417 50.125 50.625 52C50.625 52.6667 50.4583 53.1875 50.125 53.5625C49.7917 53.8958 49.4167 54.1042 49 54.1875C48.5833 54.3125 48.1875 54.2917 47.8125 54.125C47.4792 53.9583 47.2917 53.7083 47.25 53.375ZM43.625 21.8125C42.625 20.4792 41.5417 19.9167 40.375 20.125C39.2083 20.3333 38.0417 21.0625 36.875 22.3125C35.75 23.5208 34.6667 25.125 33.625 27.125C32.5833 29.0833 31.6875 31.1875 30.9375 33.4375C30.1875 35.6875 29.625 37.9375 29.25 40.1875C28.9167 42.3958 28.8542 44.3542 29.0625 46.0625C29.6458 47.9375 30.3542 49.0625 31.1875 49.4375C32.0208 49.8125 32.9167 49.6875 33.875 49.0625C34.8333 48.3958 35.8125 47.3542 36.8125 45.9375C37.8125 44.5208 38.7708 43 39.6875 41.375C40.6042 39.7083 41.4167 38.0625 42.125 36.4375C42.875 34.7708 43.4792 33.375 43.9375 32.25L43.625 21.8125ZM53.125 16.75C53.1667 16.3333 53.3333 16 53.625 15.75C53.9167 15.5 54.25 15.3542 54.625 15.3125C55 15.2292 55.375 15.2708 55.75 15.4375C56.125 15.5625 56.4375 15.7708 56.6875 16.0625L56.5 41.0625C57.2917 38.0625 58 35.1042 58.625 32.1875C59.2917 29.2292 60.1042 26.5625 61.0625 24.1875C62.0208 21.7708 63.2292 19.7917 64.6875 18.25C66.1458 16.6667 68.0833 15.7708 70.5 15.5625C71.7917 15.4375 72.9167 15.8333 73.875 16.75C74.8333 17.625 75.6458 18.8333 76.3125 20.375C77.0208 21.9167 77.6042 23.7292 78.0625 25.8125C78.5208 27.8542 78.875 30 79.125 32.25C79.4167 34.4583 79.625 36.6875 79.75 38.9375C79.875 41.1875 79.9583 43.2708 80 45.1875C80.0417 47.1042 80.0417 48.7917 80 50.25C80 51.7083 79.9792 52.7708 79.9375 53.4375C79.6458 54.1458 79.125 54.6042 78.375 54.8125C77.6667 55.0625 77.0208 54.7708 76.4375 53.9375C76.3958 53.1458 76.375 51.7917 76.375 49.875C76.375 47.9167 76.3333 45.6875 76.25 43.1875C76.2083 40.6875 76.0833 38.0833 75.875 35.375C75.7083 32.625 75.3958 30.1042 74.9375 27.8125C74.5208 25.4792 73.9167 23.5417 73.125 22C72.375 20.4167 71.3958 19.5208 70.1875 19.3125C69.1458 19.1458 68.125 19.7083 67.125 21C66.1667 22.2917 65.2292 24 64.3125 26.125C63.4375 28.25 62.6042 30.6458 61.8125 33.3125C61.0625 35.9792 60.375 38.6042 59.75 41.1875C59.1667 43.7708 58.6667 46.1458 58.25 48.3125C57.8333 50.4792 57.5625 52.1458 57.4375 53.3125C57.3125 53.6458 57.0625 53.9167 56.6875 54.125C56.3125 54.3333 55.8958 54.4375 55.4375 54.4375C55.0208 54.4792 54.5833 54.4167 54.125 54.25C53.7083 54.0833 53.3958 53.7708 53.1875 53.3125L53.125 16.75ZM94.5625 54.0625L80.75 22.625C80.4167 22.125 80.3333 21.625 80.5 21.125C80.6667 20.5833 80.9583 20.1667 81.375 19.875C81.7917 19.5833 82.2708 19.4792 82.8125 19.5625C83.3958 19.6042 83.9167 19.9375 84.375 20.5625L95.875 48.0625L101.312 17C101.562 16.875 101.854 16.7708 102.188 16.6875C102.562 16.6042 102.917 16.5833 103.25 16.625C103.625 16.6667 103.958 16.7917 104.25 17C104.542 17.2083 104.729 17.5417 104.812 18C104.604 19.6667 104.292 21.7917 103.875 24.375C103.458 26.9583 103 29.625 102.5 32.375C102 35.0833 101.5 37.6875 101 40.1875C100.542 42.6458 100.188 44.6042 99.9375 46.0625C99.7708 46.9375 99.5625 48.125 99.3125 49.625C99.0625 51.0833 98.7708 52.6875 98.4375 54.4375C98.1458 56.1875 97.8125 58 97.4375 59.875C97.1042 61.7917 96.7708 63.625 96.4375 65.375C96.1458 67.125 95.8333 68.7083 95.5 70.125C95.2083 71.5833 94.9583 72.75 94.75 73.625C94.6667 74.125 94.4167 74.5 94 74.75C93.5833 75 93.125 75.1042 92.625 75.0625C92.125 75.0208 91.6458 74.8542 91.1875 74.5625C90.7708 74.2708 90.5417 73.8542 90.5 73.3125L94.5625 54.0625ZM109 51.3125C108.875 42.3958 108.729 34.9792 108.562 29.0625C108.396 23.1042 108.25 18.2917 108.125 14.625C108 10.9167 107.896 8.1875 107.812 6.4375C107.729 4.64583 107.688 3.47917 107.688 2.9375C107.688 2.3125 107.854 1.8125 108.188 1.4375C108.562 1.0625 108.958 0.895833 109.375 0.9375C109.792 0.9375 110.188 1.16667 110.562 1.625C110.938 2.04167 111.146 2.72917 111.188 3.6875L113.188 49.5L140.312 43.75C143.104 43.75 143.708 44.9375 142.125 47.3125L110.75 54C109.583 54 109 53.1042 109 51.3125ZM152.875 53.75C151.208 53.5417 149.833 52.875 148.75 51.75C147.708 50.625 146.875 49.25 146.25 47.625C145.625 46 145.208 44.2292 145 42.3125C144.833 40.3542 144.792 38.4375 144.875 36.5625C145 33.6875 145.521 30.9375 146.438 28.3125C147.396 25.6875 148.562 23.4167 149.938 21.5C151.354 19.5417 152.896 18.0417 154.562 17C156.271 15.9167 157.938 15.5 159.562 15.75C161.271 16 162.646 16.8125 163.688 18.1875C164.771 19.5625 165.604 21.25 166.188 23.25C166.771 25.25 167.125 27.4375 167.25 29.8125C167.375 32.1458 167.354 34.3958 167.188 36.5625C166.979 39.0208 166.438 41.3125 165.562 43.4375C164.688 45.5625 163.583 47.3958 162.25 48.9375C160.958 50.4792 159.479 51.6875 157.812 52.5625C156.188 53.3958 154.542 53.7917 152.875 53.75ZM158.938 19.3125C157.562 19.1458 156.271 19.5833 155.062 20.625C153.896 21.625 152.833 22.9792 151.875 24.6875C150.958 26.3542 150.188 28.2708 149.562 30.4375C148.938 32.5625 148.521 34.6667 148.312 36.75C148.146 38.25 148.083 39.7917 148.125 41.375C148.167 42.9583 148.354 44.3958 148.688 45.6875C149.062 46.9792 149.625 48.0417 150.375 48.875C151.167 49.6667 152.208 50.0625 153.5 50.0625C154.542 50.1042 155.625 49.75 156.75 49C157.917 48.25 159 47.25 160 46C161 44.7083 161.875 43.25 162.625 41.625C163.417 40 163.938 38.3333 164.188 36.625C164.479 34.8333 164.542 33 164.375 31.125C164.25 29.2083 163.938 27.4375 163.438 25.8125C162.979 24.1875 162.354 22.7917 161.562 21.625C160.812 20.4167 159.938 19.6458 158.938 19.3125ZM187.812 17.125C187.854 16.875 187.979 16.6042 188.188 16.3125C188.438 15.9792 188.729 15.75 189.062 15.625C189.438 15.5 189.833 15.5625 190.25 15.8125C190.708 16.0208 191.167 16.5208 191.625 17.3125C191.458 20.5208 191.25 23.7292 191 26.9375C190.792 30.1042 190.688 33.25 190.688 36.375C190.729 39.4583 190.938 42.5208 191.312 45.5625C191.729 48.6042 192.458 51.5625 193.5 54.4375C193.542 54.7292 193.438 54.9792 193.188 55.1875C192.938 55.4375 192.604 55.6042 192.188 55.6875C191.771 55.8125 191.354 55.8542 190.938 55.8125C190.521 55.7708 190.188 55.5833 189.938 55.25L187.75 44.8125C187.583 45.3542 187.104 46.1458 186.312 47.1875C185.562 48.2292 184.667 49.2917 183.625 50.375C182.625 51.4167 181.583 52.3542 180.5 53.1875C179.417 53.9792 178.479 54.3958 177.688 54.4375C175.729 54.5625 174.188 53.875 173.062 52.375C171.938 50.875 171.104 48.9167 170.562 46.5C170.062 44.0417 169.771 41.3125 169.688 38.3125C169.604 35.3125 169.604 32.3958 169.688 29.5625C169.771 26.7292 169.875 24.1667 170 21.875C170.125 19.5833 170.125 17.8958 170 16.8125C170.125 16.4792 170.333 16.2292 170.625 16.0625C170.958 15.8958 171.312 15.8125 171.688 15.8125C172.062 15.8125 172.417 15.8958 172.75 16.0625C173.125 16.2292 173.396 16.4792 173.562 16.8125C173.646 18.2292 173.667 20 173.625 22.125C173.583 24.25 173.542 26.5208 173.5 28.9375C173.458 31.3125 173.458 33.7083 173.5 36.125C173.583 38.5417 173.75 40.75 174 42.75C174.25 44.7083 174.625 46.3542 175.125 47.6875C175.667 48.9792 176.417 49.7083 177.375 49.875C178.083 49.875 178.792 49.6458 179.5 49.1875C180.208 48.7292 180.917 48.1458 181.625 47.4375C182.333 46.6875 183 45.875 183.625 45C184.25 44.0833 184.792 43.2083 185.25 42.375C185.708 41.5 186.083 40.7083 186.375 40C186.667 39.2917 186.833 38.75 186.875 38.375C186.917 37.875 186.979 37.0833 187.062 36C187.146 34.875 187.208 33.625 187.25 32.25C187.333 30.8333 187.396 29.3333 187.438 27.75C187.521 26.1667 187.583 24.6875 187.625 23.3125C187.708 21.8958 187.75 20.6458 187.75 19.5625C187.792 18.4375 187.812 17.625 187.812 17.125ZM196.062 15.625C196.312 15.5 196.604 15.3958 196.938 15.3125C197.271 15.2292 197.583 15.1875 197.875 15.1875C198.208 15.1875 198.521 15.25 198.812 15.375C199.104 15.5 199.333 15.7292 199.5 16.0625C199.5 18.7708 199.521 21.7083 199.562 24.875C199.646 28 199.729 31.1875 199.812 34.4375C199.938 37.6458 200.042 40.8125 200.125 43.9375C200.208 47.0625 200.292 49.9583 200.375 52.625C200.417 53.25 200.25 53.7292 199.875 54.0625C199.5 54.3958 199.083 54.5625 198.625 54.5625C198.208 54.5625 197.812 54.3958 197.438 54.0625C197.062 53.7708 196.875 53.2917 196.875 52.625L196.062 15.625ZM195.312 2.875C195.312 2.33333 195.5 1.97917 195.875 1.8125C196.25 1.60417 196.667 1.5 197.125 1.5C198.042 1.5 198.604 1.8125 198.812 2.4375C199.062 3.02083 199.188 3.70833 199.188 4.5C198.938 5 198.604 5.35417 198.188 5.5625C197.771 5.77083 197.333 5.8125 196.875 5.6875C196.458 5.5625 196.083 5.27083 195.75 4.8125C195.458 4.35417 195.312 3.70833 195.312 2.875ZM204.75 49.5C205.542 50.125 206.5 50.4583 207.625 50.5C208.792 50.5417 210 50.3958 211.25 50.0625C212.542 49.6875 213.833 49.1667 215.125 48.5C216.458 47.7917 217.667 47.0208 218.75 46.1875C219.875 45.3542 220.833 44.4792 221.625 43.5625C222.458 42.6042 223.021 41.7083 223.312 40.875C223.604 40 223.583 39.2083 223.25 38.5C222.917 37.7917 222.167 37.2292 221 36.8125C218.875 37.3125 216.75 37.7083 214.625 38C212.5 38.2917 210.583 38.2917 208.875 38C207.208 37.7083 205.854 37.0208 204.812 35.9375C203.771 34.8542 203.292 33.1875 203.375 30.9375C203.5 28.7708 204.083 26.75 205.125 24.875C206.208 22.9583 207.562 21.3333 209.188 20C210.854 18.6667 212.688 17.6458 214.688 16.9375C216.729 16.2292 218.792 15.9375 220.875 16.0625C221.292 16.1042 221.667 16.1458 222 16.1875C222.375 16.1875 222.708 16.25 223 16.375C223.292 16.5 223.5 16.6875 223.625 16.9375C223.792 17.1875 223.854 17.5625 223.812 18.0625C223.771 18.6875 223.542 19.1875 223.125 19.5625C222.708 19.9375 222.146 20.0833 221.438 20C218.979 19.5 216.771 19.6042 214.812 20.3125C212.854 21.0208 211.229 22.0208 209.938 23.3125C208.646 24.5625 207.729 25.9792 207.188 27.5625C206.646 29.1458 206.562 30.5833 206.938 31.875C207.729 33.375 208.75 34.3333 210 34.75C211.292 35.125 212.646 35.25 214.062 35.125C215.521 35 217 34.7917 218.5 34.5C220 34.1667 221.354 34.0625 222.562 34.1875C223.771 34.2708 224.771 34.7292 225.562 35.5625C226.354 36.3542 226.792 37.8333 226.875 40C226.833 41.375 226.375 42.7083 225.5 44C224.625 45.25 223.5 46.4375 222.125 47.5625C220.792 48.6458 219.292 49.6458 217.625 50.5625C215.958 51.4375 214.292 52.1667 212.625 52.75C211 53.3333 209.458 53.7292 208 53.9375C206.583 54.1458 205.438 54.125 204.562 53.875C203.604 53.0417 203.104 52.2292 203.062 51.4375C203.021 50.6042 203.583 49.9583 204.75 49.5ZM231.5 37.3125C231.208 37.5625 230.688 37.6667 229.938 37.625C229.229 37.5417 228.562 37.375 227.938 37.125C227.354 36.875 226.958 36.5417 226.75 36.125C226.542 35.6667 226.792 35.1458 227.5 34.5625C227.792 34.3125 228.104 34.1458 228.438 34.0625C228.812 33.9375 229.167 33.8333 229.5 33.75C229.875 33.625 230.167 33.4583 230.375 33.25C230.625 33.0417 230.771 32.7083 230.812 32.25C230.854 30.375 231 28.4583 231.25 26.5C231.542 24.5417 232.062 22.7917 232.812 21.25C233.562 19.7083 234.625 18.4792 236 17.5625C237.417 16.6458 239.271 16.2917 241.562 16.5C242.396 16.5 243.333 16.7083 244.375 17.125C245.417 17.5 246.417 18.0208 247.375 18.6875C248.333 19.3125 249.167 20.0833 249.875 21C250.583 21.875 251.021 22.8333 251.188 23.875C251.479 24.2917 251.312 24.8125 250.688 25.4375C250.062 26.0625 249.188 26.7708 248.062 27.5625C246.938 28.3125 245.667 29.0833 244.25 29.875C242.833 30.6667 241.458 31.4167 240.125 32.125C238.833 32.8333 237.688 33.4583 236.688 34C235.688 34.5417 235.042 34.9167 234.75 35.125C235 36.75 235.271 38.4583 235.562 40.25C235.854 42.0417 236.271 43.6875 236.812 45.1875C237.354 46.6875 238.021 47.9375 238.812 48.9375C239.646 49.8958 240.688 50.375 241.938 50.375C243.771 50.5 245.333 50.2292 246.625 49.5625C247.958 48.8958 249.062 48.0208 249.938 46.9375C250.812 45.8542 251.5 44.6667 252 43.375C252.542 42.0833 252.938 40.8542 253.188 39.6875C253.479 38.5208 253.667 37.5417 253.75 36.75C253.875 35.9167 253.979 35.4583 254.062 35.375C254.521 35.125 255.042 35.125 255.625 35.375C256.208 35.5833 256.542 36.1875 256.625 37.1875C256.667 38.8125 256.312 40.6667 255.562 42.75C254.812 44.8333 253.771 46.75 252.438 48.5C251.146 50.25 249.583 51.6667 247.75 52.75C245.958 53.7917 244.042 54.1458 242 53.8125C239.875 53.7708 238.188 53.1667 236.938 52C235.688 50.7917 234.688 49.3542 233.938 47.6875C233.229 45.9792 232.708 44.1875 232.375 42.3125C232.042 40.4375 231.75 38.7708 231.5 37.3125ZM247.875 23.875C246.542 22.0417 245.188 20.875 243.812 20.375C242.438 19.875 241.021 19.7292 239.562 19.9375C238.688 20.0625 237.917 20.4792 237.25 21.1875C236.583 21.8542 236.042 22.7292 235.625 23.8125C235.208 24.8542 234.917 26.0417 234.75 27.375C234.583 28.6667 234.562 30 234.688 31.375L247.875 23.875Z" fill="black"/>
</svg>
