<svg width="24" height="24" viewBox="0 0 24 24" fill="none" xmlns="http://www.w3.org/2000/svg">
<g id="FanyLouiseLogo">
<rect id="Rectangle 3" x="20.0723" y="0.234863" width="3.90465" height="23.535" rx="1.95233" fill="#0D0D0D"/>
<path id="Rectangle 5" d="M22.0339 0.21824C23.095 0.228769 23.9463 1.09742 23.9354 2.15843V2.15843C23.9245 3.21944 23.0556 4.07103 21.9946 4.0605L1.92205 3.86131C0.861036 3.85078 0.00972851 2.98212 0.0206011 1.92111V1.92111C0.0314737 0.860104 0.900409 0.00852169 1.96142 0.0190507L22.0339 0.21824Z" fill="#F89406"/>
<rect id="Rectangle 6" width="3.84246" height="23.948" rx="1.92123" transform="matrix(-0.0102469 0.999947 -0.999951 -0.00992301 23.9883 9.78613)" fill="#F89406"/>
<path id="Rectangle 4" d="M22.0788 20.1464C23.1399 20.1526 23.9948 21.0178 23.9884 22.0788V22.0788C23.982 23.1399 23.1166 23.995 22.0556 23.9888L1.98236 23.8712C0.921314 23.8649 0.0663724 22.9998 0.0727927 21.9387V21.9387C0.0792131 20.8777 0.944565 20.0226 2.00561 20.0288L22.0788 20.1464Z" fill="#0D0D0D"/>
<path id="Rectangle 2" d="M0 2.04C0 0.91334 0.913339 0 2.04 0V0C3.16666 0 4.08 0.913339 4.08 2.04V21.96C4.08 23.0867 3.16666 24 2.04 24V24C0.913339 24 0 23.0867 0 21.96V2.04Z" fill="#F89406"/>
</g>
</svg>
