<svg width="18" height="18" viewBox="0 0 18 18" fill="none" xmlns="http://www.w3.org/2000/svg">
<path id="favicon" d="M15.4485 17C16.6121 17 16.8061 16.6484 16.8061 15.3297C16.8061 14.011 17 4.42857 17 3.10989C17 1.79121 16.5151 1.26374 15.4485 1.26374C14.3819 1.26374 3.2303 1 2.35758 1C1.48485 1 0.999963 1.35165 1 2.40659C1.00004 3.46154 1.00003 13.9231 1 15.1538C0.999966 16.3846 1.38788 17 2.74545 17M15.4485 17C14.2848 17 4.10303 17 2.74545 17M15.4485 17H2.74545M3.52121 3.28571H14.3818V7.76923H3.52121V3.28571ZM3.52121 9.7033H14.3818V14.4505H3.52121V9.7033Z" stroke="#F89406"/>
</svg>