<svg width="24" height="24" viewBox="0 0 24 24" fill="none" xmlns="http://www.w3.org/2000/svg">
<g id="Group 16">
<g id="FanyLouiseLogo">
<path id="pt5" d="M22.0571 23.7387L1.98411 23.6211C1.06113 23.6157 0.317436 22.8631 0.323021 21.9401C0.328606 21.0171 1.08136 20.2733 2.00433 20.2787L22.0773 20.3963C23.0003 20.4017 23.744 21.1543 23.7384 22.0773C23.7328 23.0003 22.98 23.7441 22.0571 23.7387Z" fill="#0D0D0D" stroke="black" stroke-width="0.5"/>
<path id="pt1" d="M3.86429 2.05714V21.6C3.86429 22.5981 3.0552 23.4071 2.05714 23.4071C1.05909 23.4071 0.25 22.5981 0.25 21.6V2.05714C0.25 1.05908 1.05909 0.25 2.05714 0.25C3.0552 0.25 3.86429 1.05909 3.86429 2.05714Z" fill="#F89406" stroke="black" stroke-width="0.5"/>
<rect id="pt4" x="20.3223" y="0.484863" width="3.40462" height="23.035" rx="1.70231" fill="#0D0D0D" stroke="black" stroke-width="0.5"/>
<path id="pt2" d="M21.9962 3.81051L1.96124 3.61169C1.03829 3.60253 0.297753 2.84691 0.307211 1.92397C0.316669 1.00102 1.07253 0.260249 1.99548 0.269408L22.0304 0.468227C22.9534 0.477386 23.6939 1.23301 23.6844 2.15595C23.675 3.0789 22.9191 3.81967 21.9962 3.81051Z" fill="#F89406" stroke="black" stroke-width="0.5"/>
<rect id="pt3" x="-0.252549" y="0.247506" width="3.34246" height="23.4478" rx="1.67123" transform="matrix(-0.0102467 0.999948 -0.999951 -0.00992311 23.9787 10.2885)" fill="#F89406" stroke="black" stroke-width="0.5"/>
</g>
</g>
</svg>
