<svg width="80" height="90" viewBox="0 0 80 90" fill="none" xmlns="http://www.w3.org/2000/svg">
<g id="Group 10">
<g id="FanyLouiseLogo">
<path id="Rectangle 4" d="M72.7208 89.4525L7.41178 89.022C3.70902 88.9976 0.723487 85.9761 0.743403 82.2733C0.763318 78.5705 3.78114 75.5886 7.48389 75.613L72.7929 76.0436C76.4956 76.068 79.4812 79.0895 79.4613 82.7922C79.4413 86.495 76.4235 89.4769 72.7208 89.4525Z" fill="#0D0D0D" stroke="black"/>
<path id="Rectangle 2" d="M0.5 6.80487C0.5 3.32279 3.32279 0.5 6.80487 0.5C10.287 0.5 13.1097 3.32279 13.1097 6.80487V83.1951C13.1097 86.6772 10.287 89.5 6.80487 89.5C3.32278 89.5 0.5 86.6772 0.5 83.1951V6.80487Z" fill="#F89406" stroke="black"/>
<rect id="Rectangle 3" x="67.4072" y="1.38062" width="12.0154" height="87.2563" rx="6.00769" fill="#0D0D0D" stroke="black"/>
<path id="Rectangle 5" d="M72.6371 1.30945C76.3397 1.35078 79.3138 4.38589 79.2801 8.08854C79.2464 11.7912 76.2175 14.7593 72.5149 14.718L7.33244 13.9903C3.62987 13.9489 0.65568 10.9138 0.689406 7.21115C0.723133 3.5085 3.75201 0.540409 7.45458 0.581744L72.6371 1.30945Z" fill="#F89406" stroke="black"/>
<rect id="Rectangle 6" x="-0.504523" y="0.494398" width="13.4091" height="78.8269" rx="6.70453" transform="matrix(-0.00910832 0.999959 -0.999938 -0.0111634 79.9394 37.7021)" fill="#F89406" stroke="black"/>
</g>
</g>
</svg>
