<svg width="74" height="74" viewBox="0 0 74 74" fill="none" xmlns="http://www.w3.org/2000/svg">
<path id="Vector104" d="M65.2121 72C70.303 72 71.1515 70.4615 71.1515 64.6923C71.1515 58.9231 71.9998 17 72 11.2308C72.0002 5.46154 69.8786 3.15385 65.2121 3.15385C60.5456 3.15385 11.7576 2 7.93939 2C4.12121 2 1.99984 3.53846 2 8.15385C2.00016 12.7692 2.00015 58.5385 2 63.9231C1.99985 69.3077 3.69697 72 9.63636 72M65.2121 72C60.1212 72 15.5758 72 9.63636 72M65.2121 72H9.63636M13.0303 12H60.5455V31.6154H13.0303V12ZM13.0303 40.0769H60.5455V60.8462H13.0303V40.0769Z" stroke="#F89406" stroke-width="3"/>
</svg>
